<svg width="625" height="570" viewBox="0 0 625 570" fill="none" xmlns="http://www.w3.org/2000/svg">
<path d="M440.253 53.1546C503.424 81.3837 577.4 120.406 608.154 182.676C638.908 245.776 625.609 332.124 584.049 401.036C542.49 470.779 472.67 522.255 394.538 548.824C317.237 576.222 231.624 577.883 160.973 548.824C90.3219 518.934 34.6321 457.494 12.19 391.073C-10.2521 323.821 1.38453 251.588 22.1643 188.488C42.9441 125.388 72.0357 72.2507 116.089 39.8704C160.142 7.48998 217.494 -3.30349 272.353 0.847841C326.38 4.99917 377.083 24.0953 440.253 53.1546Z" fill="url(#paint0_linear_1222_163)"/>
<defs>
<linearGradient id="paint0_linear_1222_163" x1="0" y1="570" x2="567.59" y2="-52.3577" gradientUnits="userSpaceOnUse">
<stop stop-color="#F87537"/>
<stop offset="1" stop-color="#FBB800"/>
</linearGradient>
</defs>
</svg>
