<svg width="139" height="139" viewBox="0 0 139 139" fill="none" xmlns="http://www.w3.org/2000/svg">
<path opacity="0.41" d="M22.3484 118.217C22.3484 118.217 38.1027 131.753 72.3745 125.678C106.646 119.604 118.264 110.199 120.766 90.0219C123.271 69.8447 122.698 56.851 127.399 47.7298C132.097 38.6086 117.449 15.6542 95.0593 16.2185C72.6692 16.7828 80.4115 22.0203 64.9297 13.4524C49.4478 4.88443 24.5585 8.47897 23.7301 24.7865C22.8988 41.0939 21.2447 86.7026 13.5052 98.0367C5.7657 109.368 22.3512 118.214 22.3512 118.214L22.3484 118.217Z" fill="#FFBF00"/>
<path d="M58.6107 41.8251C55.3387 39.4316 54.627 34.8362 57.0206 31.5642C57.9435 30.302 59.2446 29.368 60.7374 28.8981C61.9078 28.5673 63.1255 28.4311 64.3431 28.4923C72.3356 28.6757 80.0751 32.9875 87.9703 31.7282C88.657 31.5808 89.3575 31.5058 90.0609 31.5086C90.7753 31.5141 91.4509 31.8394 91.904 32.3926C92.2877 32.9875 92.3655 33.7326 92.1125 34.3942C91.854 35.0447 91.4509 35.6313 90.9366 36.1067C90.0136 37.0408 88.9294 37.8025 87.734 38.3529C86.9584 38.7088 86.13 38.9756 85.4155 39.4538C84.462 40.0876 83.7753 41.044 82.9302 41.8085C80.7562 43.7684 77.6343 44.3633 74.7153 44.1242C71.7963 43.8851 68.9996 42.9093 66.1807 42.0642C63.3618 41.2191 60.4511 40.538 57.5432 40.8883" fill="#FFBF00"/>
<path d="M58.6107 41.8251C55.3387 39.4316 54.627 34.8362 57.0206 31.5642C57.9435 30.302 59.2446 29.368 60.7374 28.8981C61.9078 28.5673 63.1255 28.4311 64.3431 28.4923C72.3356 28.6757 80.0751 32.9875 87.9703 31.7282C88.657 31.5808 89.3575 31.5058 90.0609 31.5086C90.7753 31.5141 91.4509 31.8394 91.904 32.3926C92.2877 32.9875 92.3655 33.7326 92.1125 34.3942C91.854 35.0447 91.4509 35.6313 90.9366 36.1067C90.0136 37.0408 88.9294 37.8025 87.734 38.3529C86.9584 38.7088 86.13 38.9756 85.4155 39.4538C84.462 40.0876 83.7753 41.044 82.9302 41.8085C80.7562 43.7684 77.6343 44.3633 74.7153 44.1242C71.7963 43.8851 68.9996 42.9093 66.1807 42.0642C63.3618 41.2191 60.4511 40.538 57.5432 40.8883" fill="url(#paint0_linear_1226_1646)"/>
<path d="M63.7871 46.7513C60.6401 46.312 57.5821 48.2969 55.7029 50.8573C53.8264 53.4177 52.8561 56.5063 51.6746 59.4531C50.3486 62.7585 48.7278 65.936 46.8291 68.9496C45.6115 70.8817 44.2548 72.7999 43.7266 75.0211C43.2262 77.1283 43.5153 79.344 43.9963 81.454C44.6412 84.259 45.6476 87.0279 47.3879 89.3158C49.1309 91.6066 51.6774 93.3774 54.5325 93.7305C57.6794 94.1336 60.7625 92.8464 63.8761 92.2237C70.3257 90.9533 76.9393 92.6185 83.4695 93.383C86.7388 93.7666 90.1054 93.9167 93.2801 93.0355C96.4549 92.157 99.4378 90.1109 100.775 87.1002C102.084 84.1562 101.659 80.7618 101.951 77.5481C102.296 73.6783 103.752 69.8558 106.366 66.9841C108.426 64.7267 111.108 63.1199 113.185 60.882C115.259 58.6413 116.69 55.347 115.467 52.5476C110.202 53.2537 104.795 53.9542 99.6352 52.7032C96.605 51.9665 93.7805 50.5821 90.8532 49.5035C87.759 48.3609 84.5481 47.5602 81.2816 47.1099C78.3154 46.704 75.2046 46.6067 72.4162 47.6992C70.9178 48.2886 69.2303 47.8911 67.6402 47.6464C66.3836 47.4629 65.0298 46.9292 63.7843 46.7513H63.7871Z" fill="#FFBF00"/>
<path d="M63.7871 46.7513C60.6401 46.312 57.5821 48.2969 55.7029 50.8573C53.8264 53.4177 52.8561 56.5063 51.6746 59.4531C50.3486 62.7585 48.7278 65.936 46.8291 68.9496C45.6115 70.8817 44.2548 72.7999 43.7266 75.0211C43.2262 77.1283 43.5153 79.344 43.9963 81.454C44.6412 84.259 45.6476 87.0279 47.3879 89.3158C49.1309 91.6066 51.6774 93.3774 54.5325 93.7305C57.6794 94.1336 60.7625 92.8464 63.8761 92.2237C70.3257 90.9533 76.9393 92.6185 83.4695 93.383C86.7388 93.7666 90.1054 93.9167 93.2801 93.0355C96.4549 92.157 99.4378 90.1109 100.775 87.1002C102.084 84.1562 101.659 80.7618 101.951 77.5481C102.296 73.6783 103.752 69.8558 106.366 66.9841C108.426 64.7267 111.108 63.1199 113.185 60.882C115.259 58.6413 116.69 55.347 115.467 52.5476C110.202 53.2537 104.795 53.9542 99.6352 52.7032C96.605 51.9665 93.7805 50.5821 90.8532 49.5035C87.759 48.3609 84.5481 47.5602 81.2816 47.1099C78.3154 46.704 75.2046 46.6067 72.4162 47.6992C70.9178 48.2886 69.2303 47.8911 67.6402 47.6464C66.3836 47.4629 65.0298 46.9292 63.7843 46.7513H63.7871Z" fill="url(#paint1_linear_1226_1646)"/>
<path d="M65.1799 49.6036C62.297 49.2005 59.4864 51.0214 57.7656 53.3705C56.0448 55.7196 55.1524 58.5552 54.0682 61.2573C52.8506 64.2903 51.3633 67.2093 49.6202 69.9726C48.5027 71.7379 47.2656 73.5032 46.7735 75.541C46.3148 77.4731 46.5789 79.508 47.0237 81.4429C47.613 84.0144 48.5388 86.5581 50.1373 88.6598C51.7358 90.7615 54.0738 92.3878 56.6898 92.7214C59.5782 93.0911 62.4082 91.904 65.2661 91.3369C71.1847 90.161 77.2506 91.6983 83.2443 92.4017C86.2467 92.7519 89.3353 92.8909 92.2487 92.0847C95.1622 91.2785 97.8977 89.3993 99.1265 86.6359C100.327 83.9282 99.9438 80.8202 100.205 77.8734C100.519 74.3205 101.856 70.8122 104.258 68.1795C106.146 66.1195 108.609 64.6322 110.513 62.5889C112.42 60.5429 113.727 57.4988 112.593 54.9384C107.764 55.5889 102.802 56.2339 98.0673 55.0829C95.2873 54.4102 92.6935 53.1369 90.0108 52.1389C87.1697 51.0936 84.2257 50.3569 81.226 49.9455C78.5044 49.573 75.6494 49.484 73.0918 50.4904C71.7184 51.0297 70.1672 50.6683 68.7077 50.4403C67.5651 50.2569 66.328 49.7676 65.1799 49.6036Z" fill="url(#paint2_linear_1226_1646)"/>
<path d="M57.5265 48.0356C56.0337 48.3526 54.8577 49.4646 53.7652 50.5293L48.5138 55.6445C47.9522 56.1922 47.3712 56.7649 47.121 57.5071C46.7985 58.469 47.0904 59.5282 47.513 60.4511C47.9578 61.4186 48.6139 62.3749 49.6147 62.7363C50.2819 62.9782 51.0186 62.9198 51.7247 62.8586L58.5718 62.2693L59.1223 73.0723C59.1028 73.4115 59.2084 73.7479 59.4169 74.0175C59.6032 74.1704 59.8256 74.2733 60.0647 74.3122C63.4035 75.1962 66.8896 75.3797 70.3062 74.8571C70.7121 74.8265 71.1013 74.6903 71.4349 74.4595C71.8296 74.1343 71.9686 73.5978 72.0743 73.0974C72.7582 69.8614 72.9861 66.5449 72.7498 63.245C74.201 65.0771 75.174 61.1044 77.3646 61.9079C78.4155 62.2943 79.508 62.664 80.6228 62.589C81.7376 62.5111 82.8885 61.8745 83.2304 60.8236C83.5724 59.7728 83.0581 58.6525 82.5048 57.6989C80.4532 54.1822 77.0866 51.3717 73.7617 49.017C73.4504 48.0412 72.5497 48.9836 71.5516 48.7446C71.2153 48.6612 70.423 49.9622 70.081 49.9427C69.4917 49.901 70.6704 51.0881 70.081 51.0464C66.4837 48.5777 61.7966 47.1349 57.5293 48.0384L57.5265 48.0356Z" fill="#FFBF00"/>
<path d="M68.8523 55.4694C68.9273 57.5293 68.9996 59.5893 69.0691 61.6493C69.0552 62.5167 69.1803 63.3785 69.4416 64.2069C69.7363 65.0159 70.3813 65.7526 71.2069 65.95C71.6295 66.0695 72.0854 65.9778 72.4274 65.6998C72.7721 65.3828 72.8499 64.8797 72.8833 64.4126C73.0223 62.525 72.7359 60.6124 73.064 58.7525C73.1668 58.1632 73.3586 57.5266 73.8757 57.2013C74.5151 56.7926 75.3464 57.0345 76.0775 57.2347C77.4897 57.6211 78.9492 57.8046 80.4143 57.7851C79.5803 56.6092 77.9345 56.3729 76.7252 55.575C74.9599 54.3991 74.1621 52.0444 72.2355 51.1604C71.6462 50.9213 71.029 50.7628 70.398 50.6905C69.5612 50.5543 66.5087 50.2152 66.9174 51.911C67.0703 52.542 67.9265 52.7199 68.2935 53.2148C68.7856 53.8597 68.8189 54.7049 68.8495 55.4694H68.8523Z" fill="url(#paint3_linear_1226_1646)"/>
<path d="M51.9888 57.0984C53.2287 54.5408 55.6167 52.7311 58.4161 52.2307C58.7497 52.1417 59.1056 52.1723 59.4197 52.3168C59.82 52.5504 59.9424 53.0591 60.0258 53.515C60.996 58.9499 61.2934 64.4821 61.3351 69.9949C61.3852 70.5898 61.2962 71.1847 61.0766 71.7407C60.8153 72.2745 60.2148 72.6915 59.6393 72.5413C59.1334 72.3606 58.7775 71.8992 58.7331 71.3654C58.6914 70.8455 58.7247 70.3229 58.8331 69.8114C59.303 66.4003 58.1409 63.0421 57.9491 59.6672C57.8935 58.683 57.9908 57.3514 56.801 57.0484C56.4257 56.9622 52.0138 57.0428 51.986 57.1012L51.9888 57.0984Z" fill="url(#paint4_linear_1226_1646)"/>
<path d="M79.9333 17.0776C79.9834 16.9942 80.0112 16.8996 80.0195 16.7996C80.0056 16.6828 79.9639 16.5688 79.9028 16.466C79.6081 15.8766 79.6943 15.1649 79.8388 14.5172C79.8666 14.3115 79.9528 14.1196 80.089 13.9612C80.2336 13.8027 80.4754 13.7833 80.6422 13.9195C80.57 13.5581 80.9564 13.2384 81.3261 13.2356C81.6931 13.2745 82.0434 13.4163 82.3297 13.6498C82.794 13.9445 83.3055 14.3448 83.3388 14.9008C83.3305 15.2122 83.2443 15.518 83.0831 15.7849C82.8718 16.2825 82.5882 16.744 82.2407 17.1582C81.9933 17.4251 81.6903 17.6475 81.4651 17.9394C81.2455 18.2535 81.0731 18.5954 80.9564 18.9596L80.6144 19.8437C80.5616 20.016 80.4727 20.1773 80.3559 20.3135C79.8221 20.8333 78.7435 20.2106 78.6657 19.5545C78.624 19.182 78.9603 18.829 79.1327 18.5343C79.4274 18.0645 79.697 17.5752 79.9361 17.0748L79.9333 17.0776Z" fill="#FFB4A3"/>
<path d="M51.1492 17.7698C51.102 17.6864 51.0714 17.5918 51.0658 17.4918C51.0797 17.375 51.1186 17.261 51.1798 17.1582C51.4745 16.5688 51.3911 15.8571 51.2437 15.2094C51.2159 15.0037 51.1298 14.8118 50.9963 14.6534C50.8518 14.4949 50.6099 14.4755 50.4431 14.6089C50.5126 14.2503 50.1262 13.9334 49.7564 13.9278C49.3895 13.9639 49.0392 14.1085 48.7528 14.342C48.2914 14.6367 47.7799 15.037 47.7465 15.5902C47.7521 15.9016 47.841 16.2046 47.9995 16.4743C48.2108 16.9691 48.4943 17.4334 48.8418 17.8448C49.092 18.1145 49.395 18.3369 49.6174 18.6288C49.8426 18.9374 50.0178 19.2793 50.1373 19.6407L50.4792 20.5247C50.5321 20.6999 50.621 20.8583 50.7406 20.9946C51.2715 21.5144 52.3529 20.8917 52.428 20.2356C52.4725 19.8603 52.1333 19.51 51.961 19.2154C51.6635 18.7483 51.3911 18.2646 51.1464 17.767L51.1492 17.7698Z" fill="#FFB4A3"/>
<path d="M62.0635 29.5014C58.5329 28.0307 56.2644 24.6447 54.2128 21.4255C53.9264 20.9139 53.5567 20.4525 53.1175 20.0605C52.6699 19.6657 52.0583 19.5156 51.4773 19.6602C50.7711 19.8909 50.3736 20.6776 50.3653 21.4255C50.3569 22.1733 50.6599 22.8738 50.9546 23.5522C52.1305 26.3238 53.3371 29.1122 54.9745 31.6447C55.4527 32.3286 55.8891 33.0403 56.2755 33.7798C56.8093 34.9029 57.0317 36.1344 57.2457 37.3799C57.5015 38.8338 57.7517 40.2878 58.0019 41.7445C58.2966 43.4319 58.6358 45.2417 59.8673 46.426C61.3212 47.8243 63.5508 47.9272 65.5691 47.8966C66.3586 47.9355 67.1481 47.8188 67.8932 47.5519C69.0274 47.0598 69.7558 45.9451 70.2478 44.8219C72.0131 40.9299 71.8491 36.4597 72.9277 32.3258C74.0064 28.1948 78.5405 25.6955 80.3058 21.8035C80.4643 21.5116 80.5533 21.1864 80.57 20.8528C80.5561 19.902 79.3745 19.3321 78.4571 19.5629C77.5397 19.7936 76.8503 20.547 76.2248 21.2614L71.2625 26.9132C70.6926 27.5637 70.0866 28.2309 69.3054 28.5812C68.6549 28.8286 67.9682 28.9593 67.276 28.9704C65.5635 29.0983 63.6481 30.1602 62.0607 29.4958L62.0635 29.5014Z" fill="#FFBF00"/>
<path d="M62.0635 29.5014C58.5329 28.0307 56.2644 24.6447 54.2128 21.4255C53.9264 20.9139 53.5567 20.4525 53.1175 20.0605C52.6699 19.6657 52.0583 19.5156 51.4773 19.6602C50.7711 19.8909 50.3736 20.6776 50.3653 21.4255C50.3569 22.1733 50.6599 22.8738 50.9546 23.5522C52.1305 26.3238 53.3371 29.1122 54.9745 31.6447C55.4527 32.3286 55.8891 33.0403 56.2755 33.7798C56.8093 34.9029 57.0317 36.1344 57.2457 37.3799C57.5015 38.8338 57.7517 40.2878 58.0019 41.7445C58.2966 43.4319 58.6358 45.2417 59.8673 46.426C61.3212 47.8243 63.5508 47.9272 65.5691 47.8966C66.3586 47.9355 67.1481 47.8188 67.8932 47.5519C69.0274 47.0598 69.7558 45.9451 70.2478 44.8219C72.0131 40.9299 71.8491 36.4597 72.9277 32.3258C74.0064 28.1948 78.5405 25.6955 80.3058 21.8035C80.4643 21.5116 80.5533 21.1864 80.57 20.8528C80.5561 19.902 79.3745 19.3321 78.4571 19.5629C77.5397 19.7936 76.8503 20.547 76.2248 21.2614L71.2625 26.9132C70.6926 27.5637 70.0866 28.2309 69.3054 28.5812C68.6549 28.8286 67.9682 28.9593 67.276 28.9704C65.5635 29.0983 63.6481 30.1602 62.0607 29.4958L62.0635 29.5014Z" fill="url(#paint5_linear_1226_1646)"/>
<path d="M62.6278 29.5236C62.6806 29.5736 62.7223 29.632 62.7557 29.6959C63.0976 30.3437 62.9003 31.1666 63.3451 31.7754C63.5758 32.0645 63.9038 32.2619 64.268 32.3314C65.0631 32.5232 65.8915 32.1868 66.328 31.4918C66.7172 30.7968 66.5421 29.9406 66.9841 29.2623C67.2065 28.9176 67.4984 28.6256 67.7486 28.3032C68.9746 26.713 68.9718 24.3889 68.7883 22.4846C68.6771 21.3587 68.3213 20.13 67.4317 19.4405C66.5421 18.7511 65.3522 18.6705 64.2486 18.8067C63.7954 18.8484 63.3534 18.9679 62.942 19.1597C62.1246 19.6296 61.5464 20.4274 61.349 21.3504C61.1628 22.265 61.1072 23.2019 61.185 24.1304L61.2545 26.157C61.2462 26.8353 61.3351 27.5109 61.513 28.1642C61.6103 28.495 61.7827 28.7952 62.0162 29.0482C62.208 29.2511 62.4527 29.3457 62.6278 29.518V29.5236Z" fill="#FFB4A3"/>
<path d="M60.2509 19.3516C60.1119 19.8103 60.0397 20.2884 60.0397 20.7694C59.9952 21.3031 60.048 21.8397 60.1926 22.3568C60.2927 22.6514 60.4483 22.9461 60.5512 23.2408C60.793 23.9441 60.7986 24.8171 61.3991 25.2563C61.3741 24.0081 61.5353 22.7654 61.8717 21.5645C62.4527 22.0565 63.2283 22.2511 63.9734 22.0899C64.4654 21.9842 64.9102 21.7285 65.3856 21.5756C65.8554 21.3782 66.392 21.4143 66.834 21.6729C67.0675 21.8397 67.251 22.1177 67.5373 22.1371C67.6763 22.1205 67.8181 22.1205 67.9571 22.1371C68.1517 22.2039 68.2129 22.4318 68.2518 22.6487L68.6215 24.8949C68.7272 24.8532 68.8134 24.7726 68.8634 24.6669C69.4528 23.7106 69.4528 22.518 69.3805 21.3977C69.3666 20.7027 69.2109 20.0216 68.9273 19.3877C68.7244 19.0263 68.4825 18.6872 68.2073 18.3758C67.7625 17.8393 67.2927 17.2833 66.6449 17.0275C66.1557 16.869 65.6414 16.8051 65.1298 16.8329C64.7184 16.8107 64.3042 16.8524 63.9067 16.9524C63.1116 17.2026 62.5722 17.8893 61.7327 18.0116C60.9348 18.1339 60.5123 18.5815 60.2537 19.3516H60.2509Z" fill="#3E3E54"/>
<path d="M62.6278 29.5236C62.6278 29.5236 65.0075 30.4994 66.8034 29.2123C66.8034 29.2123 66.4114 31.9283 65.0381 32.0229C63.6648 32.1174 63.1282 31.3306 63.1282 31.3306C63.1282 31.3306 63.2394 29.9823 62.6278 29.5236Z" fill="url(#paint6_linear_1226_1646)"/>
<path d="M57.5516 48.0662C57.3014 49.3117 57.2124 50.5849 57.2819 51.8526C57.2041 52.2112 57.432 52.5615 57.7879 52.6393C57.8157 52.6449 57.8435 52.6505 57.8713 52.6532C58.8053 52.8951 59.7617 53.0424 60.7263 53.0925C61.0127 53.1231 61.3018 53.098 61.5798 53.0146C61.9384 52.8534 62.2442 52.5921 62.4638 52.264C62.9642 51.6135 63.3729 50.8991 63.6787 50.1401C63.8232 49.7843 63.9734 49.3784 64.3403 49.2561C64.4988 49.2088 64.6628 49.1949 64.8268 49.2088C65.6775 49.2422 66.6422 49.3284 67.1537 50.0067C67.3511 50.3208 67.5067 50.66 67.6152 51.0158C67.9154 51.8137 68.4742 52.4892 69.2053 52.9312C69.9754 53.3288 70.8483 53.4872 71.7101 53.3844C72.4996 53.3204 73.2697 53.1203 73.9897 52.795C74.2788 52.7394 74.4679 52.4614 74.415 52.1723C74.4067 52.1306 74.3928 52.0889 74.3761 52.05C73.8257 49.8176 73.0918 47.6381 72.1771 45.5281C72.0604 45.2223 71.8991 44.9332 71.7045 44.6719C70.9929 43.7878 69.7002 43.76 68.5798 43.7878C66.7867 43.8351 64.9936 43.8823 63.2061 44.0825C62.2803 44.1742 61.3629 44.316 60.4511 44.5051C59.5393 44.6969 59.1223 44.822 58.5885 45.6059C58.0964 46.3538 57.7462 47.185 57.5543 48.0607L57.5516 48.0662Z" fill="#3E3E54"/>
<path d="M63.0003 50.6294C62.992 50.8935 63.0198 51.1604 63.0838 51.4189C63.195 51.7469 63.3729 52.0472 63.6064 52.3029C63.7232 52.4586 63.8677 52.5921 64.029 52.7005C64.2402 52.8145 64.4793 52.8701 64.7212 52.8645C65.5385 52.845 66.3197 52.5198 66.9146 51.9582C67.1843 51.7497 67.3844 51.4606 67.4817 51.1353C67.529 50.8601 67.5095 50.5793 67.4289 50.3125C67.3149 49.8287 67.1509 49.3617 66.9897 48.8947C66.9646 48.8029 66.9202 48.7167 66.859 48.6417C66.7033 48.5082 66.4976 48.4499 66.2947 48.4777C65.5413 48.4777 64.7879 48.5138 64.0373 48.5833C63.751 48.5805 63.4646 48.6222 63.1894 48.7112C62.9448 48.8307 62.9837 49.0837 62.9865 49.3228C62.9865 49.7676 62.992 50.1957 62.9976 50.6349L63.0003 50.6294Z" fill="#FFB4A3"/>
<path d="M66.4559 51.2993C66.7867 51.291 67.1092 51.2131 67.4066 51.0658C67.7819 50.8295 68.046 50.4487 68.1378 50.015C68.2267 49.5841 68.2573 49.1448 68.2295 48.7056C68.2406 48.561 68.2101 48.4193 68.1406 48.2914C68.0488 48.1774 67.9237 48.094 67.7847 48.0495C66.5282 47.5435 63.7398 47.0654 63.1588 48.8196C62.5027 50.8156 65.0631 51.4161 66.4587 51.2966L66.4559 51.2993Z" fill="url(#paint7_linear_1226_1646)"/>
<path d="M64.7462 30.6384C63.6592 30.8635 62.7418 31.5919 62.2776 32.601L61.438 31.8616C61.4019 31.8226 61.3546 31.7948 61.3018 31.7893C61.2434 31.7948 61.1878 31.8199 61.1489 31.8616C60.2621 32.6344 59.7533 33.7547 59.7533 34.9307C59.7644 35.0252 59.745 35.1197 59.7005 35.2031C59.6282 35.3115 59.4781 35.331 59.3474 35.3616C58.8276 35.5006 58.5162 36.0621 58.4634 36.6015C58.4495 37.1436 58.4745 37.6829 58.5468 38.2194C58.5746 38.7393 58.5079 39.2619 58.5607 39.779C58.7053 40.9994 59.4809 42.0558 60.6068 42.5534C61.6076 42.9843 62.7502 42.9093 63.8232 42.7341C64.8963 42.559 65.9694 42.281 67.0592 42.3338C67.5318 42.4033 68.0127 42.395 68.4797 42.3032C68.7466 42.2143 68.994 42.0808 69.2192 41.9113C69.8002 41.536 70.2895 41.0328 70.6454 40.4406C70.9984 39.6984 71.1597 38.8811 71.1124 38.0637C71.1319 37.4104 71.0401 36.7571 70.8344 36.1344C70.6426 35.7285 70.473 35.3143 70.3284 34.889C70.2617 34.5943 70.2506 34.2996 70.1755 34.0049C69.9309 33.0848 69.0135 32.4648 68.0766 32.2897C67.6318 32.2118 67.1787 32.1952 66.7283 32.2369C66.3558 32.2674 65.7692 32.4954 65.4078 32.4203C65.0464 32.3453 64.4404 30.6967 64.7406 30.6384H64.7462Z" fill="#3E3E54"/>
<path d="M60.44 42.648L60.4928 43.7572C60.5012 44.6134 60.6012 45.4641 60.7875 46.3009C60.9793 47.1405 61.4352 47.8994 62.0858 48.4637C62.5222 48.8001 63.0226 49.042 63.5564 49.1726C64.8268 49.5146 66.1751 49.4173 67.3817 48.8946C67.7931 48.7278 68.1656 48.4804 68.477 48.1635C69.1025 47.4824 69.247 46.4899 69.2137 45.567C69.1803 44.644 68.9829 43.7238 69.0608 42.8037C69.0886 42.6091 69.0886 42.4117 69.0608 42.2143C69.0357 42.0169 68.9051 41.8473 68.7216 41.7695C69.1052 40.7242 69.3221 39.6233 69.361 38.5086C69.3888 37.9192 69.3304 37.2715 68.9023 36.8711C68.616 36.6404 68.2685 36.4958 67.9043 36.4541C65.6024 36.0316 63.2367 36.8267 61.185 37.9581C60.7764 38.136 60.4428 38.4474 60.2343 38.8422C60.1481 39.0951 60.1147 39.3648 60.1398 39.6345C60.1592 40.5491 60.3844 41.7195 60.44 42.6452V42.648Z" fill="#FFB4A3"/>
<path d="M58.4189 51.7358L58.6302 56.384L58.797 60.0869C58.797 60.351 58.8248 60.6207 58.8359 60.8848C58.847 61.1489 58.9443 61.4213 58.822 61.6576C58.4968 62.2748 57.6628 62.6056 57.0567 62.8586C56.4396 63.1449 55.7946 63.3645 55.133 63.5119C54.9828 63.5313 54.8355 63.5675 54.6937 63.6231C54.5464 63.6787 54.4352 63.8038 54.399 63.9567C54.3879 64.1318 54.4602 64.2986 54.5964 64.4098C54.9745 64.724 55.4666 64.8657 55.9531 64.8018C56.434 64.7379 56.9094 64.6461 57.3792 64.5294C58.5885 64.307 59.8784 64.4821 61.0266 64.0373C61.1934 63.99 61.3379 63.8872 61.4352 63.7426C61.4853 63.6314 61.5131 63.5091 61.5131 63.3868C61.5742 62.3776 61.6965 61.3852 61.7466 60.3649L62.0413 54.513L62.2081 51.0464C62.2081 51.0464 59.9173 49.4562 58.4217 51.7386L58.4189 51.7358Z" fill="#FFB4A3"/>
<path d="M73.0195 51.1325L73.4865 55.7529L73.8479 59.3363C73.8924 59.7728 73.8201 60.4984 73.9814 60.8931C74.2149 61.4602 75.1573 61.6687 75.7133 61.7271C76.3916 61.7688 77.0727 61.716 77.7371 61.5687C78.0735 61.5075 78.4544 61.4519 78.7213 61.6632C79.0048 61.9606 79.0187 62.4221 78.7546 62.7335C78.485 63.0254 78.1402 63.2367 77.7566 63.3423C76.6502 63.7454 75.5048 64.0262 74.34 64.1819C73.8257 64.268 73.303 64.268 72.7887 64.1819C72.2717 64.0901 71.813 63.7899 71.5238 63.3506C71.1708 62.7613 71.3292 62.108 71.2292 61.4714C71.1791 61.1322 71.0929 60.7958 71.029 60.4594L69.1525 50.9991C69.1525 50.9991 71.2069 49.0948 73.0195 51.1353V51.1325Z" fill="#FFB4A3"/>
<path d="M73.4643 58.569C73.3336 58.5162 73.1918 58.4968 73.0528 58.5079H71.4738C71.2931 58.4884 71.1152 58.5329 70.9651 58.6358C70.8205 58.8165 70.7677 59.0555 70.8261 59.2807C70.9122 60.0202 71.0818 60.7458 71.3265 61.4463C71.3431 61.5131 71.3821 61.5742 71.4349 61.6187C71.7601 61.83 72.7081 61.5492 73.0584 61.4463C73.3864 61.3824 73.6811 61.2073 73.898 60.9515C74.2455 60.4428 74.037 58.847 73.4643 58.5718V58.569Z" fill="white"/>
<path d="M59.214 59.5115C59.3447 59.4587 59.4864 59.4392 59.6282 59.4503H61.2267C61.4074 59.4309 61.5909 59.4753 61.741 59.5782C61.8884 59.7617 61.9412 60.0035 61.8828 60.2315C61.7938 60.9793 61.6243 61.7132 61.3768 62.4249C61.3602 62.4944 61.3212 62.5556 61.2656 62.6028C60.9404 62.8141 59.9757 62.5306 59.6227 62.4221C59.2918 62.3582 58.9916 62.1831 58.7748 61.9245C58.4217 61.4074 58.633 59.7978 59.214 59.5143V59.5115Z" fill="white"/>
<path d="M60.8236 55.6695C61.0599 55.6223 61.3018 55.6417 61.527 55.7251C61.7994 55.8947 62.0079 56.1532 62.1163 56.4563C62.247 56.7259 62.3554 57.0929 62.1163 57.2903C62.1775 57.5266 62.3443 57.7267 62.411 57.9602C62.4777 58.1938 62.3582 58.5162 62.1163 58.5246C62.2275 58.6691 62.2942 58.8443 62.3026 59.0278C62.3054 59.2112 62.1858 59.3753 62.0079 59.4253C62.0357 59.5532 62.0274 59.72 61.905 59.7561C61.8689 59.7645 61.83 59.7645 61.7938 59.7561C61.3629 59.6116 60.9237 59.4892 60.4817 59.3919C60.0258 59.2974 59.5559 59.4753 59.2779 59.8506C59.125 60.112 59.0917 60.49 58.8137 60.6096C58.6163 60.668 58.405 60.6429 58.2243 60.5429C57.8129 60.5012 57.5015 60.1509 57.5099 59.7367C57.4821 59.3641 57.4821 58.9916 57.5099 58.6219C57.5627 57.9269 57.7767 57.1012 58.3939 56.6787C59.1167 56.1588 59.9479 55.8141 60.8264 55.6723L60.8236 55.6695Z" fill="#FFB4A3"/>
<path d="M71.1763 55.4415C70.9373 55.4249 70.6954 55.4777 70.4841 55.5945C70.2339 55.8002 70.0643 56.0837 69.9948 56.3979C69.9031 56.6926 69.8447 57.0623 70.0977 57.2291C70.0671 57.471 69.9337 57.6906 69.9059 57.9324C69.8781 58.1743 70.0338 58.4745 70.2756 58.4495C70.1839 58.608 70.145 58.7915 70.1616 58.9722C70.1839 59.1584 70.334 59.3057 70.5203 59.3252C70.5203 59.4531 70.5397 59.6199 70.6676 59.6366C70.7037 59.6366 70.7427 59.6282 70.776 59.6143C71.1819 59.4114 71.6017 59.2279 72.027 59.0695C72.4663 58.9138 72.9583 59.0277 73.2836 59.3641C73.4726 59.6032 73.5532 59.9702 73.8479 60.0536C74.0453 60.0786 74.2482 60.0258 74.4067 59.9062C74.6708 59.8006 74.8821 59.5949 74.9961 59.3335C75.0183 59.2251 75.0266 59.1167 75.0127 59.0083C74.9877 58.6386 74.9377 58.2688 74.8598 57.9046C74.7125 57.2235 74.3872 56.434 73.7339 56.1032C72.9444 55.6862 72.0659 55.461 71.1736 55.4443L71.1763 55.4415Z" fill="#FFB4A3"/>
<path d="M58.5746 73.2808C58.5746 73.2808 55.5166 93.4303 55.5166 93.7055C55.5166 93.9807 50.7294 114.53 50.7294 114.53L54.5075 114.714L63.1672 89.1908L65.0131 84.4008L68.9746 94.445L74.0425 115.545H78.4572C78.4572 115.545 75.2212 93.155 74.7737 92.5907C74.3261 92.0291 73.6839 75.6466 71.7351 73.7145C69.7863 71.7824 58.2966 72.3356 58.2966 72.3356L58.5802 73.2836L58.5746 73.2808Z" fill="#3E3E54"/>
<path d="M46.3148 116.871C46.1063 116.988 45.9423 117.169 45.845 117.385C45.7783 117.669 45.8867 117.964 46.1174 118.139C46.3482 118.303 46.6178 118.406 46.9014 118.434C48.1718 118.631 49.4562 118.253 50.7267 118.011C51.7108 117.822 52.7116 117.714 53.7124 117.68C54.0182 117.714 54.324 117.619 54.5547 117.416C54.6715 117.235 54.7299 117.021 54.716 116.804C54.7438 116.243 54.7493 115.679 54.7382 115.114C54.8077 114.797 54.6048 114.483 54.2878 114.414C54.185 114.391 54.0766 114.397 53.9765 114.43C52.7588 114.43 51.3271 114.214 50.1373 114.589C49.5869 114.767 46.3148 116.36 46.3148 116.868V116.871Z" fill="#3E3E54"/>
<path d="M82.3492 117.377C82.5577 117.497 82.7217 117.677 82.8162 117.894C82.8829 118.175 82.7773 118.47 82.5465 118.645C82.3158 118.809 82.0461 118.912 81.7626 118.94C80.4893 119.137 79.2078 118.759 77.9373 118.52C76.9532 118.328 75.9552 118.22 74.9544 118.189C74.6486 118.225 74.3428 118.128 74.112 117.922C73.9953 117.741 73.9369 117.527 73.9508 117.31C73.923 116.749 73.9146 116.185 73.9285 115.62C73.9119 115.448 73.9563 115.275 74.0481 115.128C74.2232 114.972 74.4567 114.903 74.6903 114.936C75.9079 114.936 77.3396 114.722 78.5155 115.095C79.0799 115.275 82.3492 116.866 82.3492 117.374V117.377Z" fill="#3E3E54"/>
<path d="M61.1239 61.8634C60.0563 62.2998 58.8276 61.7021 57.6989 61.9329C57.2624 62.0469 56.8454 62.2192 56.459 62.45L54.6437 63.4341C54.4018 63.5314 54.1989 63.6982 54.0543 63.915C53.9098 64.2959 54.0543 64.7268 54.4018 64.9408C54.7465 65.1354 55.1385 65.2383 55.5361 65.2355C56.9483 65.3217 58.3633 65.3217 59.7756 65.2355C60.1648 65.2411 60.5484 65.1799 60.9181 65.0548C61.4741 64.8241 61.8717 64.3265 61.9718 63.7343C62.0607 63.1366 61.8383 62.5361 61.3824 62.1386L61.1239 61.8606V61.8634Z" fill="#3E3E54"/>
<path d="M71.1708 61.4575C72.4218 61.6938 73.6227 60.7736 74.896 60.7764C75.3908 60.8042 75.8801 60.9043 76.3499 61.0711L78.5322 61.7188C78.8102 61.7716 79.066 61.9078 79.2633 62.1108C79.4996 62.4889 79.4357 62.9809 79.1132 63.2867C78.7852 63.5814 78.3849 63.7843 77.954 63.8761C76.4416 64.2764 74.9071 64.585 73.3586 64.799C72.9416 64.8908 72.5107 64.9102 72.0854 64.8574C71.4321 64.7295 70.89 64.2792 70.6481 63.6592C70.4229 63.031 70.5341 62.3304 70.9428 61.8022L71.1735 61.4547L71.1708 61.4575Z" fill="#3E3E54"/>
<defs>
<linearGradient id="paint0_linear_1226_1646" x1="71.0874" y1="32.2036" x2="87.6729" y2="52.4725" gradientUnits="userSpaceOnUse">
<stop stop-color="#231F20" stop-opacity="0"/>
<stop offset="1" stop-color="#231F20"/>
</linearGradient>
<linearGradient id="paint1_linear_1226_1646" x1="83.0692" y1="75.199" x2="54.5408" y2="10.2582" gradientUnits="userSpaceOnUse">
<stop stop-color="#231F20" stop-opacity="0"/>
<stop offset="1" stop-color="#231F20"/>
</linearGradient>
<linearGradient id="paint2_linear_1226_1646" x1="82.6133" y1="73.9647" x2="61.1489" y2="38.0999" gradientUnits="userSpaceOnUse">
<stop stop-color="#231F20" stop-opacity="0"/>
<stop offset="1" stop-color="#231F20"/>
</linearGradient>
<linearGradient id="paint3_linear_1226_1646" x1="90.9422" y1="60.8931" x2="57.357" y2="56.6091" gradientUnits="userSpaceOnUse">
<stop stop-color="#231F20" stop-opacity="0"/>
<stop offset="1" stop-color="#231F20"/>
</linearGradient>
<linearGradient id="paint4_linear_1226_1646" x1="49.1421" y1="72.1827" x2="72.7276" y2="46.6595" gradientUnits="userSpaceOnUse">
<stop stop-color="#231F20" stop-opacity="0"/>
<stop offset="1" stop-color="#231F20"/>
</linearGradient>
<linearGradient id="paint5_linear_1226_1646" x1="65.4051" y1="19.0625" x2="66.8534" y2="66.5198" gradientUnits="userSpaceOnUse">
<stop stop-color="#231F20" stop-opacity="0"/>
<stop offset="1" stop-color="#231F20"/>
</linearGradient>
<linearGradient id="paint6_linear_1226_1646" x1="65.1159" y1="25.8068" x2="64.0568" y2="35.206" gradientUnits="userSpaceOnUse">
<stop stop-color="#231F20" stop-opacity="0"/>
<stop offset="1" stop-color="#231F20"/>
</linearGradient>
<linearGradient id="paint7_linear_1226_1646" x1="65.1409" y1="31.2583" x2="65.9833" y2="61.2267" gradientUnits="userSpaceOnUse">
<stop stop-color="#231F20" stop-opacity="0"/>
<stop offset="1" stop-color="#231F20"/>
</linearGradient>
</defs>
</svg>
