<svg width="147" height="147" viewBox="0 0 147 147" fill="none" xmlns="http://www.w3.org/2000/svg">
<path opacity="0.24" d="M42.7505 13.865C38.3288 18.1251 35.6593 23.8463 33.4484 29.5735C31.2375 35.3006 29.2412 41.2247 25.6074 46.1698C20.5653 53.0552 12.7214 57.5211 7.77924 64.483C2.18736 72.3652 0.96726 82.9609 3.81906 92.1955C6.67086 101.43 13.3358 109.265 21.562 114.342C38.1877 124.606 59.1058 123.521 78.6509 123.218C90.5344 123.033 102.641 123.236 114.051 119.887C125.462 116.539 136.337 108.924 140.262 97.6962C144.895 84.4397 138.665 69.3869 128.731 59.4644C123.703 54.4429 117.624 50.1682 114.387 43.8383C112.105 39.3725 111.458 34.2539 109.603 29.5911C105.946 20.3918 97.6462 13.5064 88.3294 10.1577C80.1209 7.20594 57.036 0.0940752 42.7447 13.8621L42.7505 13.865Z" fill="#FBB800"/>
<path opacity="0.13" d="M40.4074 113.002C42.9152 114.798 46.1727 115.069 49.2509 115.277C68.4432 116.559 87.8854 117.594 106.772 113.946C108.168 113.675 109.818 113.149 110.171 111.77C106.246 110.7 102.103 110.9 98.0372 110.997C87.8325 111.244 77.6248 110.806 67.4789 109.688C63.0836 109.206 58.5031 108.998 54.0931 109.315C51.6764 109.5 49.2832 109.918 46.9489 110.565C46.1668 110.776 40.7396 113.234 40.4132 113.002H40.4074Z" fill="#FBB800"/>
<path d="M87.859 110.676H58.0238L63.2306 100.366H83.9105L87.859 110.676Z" fill="#FBB800"/>
<path d="M90.6137 109.932H55.5836V112.431H90.6137V109.932Z" fill="#FBB800"/>
<path d="M116.994 40.7454V99.716C116.994 101.236 115.76 102.465 114.24 102.462C114.24 102.462 114.24 102.462 114.237 102.462H33.5601C32.0401 102.468 30.8053 101.242 30.7994 99.7219C30.7994 99.7219 30.7994 99.7189 30.7994 99.716V40.7454C30.7994 39.2225 32.0372 37.9877 33.5601 37.9877H114.234C115.757 37.9877 116.988 39.2225 116.991 40.7454H116.994Z" fill="#FBB800"/>
<path d="M116.994 40.7454V90.0581H30.8024V40.7454C30.8024 39.2225 32.0401 37.9877 33.563 37.9877H114.237C115.76 37.9877 116.991 39.2225 116.994 40.7454Z" fill="url(#paint0_linear_1226_1369)"/>
<path d="M114.19 41.4628H33.9629V87.9178H114.19V41.4628Z" fill="white"/>
<path d="M73.2413 98.0608C74.2918 98.0608 75.1435 97.2091 75.1435 96.1586C75.1435 95.108 74.2918 94.2564 73.2413 94.2564C72.1907 94.2564 71.3391 95.108 71.3391 96.1586C71.3391 97.2091 72.1907 98.0608 73.2413 98.0608Z" fill="url(#paint1_linear_1226_1369)"/>
<g opacity="0.52">
<path d="M61.9164 45.2554H44.2382V46.552H61.9164V45.2554Z" fill="#FBB800"/>
<path d="M55.028 47.7662H44.2382V48.9863H55.028V47.7662Z" fill="#FBB800"/>
<path d="M93.3362 47.7662H59.3821V48.9922H93.3362V47.7662Z" fill="#FBB800"/>
<path d="M64.6859 50.2799H49.8506V51.5617H64.6859V50.2799Z" fill="#FBB800"/>
<path d="M72.2887 52.7877H54.6105V54.0843H72.2887V52.7877Z" fill="#FBB800"/>
<path d="M88.2617 52.7877H73.4441V54.2283H88.2617V52.7877Z" fill="#FBB800"/>
<path d="M68.2374 55.2985H54.587V56.5186H68.2374V55.2985Z" fill="#FBB800"/>
<path d="M97.7138 55.2985H69.5486V56.6479H97.7138V55.2985Z" fill="#FBB800"/>
<path d="M61.9164 58.6912H44.2382V59.9878H61.9164V58.6912Z" fill="#FBB800"/>
<path d="M55.028 61.199H44.2382V62.4191H55.028V61.199Z" fill="#FBB800"/>
<path d="M93.3362 61.199H59.3821V62.425H93.3362V61.199Z" fill="#FBB800"/>
<path d="M64.6859 63.7098H49.8506V64.9917H64.6859V63.7098Z" fill="#FBB800"/>
<path d="M72.2887 66.2235H54.6105V67.5201H72.2887V66.2235Z" fill="#FBB800"/>
<path d="M88.2617 66.2235H73.4441V67.6641H88.2617V66.2235Z" fill="#FBB800"/>
<path d="M68.2374 68.7343H54.587V69.9544H68.2374V68.7343Z" fill="#FBB800"/>
<path d="M97.7138 68.7343H69.5486V70.0837H97.7138V68.7343Z" fill="#FBB800"/>
<path d="M61.9164 72.127H44.2382V73.4236H61.9164V72.127Z" fill="#FBB800"/>
<path d="M55.028 74.6348H44.2382V75.8549H55.028V74.6348Z" fill="#FBB800"/>
<path d="M93.3362 74.6348H59.3821V75.8608H93.3362V74.6348Z" fill="#FBB800"/>
<path d="M64.6859 77.1456H49.8506V78.4275H64.6859V77.1456Z" fill="#FBB800"/>
<path d="M72.2887 79.6534H54.6105V80.95H72.2887V79.6534Z" fill="#FBB800"/>
<path d="M88.2617 79.6534H73.4441V81.094H88.2617V79.6534Z" fill="#FBB800"/>
<path d="M68.2374 82.17H54.587V83.3902H68.2374V82.17Z" fill="#FBB800"/>
<path d="M97.7138 82.17H69.5486V83.5195H97.7138V82.17Z" fill="#FBB800"/>
</g>
<path d="M100.927 27.4096C100.927 27.4096 100.721 32.2253 100.566 32.4311C100.41 32.6369 98.4782 32.6105 98.4782 32.6105L98.6605 30.6407L99.5308 27.9123L100.927 27.4096Z" fill="#FFAA71"/>
<path d="M98.3518 14.4295C98.1284 14.1002 97.8109 13.8415 97.4434 13.6886C96.726 13.3417 95.9146 13.2476 95.1355 13.4211C94.3593 13.6004 93.6919 14.0914 93.2921 14.7823C92.8922 15.4967 92.8334 16.3817 92.316 17.0167C92.3836 17.1578 92.5159 17.2578 92.6717 17.2784L92.5747 17.5106C92.6423 17.4871 92.7188 17.5224 92.7423 17.59C92.7541 17.6194 92.7541 17.6518 92.7423 17.6782H93.3215C93.3009 17.7635 93.3715 17.8429 93.4332 17.9046L94.2858 18.7249C94.3652 18.8189 94.474 18.8866 94.5945 18.916C94.7444 18.7601 95.1031 19.3246 95.1502 19.1218C95.1972 18.9189 94.8973 17.9899 95.0914 17.9075L96.7319 17.2343C97.1111 17.0785 97.655 16.9403 97.8991 16.5787C98.0784 16.3111 98.1049 15.9642 98.2842 15.6761C98.5253 15.2704 98.6252 14.8823 98.3518 14.4325V14.4295Z" fill="#231F20"/>
<path d="M98.3518 14.4295C98.1284 14.1002 97.8109 13.8415 97.4434 13.6886C96.726 13.3417 95.9146 13.2476 95.1355 13.4211C94.3593 13.6004 93.6919 14.0914 93.2921 14.7823C92.8922 15.4967 92.8334 16.3817 92.316 17.0167C92.3836 17.1578 92.5159 17.2578 92.6717 17.2784L92.5747 17.5106C92.6423 17.4871 92.7188 17.5224 92.7423 17.59C92.7541 17.6194 92.7541 17.6518 92.7423 17.6782H93.3215C93.3009 17.7635 93.3715 17.8429 93.4332 17.9046L94.2858 18.7249C94.3652 18.8189 94.474 18.8866 94.5945 18.916C94.7444 18.7601 95.1031 19.1747 95.1502 18.963C95.1972 18.7513 94.8973 17.9781 95.0914 17.8987L96.7319 17.2255C97.1111 17.0696 97.655 16.9315 97.8991 16.5698C98.0784 16.3023 98.1049 15.9554 98.2842 15.6673C98.5253 15.2704 98.6252 14.8852 98.3518 14.4325V14.4295Z" fill="url(#paint2_linear_1226_1369)"/>
<path d="M96.823 15.4644C96.9436 15.2028 97.1464 14.9852 97.4022 14.85C97.5727 14.7647 97.7785 14.8 97.9079 14.9352C97.9726 15.044 97.999 15.1704 97.9843 15.2968V15.8466C97.7168 15.9172 97.5639 16.1994 97.3199 16.3288C97.1552 16.4052 96.9759 16.4376 96.7966 16.4199C96.6496 16.4199 96.2644 16.3288 96.3732 16.1377C96.4349 16.0318 96.5496 15.9319 96.6172 15.8349C96.6848 15.7378 96.7554 15.5879 96.823 15.4674V15.4644Z" fill="url(#paint3_linear_1226_1369)"/>
<path d="M99.6513 22.5351C101.13 23.8404 101.268 25.8249 101.389 26.7334C101.539 27.8594 98.8546 28.5768 99.1985 27.2714C99.3749 26.5982 98.002 21.953 98.8957 22.0529C99.2044 22.0882 99.1985 22.1352 99.6513 22.5351Z" fill="#FBB800"/>
<path d="M99.2926 23.7346C100.548 25.2576 100.372 27.2391 100.351 28.1535C100.351 29.2942 100.163 30.4261 99.8042 31.508C99.4396 32.5987 98.7546 33.5513 97.8403 34.2451C97.7697 34.3039 97.6874 34.3451 97.5962 34.3657C97.3993 34.3627 97.2111 34.2657 97.0935 34.107C96.8701 33.91 96.6995 33.663 96.5966 33.3837C96.3908 32.6869 97.0053 32.0548 97.4051 31.4463C98.2254 30.1644 98.1666 28.5151 97.9549 27.0039C97.8608 26.313 97.7491 22.9056 98.6223 23.1466C98.9222 23.2201 98.9104 23.2642 99.2926 23.7317V23.7346Z" fill="url(#paint4_linear_1226_1369)"/>
<path d="M99.2926 44.9614C99.2691 45.3701 99.2485 45.8317 99.4984 46.1609C100.151 45.7699 100.351 44.932 100.433 44.1647C100.598 42.6623 100.557 41.1453 100.31 39.6577C100.283 39.4166 100.213 39.1843 100.104 38.9697C99.8924 38.661 99.5954 38.4229 99.2485 38.2876C99.0398 38.173 98.8075 38.1112 98.5694 38.1083C98.3254 38.1112 98.1137 38.267 98.0343 38.4964C98.0137 38.6434 98.0314 38.7904 98.0813 38.9285C98.2254 39.4225 98.3283 39.937 98.5929 40.3809C98.8281 40.7513 99.0016 41.1541 99.1045 41.5804C99.3455 42.6888 99.4073 43.8295 99.2897 44.9585L99.2926 44.9614Z" fill="url(#paint5_linear_1226_1369)"/>
<path d="M90.3433 39.4871C90.8254 39.8635 91.4634 39.9781 92.072 40.0222C92.2984 40.0369 92.5218 40.0428 92.7482 40.0516C93.4009 40.0781 93.9271 40.6014 93.9565 41.2541C93.9771 41.7216 93.9859 42.189 93.9859 42.6565C93.9859 43.7766 93.9477 44.9467 94.4387 45.9522C94.5416 46.158 94.7062 46.3873 94.9414 46.3873C95.0678 46.3814 95.1854 46.3315 95.2825 46.2491C95.5823 45.9992 95.7881 45.6553 95.8734 45.2731C95.9557 44.8938 95.9881 44.5057 95.9704 44.1176C95.9704 42.6329 95.8411 41.1218 95.2648 39.7547C95.2031 39.5989 95.1266 39.4489 95.0384 39.3049C94.6592 38.758 94.0859 38.3758 93.4332 38.2376C92.7864 38.1024 92.1249 38.0671 91.4693 38.1348C91.1547 38.1553 90.8431 38.1818 90.5314 38.1965C90.358 38.1965 89.7112 38.1083 89.5818 38.1965C89.329 38.4111 90.158 39.3431 90.3433 39.4842V39.4871Z" fill="url(#paint6_linear_1226_1369)"/>
<path d="M103.353 38.7521C103.42 40.2251 101.536 47.5633 101.127 47.8309C100.786 48.0631 100.172 47.7544 99.8189 47.5369C99.7513 47.4869 99.7013 47.4487 99.6542 47.4193C99.3808 47.2135 99.8189 41.5804 99.8189 41.5804C99.8189 41.5804 99.9571 39.6694 98.6194 38.5552C97.1258 37.3145 95.4177 36.1738 95.5324 35.2947C95.5441 35.1624 95.6 35.0389 95.6911 34.9419C96.4438 34.0452 100.719 34.7361 101.618 35.3917L101.668 35.4211C101.668 35.4211 101.668 35.4329 101.668 35.4388C101.689 35.4593 101.718 35.4976 101.765 35.5475C101.833 35.6357 101.942 35.7622 102.059 35.9092C102.377 36.3472 102.662 36.8059 102.909 37.2851C103.15 37.7408 103.303 38.2376 103.356 38.7492L103.353 38.7521Z" fill="#231F20"/>
<path d="M102.915 37.2762C102.915 37.6584 99.9747 37.0234 99.6131 37.6584C99.2515 38.2935 100.051 38.0406 100.336 39.446C100.622 40.8513 100.336 46.6607 100.022 47.2752C99.9747 47.3751 99.9041 47.4604 99.8159 47.528C99.7483 47.478 99.6983 47.4398 99.6513 47.4104C99.3779 47.2046 99.8159 41.5716 99.8159 41.5716C99.8159 41.5716 99.9541 39.6606 98.6164 38.5463C98.6164 38.5463 98.8222 37.2792 97.8932 36.5559C97.0171 35.8739 95.6676 35.3447 95.5294 35.2888C95.6382 35.2506 97.4933 34.6743 98.9869 34.742C99.8953 34.7802 100.789 35.0007 101.615 35.3888L101.665 35.4182C101.665 35.4182 101.665 35.4299 101.665 35.4358C101.686 35.4564 101.715 35.4946 101.762 35.5446C101.83 35.6328 101.939 35.7592 102.056 35.9062C102.424 36.3854 102.915 37.0499 102.915 37.2821V37.2762Z" fill="url(#paint7_linear_1226_1369)"/>
<path d="M97.5139 47.2634C97.361 47.7074 97.1082 48.1072 96.773 48.4365C96.4114 48.7393 95.8646 48.8657 95.4736 48.6217C95.0149 48.3365 94.9267 47.7338 94.8767 47.2046C94.7209 45.3613 94.7121 42.1772 94.5563 40.3397C94.5386 40.1339 94.4446 39.9428 94.2917 39.8017C94.0594 39.6194 93.7948 39.4783 93.5096 39.3931C92.954 39.2078 92.2601 39.0608 91.7427 38.7198C91.5575 38.6051 91.3928 38.4552 91.2635 38.2817C90.3462 37.0205 90.0052 34.4656 90.7666 33.2426C90.9724 32.8663 91.3458 32.6105 91.7721 32.5576C93.101 32.3929 95.4941 33.2632 96.0498 34.4627C96.2262 34.8508 96.3026 35.2829 96.5584 35.624C96.9965 36.2384 97.8667 36.4237 98.296 37.0469C98.49 37.3733 98.6105 37.7408 98.6488 38.12C99.1309 41.2129 98.7399 44.3793 97.5169 47.2576L97.5139 47.2634Z" fill="#231F20"/>
<path d="M94.5416 39.3666C94.6239 39.5489 94.6151 39.7576 94.5239 39.9311C94.4475 39.8929 94.3769 39.8429 94.2976 39.8047C94.0447 39.6694 93.7801 39.5313 93.5155 39.396C93.1451 39.2314 92.7541 39.0756 92.363 38.9374C92.1572 38.8698 91.9544 38.7992 91.7486 38.7228C91.5634 38.6081 91.3987 38.4582 91.2694 38.2847C90.3521 37.0234 90.011 34.4686 90.7725 33.2455C91.5163 33.2955 92.2366 33.6366 92.9128 33.96C93.3127 34.1658 93.7154 34.3422 94.0918 34.5744C94.3446 34.7214 94.865 34.936 94.4622 35.2212C93.9183 35.6034 92.8717 34.9272 92.4512 35.5417C92.3748 35.6828 92.3336 35.8416 92.3336 36.0003C92.3131 36.2326 92.2954 36.4766 92.2748 36.7236C92.2484 36.9382 92.2631 37.1557 92.3131 37.3674C92.4336 37.635 92.6306 37.8613 92.8805 38.0142C93.3185 38.3259 93.7978 38.5699 94.1888 38.9227C94.3358 39.0462 94.4534 39.199 94.5386 39.3725L94.5416 39.3666Z" fill="url(#paint8_linear_1226_1369)"/>
<path d="M95.4118 50.7973C95.5765 50.9561 95.7587 51.0943 95.9557 51.206L96.8113 51.7381C97.12 51.9292 97.5257 52.1174 97.8138 51.9028C98.1019 51.6882 98.0549 51.3118 97.952 51.0031C97.7991 50.5474 97.5345 50.1358 97.1788 49.8095C97.1023 49.7536 97.0406 49.6831 96.9935 49.6037C96.9612 49.5155 96.9465 49.4214 96.9553 49.3273V48.4483C96.9553 47.5604 95.7264 47.7192 95.3442 48.2425C94.8738 48.8834 94.862 50.2035 95.4148 50.7944L95.4118 50.7973Z" fill="#231F20"/>
<path d="M99.6895 49.7036C99.9012 50.03 100.21 50.2828 100.572 50.4239C100.918 50.5915 101.28 50.7238 101.653 50.8238C101.806 50.8884 101.983 50.8737 102.124 50.7855C102.183 50.7209 102.224 50.6385 102.236 50.5533C102.362 49.9888 102.2 49.4008 101.806 48.9774C101.63 48.8275 101.471 48.654 101.333 48.4659C101.165 48.1719 101.201 47.8132 101.171 47.478C101.107 46.743 99.9424 46.9341 99.6513 47.4104C99.3602 47.8867 99.4367 49.2391 99.6866 49.7036H99.6895Z" fill="#231F20"/>
<path d="M90.4903 32.537C90.4697 32.8368 90.5402 33.1338 90.6961 33.3925C90.8548 33.5718 91.0547 33.713 91.2752 33.8012C92.363 34.3451 93.4685 34.9007 94.6621 35.1242C95.8558 35.3505 97.1758 35.2094 98.146 34.4744C98.4988 34.2275 98.7634 33.8747 98.9075 33.4689C99.0633 32.975 98.9575 32.4458 98.931 31.9254C98.8634 30.6377 99.2926 29.3853 99.5925 28.1299C99.8924 26.8745 100.051 25.4986 99.4837 24.3402C99.0339 23.4288 100.001 22.6644 99.1486 22.1058C97.9549 21.3238 96.5496 20.9445 94.5945 21.2356C93.836 21.3473 91.2488 22.4116 90.9665 23.126C90.6843 23.8404 91.5046 24.5607 91.4105 25.3281C91.1165 27.6977 90.4873 30.1556 90.4873 32.534L90.4903 32.537Z" fill="#FBB800"/>
<path d="M92.0396 32.7516C92.0632 32.7075 92.0955 32.6722 92.1367 32.6458C92.1984 32.6222 92.2631 32.6164 92.3278 32.6281C92.7011 32.6605 93.0775 32.6605 93.4508 32.6281C93.5684 32.6281 93.686 32.5958 93.7889 32.537C93.8918 32.4752 93.9418 32.3488 93.9036 32.2342C93.8536 32.1224 93.7184 32.0872 93.5978 32.0607C93.1862 31.9637 92.7864 31.8196 92.4101 31.6256C92.0837 31.4286 91.7427 31.261 91.387 31.1287C91.1018 31.0435 90.7108 31.0758 90.6108 31.358C90.5902 31.4257 90.5814 31.4933 90.5814 31.5638L90.5373 32.4164C90.4961 32.731 90.5373 33.0544 90.6549 33.3484C90.8607 33.7306 91.2811 33.9188 91.678 34.0834C91.7956 34.1452 91.9309 34.1628 92.0632 34.1393C91.875 33.6895 91.7427 33.2102 92.0367 32.7516H92.0396Z" fill="url(#paint9_linear_1226_1369)"/>
<path d="M92.0837 28.3681C92.0837 28.0094 92.4042 27.7536 92.6394 27.4714C93.0745 26.9598 93.295 26.2983 93.2539 25.628C93.2303 25.2458 92.9804 24.7783 92.6041 24.8577C92.5159 24.8812 92.4336 24.9224 92.3601 24.9783C91.5075 25.5692 90.8842 26.4394 90.6049 27.4361C90.4932 27.7889 90.4667 28.1623 90.5314 28.5268C90.6696 29.0061 90.9518 29.4353 91.334 29.7558C92.0573 30.4408 92.9246 30.9582 93.8683 31.2728C94.1212 31.3551 94.8914 31.608 94.715 31.1258C94.618 30.8553 92.0661 28.7091 92.0837 28.3651V28.3681Z" fill="url(#paint10_linear_1226_1369)"/>
<path d="M89.8846 26.5629C89.8846 26.5629 89.0644 28.8531 89.0144 30.1379C88.9644 31.4227 93.1833 32.243 93.1833 32.243L93.8654 31.2757C93.8654 31.2757 91.5104 29.9997 91.2811 29.447C91.0518 28.8943 91.7839 27.1773 91.7839 27.1773L89.8817 26.5599L89.8846 26.5629Z" fill="#FFAA71"/>
<path d="M92.7599 32.5487L97.705 32.781L97.952 32.8574C97.952 32.8574 97.4698 34.4979 96.5937 34.4391C95.7176 34.3803 92.7629 32.5487 92.7629 32.5487H92.7599Z" fill="url(#paint11_linear_1226_1369)"/>
<path d="M94.9532 33.4366L97.364 33.4513C97.364 33.4513 96.8554 34.2922 96.432 34.3392L94.9532 33.4366Z" fill="#FBB800"/>
<path d="M94.9532 33.4366L97.364 33.4513C97.364 33.4513 96.8554 34.2922 96.432 34.3392L94.9532 33.4366Z" fill="url(#paint12_linear_1226_1369)"/>
<path d="M95.597 23.6787C96.0527 23.9198 96.6113 23.8698 97.0171 23.5523C97.2052 23.3877 97.3287 23.1613 97.3669 22.9143C97.4728 22.2146 96.8818 21.5649 96.9318 20.8652C96.9583 20.5153 97.1376 20.1566 97.0171 19.8273C96.9112 19.548 95.3413 19.0894 95.2825 19.3834C94.8797 21.462 93.8771 22.8232 95.5941 23.6817L95.597 23.6787Z" fill="#FFAA71"/>
<path d="M95.5088 19.4745C95.5088 19.4745 95.3442 22.5351 96.9935 22.3263C96.9935 22.3263 97.2523 22.294 97.1729 21.9177C97.0935 21.5414 96.776 21.1533 96.7966 20.8181C96.8171 20.483 95.5088 19.4745 95.5088 19.4745Z" fill="url(#paint13_linear_1226_1369)"/>
<path d="M98.3342 16.4875C98.3342 16.5639 98.3459 16.6374 98.3606 16.7109C98.4341 16.9873 98.49 17.2666 98.5282 17.5518C98.5753 18.0869 98.587 18.6278 98.5635 19.1658C98.5664 19.6274 98.4753 20.0861 98.296 20.5153C98.099 20.9416 97.6991 21.2385 97.2317 21.3032C96.8083 21.3414 96.4114 21.1092 96.0645 20.8534C95.5324 20.4447 94.1858 19.01 94.7827 19.3217C95.6206 19.7656 94.2211 17.8311 94.8062 17.4459C94.9649 17.3401 95.1502 17.3401 95.3089 17.2401C95.5059 17.102 95.6823 16.9373 95.8322 16.7492C96.1527 16.3875 96.4467 15.9701 96.923 15.7937C97.2875 15.6555 97.6933 15.6878 98.0314 15.8848C98.1196 15.9318 98.196 16.0024 98.2489 16.0906C98.3077 16.2141 98.3371 16.3523 98.3342 16.4904V16.4875Z" fill="#FFAA71"/>
<path d="M96.7142 32.1695C96.8789 32.4693 96.9377 32.8133 96.8818 33.1514C96.8818 33.2161 96.8612 33.2808 96.8318 33.3366C96.7818 33.4072 96.7084 33.4542 96.626 33.4748C96.038 33.6806 95.4471 33.1544 94.8238 33.125C94.668 33.125 94.5122 33.1426 94.3593 33.125C94.1623 33.0838 93.9771 33.0044 93.8125 32.8868C93.6331 32.7751 93.4567 32.6575 93.2862 32.534C92.8775 32.2341 93.051 31.6991 93.392 31.4109C93.7007 31.1522 93.9477 31.1963 94.2976 31.3198C95.0326 31.5785 96.2409 31.4492 96.7113 32.1665L96.7142 32.1695Z" fill="#FFAA71"/>
<path d="M100.422 32.2724C100.483 32.3106 100.53 32.3635 100.566 32.4282C100.586 32.4929 100.592 32.5634 100.583 32.634C100.536 33.0368 100.389 33.419 100.154 33.7482C100.063 33.8982 99.9159 34.007 99.7454 34.0481C99.4455 34.0922 99.2221 33.7747 98.9369 33.66C98.6517 33.5454 98.2754 33.6395 98.0108 33.4542C97.8109 33.2867 97.6962 33.0368 97.7021 32.7751C97.6639 32.2635 98.4694 31.9196 98.9016 31.8137C99.419 31.6961 100.025 31.9754 100.427 32.2724H100.422Z" fill="#FFAA71"/>
<path d="M99.1427 30.723C99.2632 30.4701 99.4014 30.185 99.6631 30.0791C99.7718 30.0409 99.8836 30.0203 99.9982 30.0174C102.553 29.8263 105.12 29.9115 107.657 30.2702C107.677 30.4378 107.619 30.6054 107.498 30.723C106.287 32.3076 105.073 33.8982 103.67 35.3182C103.588 35.4123 103.488 35.4917 103.376 35.5475C103.223 35.6004 103.059 35.6151 102.9 35.5857C102.491 35.5446 102.08 35.474 101.671 35.4152C100.063 35.1741 98.44 35.0477 96.8142 35.0418C96.4379 35.0595 96.0586 35.0242 95.6911 34.9331C95.4265 34.8419 95.1707 34.7214 94.9326 34.5744C94.0682 34.1216 93.2568 33.5777 92.5071 32.9515C92.4483 32.9015 92.3895 32.8339 92.4013 32.7575C92.413 32.681 92.4895 32.6399 92.56 32.6134C93.3568 32.2988 93.7419 32.9427 94.4798 33.3778C94.9297 33.6453 95.6911 34.2098 96.1939 34.3568C96.6466 34.4891 97.2052 33.663 97.4728 33.3337C98.1431 32.5428 98.7076 31.6667 99.1456 30.7259L99.1427 30.723Z" fill="#FBB800"/>
<path d="M107.492 30.726C107.357 30.8994 107.219 31.0876 107.084 31.264C106.034 32.6869 104.893 34.0393 103.667 35.3153C103.585 35.4094 103.485 35.4888 103.373 35.5476C103.218 35.5946 103.056 35.6093 102.894 35.5858C102.485 35.5476 102.074 35.4682 101.665 35.4123C100.142 35.1771 98.6076 35.0566 97.067 35.0507H96.3526C96.1292 35.0507 95.9057 35.0154 95.6882 34.9537C95.4206 34.8625 95.1649 34.742 94.9267 34.5921C94.3711 34.2863 93.8301 33.9541 93.3068 33.5954C93.0245 33.4043 92.757 33.1956 92.5042 32.9692C92.4395 32.9251 92.3983 32.8516 92.3983 32.7751C92.3983 32.6958 92.4865 32.6575 92.5541 32.6281C93.3568 32.3165 93.592 32.8339 94.3211 33.2749C94.7709 33.5395 95.6911 34.2275 96.1909 34.3745C96.6466 34.5097 97.2023 33.6836 97.4669 33.3602C98.1401 32.5664 98.7046 31.6873 99.1486 30.7465C99.2662 30.4937 99.4014 30.2085 99.666 30.0997C99.7718 30.0586 99.8836 30.0351 99.9982 30.0321C102.553 29.841 105.123 29.9204 107.66 30.2673C107.678 30.4378 107.619 30.6054 107.495 30.726H107.492Z" fill="url(#paint14_linear_1226_1369)"/>
<path d="M107.492 30.723C106.419 32.1283 104.917 34.054 103.667 35.3153C103.585 35.4094 103.485 35.4887 103.373 35.5475C103.218 35.5946 103.056 35.6093 102.894 35.5858C102.485 35.5475 102.074 35.4682 101.665 35.4123C100.142 35.1771 98.6076 35.0566 97.067 35.0507C97.2817 34.8625 97.4698 34.6508 97.6315 34.4186C98.2989 33.6218 98.8604 32.7428 99.3014 31.802C99.419 31.5491 99.9629 30.723 100.228 30.6142C100.336 30.5789 100.448 30.5613 100.56 30.5554C102.871 30.379 105.193 30.4349 107.492 30.7201V30.723Z" fill="url(#paint15_linear_1226_1369)"/>
<path d="M94.5416 18.8043C94.4975 18.8043 94.4504 18.819 94.4122 18.8425C94.3534 18.8866 94.324 18.9601 94.327 19.0336C94.3328 19.1041 94.3564 19.1747 94.3916 19.2394C94.4416 19.3335 94.5004 19.4246 94.568 19.5069C94.6856 19.6716 94.8856 19.7539 95.0855 19.7245C95.2589 19.6686 95.3618 19.4922 95.3236 19.3158C95.1943 19.0012 94.8826 18.7984 94.5416 18.8072V18.8043Z" fill="#FFAA71"/>
<path d="M94.8709 19.2423C94.8179 19.2099 94.8209 19.1306 94.7856 19.0776C94.7503 19.0247 94.6562 19.013 94.5592 19.0188C94.5504 19.0247 94.5445 19.0365 94.5475 19.0482C94.5416 19.1923 94.5974 19.3305 94.7033 19.4275C94.7386 19.4657 94.7827 19.4951 94.8297 19.5157C94.8797 19.5333 94.9355 19.5245 94.9767 19.4922C95.0237 19.4451 95.0414 19.3775 95.0237 19.3128C94.9914 19.2158 94.9532 19.2834 94.8709 19.2393V19.2423Z" fill="url(#paint16_linear_1226_1369)"/>
<path d="M89.5495 25.4927C89.4965 25.6015 89.4701 25.722 89.4642 25.8426C89.4642 25.9866 89.2584 26.5805 89.3201 26.7099C89.6406 27.342 91.5428 27.9388 91.5898 27.9035C92.0161 27.5537 92.0396 26.8804 92.2748 26.3894C92.5159 25.919 92.6688 25.4104 92.7247 24.8841C92.7776 24.0903 92.4101 23.2436 91.5839 23.0408C90.8225 22.8497 90.5373 23.4965 90.2139 24.0756C89.9581 24.5343 89.7376 25.0076 89.5465 25.4957L89.5495 25.4927Z" fill="#FBB800"/>
<defs>
<linearGradient id="paint0_linear_1226_1369" x1="73.7881" y1="25.2105" x2="74.188" y2="172.984" gradientUnits="userSpaceOnUse">
<stop stop-color="#231F20" stop-opacity="0"/>
<stop offset="1" stop-color="#231F20"/>
</linearGradient>
<linearGradient id="paint1_linear_1226_1369" x1="73.2354" y1="93.3362" x2="73.2619" y2="104.088" gradientUnits="userSpaceOnUse">
<stop stop-color="#231F20" stop-opacity="0"/>
<stop offset="1" stop-color="#231F20"/>
</linearGradient>
<linearGradient id="paint2_linear_1226_1369" x1="95.1737" y1="15.338" x2="97.3875" y2="20.4212" gradientUnits="userSpaceOnUse">
<stop stop-color="#231F20" stop-opacity="0"/>
<stop offset="1" stop-color="#231F20"/>
</linearGradient>
<linearGradient id="paint3_linear_1226_1369" x1="96.3556" y1="15.6114" x2="97.9843" y2="15.6114" gradientUnits="userSpaceOnUse">
<stop stop-color="#231F20" stop-opacity="0"/>
<stop offset="1" stop-color="#231F20"/>
</linearGradient>
<linearGradient id="paint4_linear_1226_1369" x1="101.023" y1="27.7766" x2="87.8777" y2="32.0836" gradientUnits="userSpaceOnUse">
<stop stop-color="#231F20" stop-opacity="0"/>
<stop offset="1" stop-color="#231F20"/>
</linearGradient>
<linearGradient id="paint5_linear_1226_1369" x1="97.9873" y1="42.5506" x2="105.24" y2="39.5254" gradientUnits="userSpaceOnUse">
<stop stop-color="#231F20" stop-opacity="0"/>
<stop offset="1" stop-color="#231F20"/>
</linearGradient>
<linearGradient id="paint6_linear_1226_1369" x1="91.4781" y1="42.7035" x2="105.705" y2="35.7269" gradientUnits="userSpaceOnUse">
<stop stop-color="#231F20" stop-opacity="0"/>
<stop offset="1" stop-color="#231F20"/>
</linearGradient>
<linearGradient id="paint7_linear_1226_1369" x1="101.503" y1="41.8891" x2="90.6431" y2="35.9121" gradientUnits="userSpaceOnUse">
<stop stop-color="#231F20" stop-opacity="0"/>
<stop offset="1" stop-color="#231F20"/>
</linearGradient>
<linearGradient id="paint8_linear_1226_1369" x1="93.4655" y1="36.6736" x2="84.5662" y2="35.7445" gradientUnits="userSpaceOnUse">
<stop stop-color="#231F20" stop-opacity="0"/>
<stop offset="1" stop-color="#231F20"/>
</linearGradient>
<linearGradient id="paint9_linear_1226_1369" x1="92.8364" y1="32.9162" x2="85.5305" y2="31.2199" gradientUnits="userSpaceOnUse">
<stop stop-color="#231F20" stop-opacity="0"/>
<stop offset="1" stop-color="#231F20"/>
</linearGradient>
<linearGradient id="paint10_linear_1226_1369" x1="94.0271" y1="27.9947" x2="81.4703" y2="32.0725" gradientUnits="userSpaceOnUse">
<stop stop-color="#231F20" stop-opacity="0"/>
<stop offset="1" stop-color="#231F20"/>
</linearGradient>
<linearGradient id="paint11_linear_1226_1369" x1="99.5072" y1="31.3668" x2="92.7247" y2="34.4156" gradientUnits="userSpaceOnUse">
<stop stop-color="#231F20" stop-opacity="0"/>
<stop offset="1" stop-color="#231F20"/>
</linearGradient>
<linearGradient id="paint12_linear_1226_1369" x1="96.1703" y1="33.2367" x2="96.0498" y2="35.0419" gradientUnits="userSpaceOnUse">
<stop stop-color="#231F20" stop-opacity="0"/>
<stop offset="1" stop-color="#231F20"/>
</linearGradient>
<linearGradient id="paint13_linear_1226_1369" x1="95.2883" y1="22.1176" x2="104.1" y2="11.3807" gradientUnits="userSpaceOnUse">
<stop stop-color="#231F20" stop-opacity="0"/>
<stop offset="1" stop-color="#231F20"/>
</linearGradient>
<linearGradient id="paint14_linear_1226_1369" x1="101.606" y1="36.2884" x2="94.2329" y2="14.1061" gradientUnits="userSpaceOnUse">
<stop stop-color="#231F20" stop-opacity="0"/>
<stop offset="1" stop-color="#231F20"/>
</linearGradient>
<linearGradient id="paint15_linear_1226_1369" x1="103.226" y1="35.7328" x2="96.6496" y2="15.9466" gradientUnits="userSpaceOnUse">
<stop stop-color="#231F20" stop-opacity="0"/>
<stop offset="1" stop-color="#231F20"/>
</linearGradient>
<linearGradient id="paint16_linear_1226_1369" x1="94.7096" y1="19.2983" x2="96.0814" y2="18.3032" gradientUnits="userSpaceOnUse">
<stop stop-color="#231F20" stop-opacity="0"/>
<stop offset="1" stop-color="#231F20"/>
</linearGradient>
</defs>
</svg>
