<svg width="134" height="134" viewBox="0 0 134 134" fill="none" xmlns="http://www.w3.org/2000/svg">
<path opacity="0.18" d="M40.2697 17.9641C44.9034 19.1486 49.2128 21.7536 54.0181 21.7348C58.6706 21.7214 62.8272 19.2585 67.1018 17.5647C73.3623 15.0804 80.2258 14.1719 87.025 13.8422C92.6315 13.5689 98.498 13.727 103.488 16.1202C108.478 18.5135 112.053 23.0212 114.077 27.8961C116.103 32.7737 116.695 38.0533 116.923 43.2713C117.105 47.688 117.06 52.1555 118.121 56.465C119.584 62.4146 123.092 67.729 125.901 73.2525C128.15 77.6691 129.993 82.3484 130.444 87.2179C130.897 92.0875 129.851 97.1983 126.769 101.167C122.16 107.112 113.86 109.572 105.994 110.207C101.583 110.561 97.0294 110.48 92.9049 111.957C90.123 112.949 87.6789 114.6 85.0176 115.846C79.7139 118.333 73.6759 119.156 67.7397 119.442C52.6432 120.171 37.5682 117.655 23.5277 112.064C21.44 111.225 19.3469 110.298 17.6612 108.88C15.7825 107.305 14.5149 105.206 13.526 103.041C9.92672 95.132 9.75252 86.0897 13.0436 78.0497C15.485 72.1376 19.8106 66.4479 19.1057 60.1526C18.0471 50.7753 8.67784 42.4807 12.6174 32.5567C16.7848 22.0779 28.0864 14.8553 40.2643 17.9641H40.2697Z" fill="#FFBF00"/>
<path d="M124.679 29.9731H90.0587V60.4715H124.679V29.9731Z" fill="#FFBF00"/>
<path d="M124.679 29.9731H90.0587V60.4715H124.679V29.9731Z" fill="url(#paint0_linear_1226_1726)"/>
<path opacity="0.34" d="M101.157 29.3326C101.272 29.3326 101.387 29.346 101.502 29.346C101.419 29.0673 101.741 28.9038 102.03 28.8314C102.486 28.7162 103.043 28.5688 103.046 28.1373C103.046 27.9095 102.883 27.679 102.719 27.4673C102.545 27.2797 102.419 27.0519 102.352 26.8054C102.322 26.6151 102.451 26.4355 102.641 26.406C102.687 26.398 102.735 26.398 102.781 26.406L102.513 25.9236C102.258 25.4627 102.907 25.7226 103.137 25.6396C103.059 25.3635 102.925 25.1062 102.74 24.8865L113.34 30.485C113.174 30.5681 113.037 30.694 112.941 30.8522C112.847 31.0344 113.053 31.297 113.058 31.4739C113.061 31.4954 113.061 31.5195 113.058 31.5409L112.997 31.766C112.911 31.9 112.79 32.0072 112.651 32.0796C112.439 32.168 112.241 32.2913 112.07 32.4468C111.906 32.6585 111.823 32.9238 111.834 33.1918C111.82 33.5992 111.906 34.036 112.201 34.3174C112.209 34.3281 112.22 34.3362 112.23 34.3415L112.013 35.0598L101.162 29.338L101.157 29.3326Z" fill="#FFBF00"/>
<path opacity="0.34" d="M101.157 29.3326C101.272 29.3326 101.387 29.346 101.502 29.346C101.419 29.0673 101.741 28.9038 102.03 28.8314C102.486 28.7162 103.043 28.5688 103.046 28.1373C103.046 27.9095 102.883 27.679 102.719 27.4673C102.545 27.2797 102.419 27.0519 102.352 26.8054C102.322 26.6151 102.451 26.4355 102.641 26.406C102.687 26.398 102.735 26.398 102.781 26.406L102.513 25.9236C102.258 25.4627 102.907 25.7226 103.137 25.6396C103.059 25.3635 102.925 25.1062 102.74 24.8865L113.34 30.485C113.174 30.5681 113.037 30.694 112.941 30.8522C112.847 31.0344 113.053 31.297 113.058 31.4739C113.061 31.4954 113.061 31.5195 113.058 31.5409L112.997 31.766C112.911 31.9 112.79 32.0072 112.651 32.0796C112.439 32.168 112.241 32.2913 112.07 32.4468C111.906 32.6585 111.823 32.9238 111.834 33.1918C111.82 33.5992 111.906 34.036 112.201 34.3174C112.209 34.3281 112.22 34.3362 112.23 34.3415L112.013 35.0598L101.162 29.338L101.157 29.3326Z" fill="white"/>
<path d="M119.164 41.9929H95.5742V42.6174H119.164V41.9929Z" fill="url(#paint1_linear_1226_1726)"/>
<path d="M119.164 46.6749H95.5742V47.2993H119.164V46.6749Z" fill="url(#paint2_linear_1226_1726)"/>
<path d="M119.164 51.3568H95.5742V51.9813H119.164V51.3568Z" fill="url(#paint3_linear_1226_1726)"/>
<path d="M85.4598 42.3038H50.8396V72.8022H85.4598V42.3038Z" fill="#FFBF00"/>
<path d="M85.4598 42.3038H50.8396V72.8022H85.4598V42.3038Z" fill="url(#paint4_linear_1226_1726)"/>
<path opacity="0.34" d="M62.3824 44.7078C62.4869 44.6622 62.5887 44.6113 62.6906 44.555C62.4842 44.346 62.6906 44.0512 62.9076 43.8502C63.2534 43.5313 63.6714 43.1373 63.4678 42.7514C63.3606 42.5531 63.1006 42.4271 62.8621 42.3172C62.6182 42.2368 62.3984 42.0975 62.2216 41.9099C62.1036 41.7571 62.1331 41.5373 62.2859 41.4194C62.3207 41.3926 62.3609 41.3712 62.4038 41.3605C62.2484 41.264 62.0956 41.1648 61.9402 41.0657C61.4953 40.7816 62.1921 40.6985 62.3502 40.5163C62.1519 40.3099 61.9107 40.1464 61.6427 40.0419L73.6357 39.9052C73.5285 40.0553 73.4642 40.2322 73.4534 40.4144C73.4534 40.6127 73.7616 40.7521 73.8528 40.9049C73.8635 40.9263 73.8742 40.9451 73.8822 40.9665L73.9305 41.1997C73.9224 41.3578 73.8688 41.5105 73.7777 41.6392C73.6357 41.8214 73.5204 42.0224 73.44 42.2395C73.3972 42.5048 73.4508 42.7755 73.5874 43.006C73.7697 43.3731 74.0511 43.7108 74.4424 43.8207H74.4799L74.6326 44.5523L62.377 44.7051L62.3824 44.7078Z" fill="#FFBF00"/>
<path opacity="0.34" d="M62.3824 44.7078C62.4869 44.6622 62.5887 44.6113 62.6906 44.555C62.4842 44.346 62.6906 44.0512 62.9076 43.8502C63.2534 43.5313 63.6714 43.1373 63.4678 42.7514C63.3606 42.5531 63.1006 42.4271 62.8621 42.3172C62.6182 42.2368 62.3984 42.0975 62.2216 41.9099C62.1036 41.7571 62.1331 41.5373 62.2859 41.4194C62.3207 41.3926 62.3609 41.3712 62.4038 41.3605C62.2484 41.264 62.0956 41.1648 61.9402 41.0657C61.4953 40.7816 62.1921 40.6985 62.3502 40.5163C62.1519 40.3099 61.9107 40.1464 61.6427 40.0419L73.6357 39.9052C73.5285 40.0553 73.4642 40.2322 73.4534 40.4144C73.4534 40.6127 73.7616 40.7521 73.8528 40.9049C73.8635 40.9263 73.8742 40.9451 73.8822 40.9665L73.9305 41.1997C73.9224 41.3578 73.8688 41.5105 73.7777 41.6392C73.6357 41.8214 73.5204 42.0224 73.44 42.2395C73.3972 42.5048 73.4508 42.7755 73.5874 43.006C73.7697 43.3731 74.0511 43.7108 74.4424 43.8207H74.4799L74.6326 44.5523L62.377 44.7051L62.3824 44.7078Z" fill="white"/>
<path d="M76.5354 50.2018H59.2119V50.8262H76.5354V50.2018Z" fill="url(#paint5_linear_1226_1726)"/>
<path d="M76.5354 54.8837H59.2119V55.5082H76.5354V54.8837Z" fill="url(#paint6_linear_1226_1726)"/>
<path d="M76.5354 59.5657H59.2119V60.1901H76.5354V59.5657Z" fill="url(#paint7_linear_1226_1726)"/>
<path d="M5.025 34.9499L5.7754 34.6176H40.1652V59.1477C40.1652 59.1477 40.1652 63.0712 37.319 64.6604C36.1559 65.3143 5.025 34.9473 5.025 34.9473V34.9499Z" fill="#FFBF00"/>
<path d="M39.6479 34.9499V60.4286C39.6479 63.2024 37.3994 65.4483 34.6256 65.4483H5.025V34.9499H39.6479Z" fill="#FFBF00"/>
<path d="M39.6479 34.9499V60.4286C39.6479 63.2024 37.3994 65.4483 34.6256 65.4483H5.025V34.9499H39.6479Z" fill="url(#paint8_linear_1226_1726)"/>
<path opacity="0.34" d="M27.0626 30.4341L22.1582 41.6794C22.1582 41.5642 22.1582 41.4489 22.1475 41.3364C21.8742 41.4382 21.6866 41.13 21.5981 40.8486C21.448 40.401 21.2604 39.857 20.829 39.8892C20.6038 39.9052 20.3868 40.0875 20.1858 40.2563C20.0116 40.4466 19.7945 40.5913 19.5506 40.6744C19.3603 40.7173 19.1727 40.5994 19.1298 40.4091C19.1218 40.3635 19.1218 40.318 19.1298 40.2724L18.6716 40.5752C18.232 40.862 18.4411 40.1974 18.3392 39.9749C18.0686 40.0741 17.8247 40.2268 17.6183 40.4278L22.7854 28.5608L27.06 30.4341H27.0626Z" fill="#FFBF00"/>
<path opacity="0.34" d="M27.0626 30.4341L22.1582 41.6794C22.1582 41.5642 22.1582 41.4489 22.1475 41.3364C21.8742 41.4382 21.6866 41.13 21.5981 40.8486C21.448 40.401 21.2604 39.857 20.829 39.8892C20.6038 39.9052 20.3868 40.0875 20.1858 40.2563C20.0116 40.4466 19.7945 40.5913 19.5506 40.6744C19.3603 40.7173 19.1727 40.5994 19.1298 40.4091C19.1218 40.3635 19.1218 40.318 19.1298 40.2724L18.6716 40.5752C18.232 40.862 18.4411 40.1974 18.3392 39.9749C18.0686 40.0741 17.8247 40.2268 17.6183 40.4278L22.7854 28.5608L27.06 30.4341H27.0626Z" fill="white"/>
<path d="M30.9996 45.2063H13.676V45.8307H30.9996V45.2063Z" fill="url(#paint9_linear_1226_1726)"/>
<path d="M30.9996 49.8882H13.676V50.5127H30.9996V49.8882Z" fill="url(#paint10_linear_1226_1726)"/>
<path d="M30.9996 54.5729H13.676V55.1973H30.9996V54.5729Z" fill="url(#paint11_linear_1226_1726)"/>
<path d="M39.6479 60.4313C39.6479 63.2051 37.3994 65.451 34.6256 65.451H33.8323C35.5877 64.8855 35.3599 61.774 35.3599 61.774C38.6429 62.3395 39.6452 60.4313 39.6452 60.4313H39.6479Z" fill="#FFBF00"/>
<path d="M39.6479 67.8898C39.6479 67.8898 45.8789 57.0331 48.0631 53.5973L49.4648 51.9009L50.8396 54.2378L50.8718 56.1192L45.1232 66.9491C45.1232 66.9491 41.0147 70.7064 39.6506 67.8924L39.6479 67.8898Z" fill="#FFBF00"/>
<path d="M50.9307 52.1876L44.0806 66.1075L48.9824 59.8792L50.8744 56.1245L50.9307 52.1876Z" fill="url(#paint12_linear_1226_1726)"/>
<path d="M58.9761 51.3569C59.2387 51.716 59.362 52.1555 59.3298 52.5977C60.1633 51.9143 60.1767 50.4751 61.1254 49.9606C61.1254 50.5127 61.029 51.0594 60.8387 51.5766C61.1415 50.9549 61.5114 50.2688 62.176 50.0705C62.0876 50.778 61.8276 51.456 61.4202 52.0402L62.2859 51.1666C62.3636 51.0889 62.4681 51.0031 62.5726 51.054C62.6772 51.1049 62.6504 51.2872 62.5941 51.4078L61.64 53.4499C61.9428 53.2061 62.2698 52.997 62.6182 52.8282L61.5703 54.5541C61.4524 54.7739 61.305 54.9775 61.1362 55.1598C60.7476 55.5511 60.1258 55.7789 59.9918 56.3149C60.0213 56.1996 58.4856 55.7092 58.3758 55.543C58.1935 55.2563 58.5285 54.6533 58.5687 54.3075C58.6786 53.3427 58.416 52.2252 58.9788 51.3515L58.9761 51.3569Z" fill="#FFB4A3"/>
<path d="M49.8185 86.43L51.9304 101.808C52.0188 102.456 51.9491 103.113 51.732 103.729L49.3897 114.554L45.7556 114.171L47.4172 103.11C47.4548 102.883 47.4387 102.649 47.3744 102.427L44.5094 92.5485L43.96 103.737L39.2647 113.249L35.971 111.933L40.1518 103.378L39.4818 92.8138C38.8868 89.1368 39.9749 86.422 39.9749 86.422L49.8158 86.43H49.8185Z" fill="#231F20"/>
<path d="M49.8185 84.7925H39.9695V86.43H49.8185V84.7925Z" fill="#FFBF00"/>
<path d="M49.8185 84.7925H39.9695V86.43H49.8185V84.7925Z" fill="url(#paint13_linear_1226_1726)"/>
<path d="M60.635 56.6579L51.3702 71.9607L50.8878 83.4472C50.8878 84.546 50.845 85.4599 50.0276 85.7091C49.8694 85.7547 49.7033 85.7761 49.5398 85.7734H41.3417C40.0499 85.7734 39.002 84.7282 38.9967 83.4365V72.8773C38.9967 72.8773 38.3937 66.8928 41.2318 66.8928H46.9161C48.2909 66.8928 49.5907 66.2657 50.4403 65.1857L58.0247 55.192L60.635 56.6526V56.6579Z" fill="#FFBF00"/>
<path d="M46.4632 59.7265H43.6197V66.9545H46.4632V59.7265Z" fill="#FFB4A3"/>
<path d="M43.6224 58.9359V66.9545H45.1232V66.4667C45.1232 65.8691 45.6082 65.384 46.2059 65.384H46.2916C47.779 65.384 48.985 64.178 48.985 62.6906V58.9359H43.6224Z" fill="#FFB4A3"/>
<path d="M50.0946 51.9223C50.1508 51.8044 50.1937 51.6784 50.2554 51.5552C50.384 51.3381 50.5448 51.1398 50.7297 50.9682L51.322 50.3652C51.3622 50.3143 51.4185 50.2768 51.4828 50.2634C51.6061 50.25 51.6918 50.4001 51.665 50.5207C51.6302 50.6359 51.5659 50.7405 51.4828 50.8289C51.18 51.2229 50.9897 51.6919 50.9334 52.185C50.8798 52.6754 50.8584 53.1685 50.8664 53.6616C50.8771 53.8224 50.845 53.9859 50.7726 54.1306C50.5877 53.7233 50.3813 53.324 50.1535 52.9354C50.0758 52.8041 49.8346 52.5468 49.8292 52.3967C49.8239 52.2466 50.0436 52.0537 50.0946 51.925V51.9223Z" fill="#FFB4A3"/>
<path d="M49.2423 57.6736C49.1405 57.1108 48.8028 56.6177 48.315 56.3202V56.7329C47.2511 56.2184 45.9808 56.623 44.815 56.4301C44.949 56.5694 45.0588 56.7329 45.1366 56.9125C44.3754 56.9125 43.6224 57.0894 42.9416 57.4297L43.1239 57.6977C43.1453 57.7245 43.1614 57.7567 43.1668 57.7915C43.1668 57.8639 43.0998 57.9094 43.0435 57.955C42.7138 58.2069 42.6763 58.6866 42.6951 59.0994C42.7567 60.3509 43.0783 61.5703 43.3999 62.7817C43.5232 63.24 43.6438 63.6956 43.7671 64.1592L44.0244 63.8054L44.2682 63.9743C44.6006 63.4597 46.0531 63.3498 46.1844 62.7495C45.8173 62.6664 45.3804 62.1706 45.4206 61.7954C45.4608 61.4202 45.5814 61.3372 45.9379 61.4578C46.1871 61.5408 45.7798 61.0316 45.7342 60.8253C45.6886 60.6189 45.5975 60.4072 45.6994 60.2303C45.8414 59.9838 46.2086 60.0481 46.4712 60.1499C46.707 59.4772 47.3583 59.0404 48.0712 59.0779C48.4383 59.1047 48.7894 59.3272 49.0306 58.9788C49.2718 58.6304 49.312 58.0729 49.2396 57.6709L49.2423 57.6736Z" fill="#231F20"/>
<path d="M60.635 56.6579L51.3702 71.9607L50.8878 83.4472C50.8878 84.546 50.9093 85.61 49.7569 85.7734H48.2159C48.2159 85.7734 49.5184 72.6388 49.2798 71.3658C49.0413 70.0928 59.9998 56.3149 59.9998 56.3149L60.6377 56.6579H60.635Z" fill="url(#paint14_linear_1226_1726)"/>
<path d="M46.3667 114.23L45.7315 116.974H53.9645C53.9645 116.974 54.0502 115.618 52.3538 115.143C51.33 114.865 50.2527 114.835 49.2155 115.058L48.9984 114.508L46.3694 114.23H46.3667Z" fill="#231F20"/>
<path d="M36.649 112.198L35.1991 114.393L36.8956 115.382L37.4316 115.101L38.6483 116.344L42.9202 116.486C42.9202 116.486 42.6388 114.35 40.6583 114.345C38.6778 114.34 38.852 113.083 38.852 113.083L36.649 112.198Z" fill="#231F20"/>
<defs>
<linearGradient id="paint0_linear_1226_1726" x1="104.078" y1="36.8741" x2="133.212" y2="110.746" gradientUnits="userSpaceOnUse">
<stop stop-color="#231F20" stop-opacity="0"/>
<stop offset="1" stop-color="#231F20"/>
</linearGradient>
<linearGradient id="paint1_linear_1226_1726" x1="106.447" y1="27.0224" x2="111.199" y2="105.766" gradientUnits="userSpaceOnUse">
<stop stop-color="#231F20" stop-opacity="0"/>
<stop offset="1" stop-color="#231F20"/>
</linearGradient>
<linearGradient id="paint2_linear_1226_1726" x1="106.166" y1="27.0385" x2="110.917" y2="105.782" gradientUnits="userSpaceOnUse">
<stop stop-color="#231F20" stop-opacity="0"/>
<stop offset="1" stop-color="#231F20"/>
</linearGradient>
<linearGradient id="paint3_linear_1226_1726" x1="105.884" y1="27.0572" x2="110.636" y2="105.801" gradientUnits="userSpaceOnUse">
<stop stop-color="#231F20" stop-opacity="0"/>
<stop offset="1" stop-color="#231F20"/>
</linearGradient>
<linearGradient id="paint4_linear_1226_1726" x1="68.9028" y1="55.3528" x2="48.9073" y2="113.787" gradientUnits="userSpaceOnUse">
<stop stop-color="#231F20" stop-opacity="0"/>
<stop offset="1" stop-color="#231F20"/>
</linearGradient>
<linearGradient id="paint5_linear_1226_1726" x1="66.6007" y1="29.4239" x2="71.3496" y2="108.17" gradientUnits="userSpaceOnUse">
<stop stop-color="#231F20" stop-opacity="0"/>
<stop offset="1" stop-color="#231F20"/>
</linearGradient>
<linearGradient id="paint6_linear_1226_1726" x1="66.3193" y1="29.4425" x2="71.0682" y2="108.189" gradientUnits="userSpaceOnUse">
<stop stop-color="#231F20" stop-opacity="0"/>
<stop offset="1" stop-color="#231F20"/>
</linearGradient>
<linearGradient id="paint7_linear_1226_1726" x1="66.0379" y1="29.4585" x2="70.7868" y2="108.205" gradientUnits="userSpaceOnUse">
<stop stop-color="#231F20" stop-opacity="0"/>
<stop offset="1" stop-color="#231F20"/>
</linearGradient>
<linearGradient id="paint8_linear_1226_1726" x1="21.9519" y1="45.3054" x2="28.2579" y2="125.362" gradientUnits="userSpaceOnUse">
<stop stop-color="#231F20" stop-opacity="0"/>
<stop offset="1" stop-color="#231F20"/>
</linearGradient>
<linearGradient id="paint9_linear_1226_1726" x1="21.5284" y1="32.144" x2="26.2828" y2="110.89" gradientUnits="userSpaceOnUse">
<stop stop-color="#231F20" stop-opacity="0"/>
<stop offset="1" stop-color="#231F20"/>
</linearGradient>
<linearGradient id="paint10_linear_1226_1726" x1="21.247" y1="32.1627" x2="26.0014" y2="110.909" gradientUnits="userSpaceOnUse">
<stop stop-color="#231F20" stop-opacity="0"/>
<stop offset="1" stop-color="#231F20"/>
</linearGradient>
<linearGradient id="paint11_linear_1226_1726" x1="20.9656" y1="32.1788" x2="25.72" y2="110.925" gradientUnits="userSpaceOnUse">
<stop stop-color="#231F20" stop-opacity="0"/>
<stop offset="1" stop-color="#231F20"/>
</linearGradient>
<linearGradient id="paint12_linear_1226_1726" x1="45.7315" y1="56.8267" x2="52.5843" y2="65.7886" gradientUnits="userSpaceOnUse">
<stop stop-color="#231F20" stop-opacity="0"/>
<stop offset="1" stop-color="#231F20"/>
</linearGradient>
<linearGradient id="paint13_linear_1226_1726" x1="44.9141" y1="80.9012" x2="44.8552" y2="95.7108" gradientUnits="userSpaceOnUse">
<stop stop-color="#231F20" stop-opacity="0"/>
<stop offset="1" stop-color="#231F20"/>
</linearGradient>
<linearGradient id="paint14_linear_1226_1726" x1="47.0394" y1="64.2396" x2="68.7715" y2="84.7658" gradientUnits="userSpaceOnUse">
<stop stop-color="#231F20" stop-opacity="0"/>
<stop offset="1" stop-color="#231F20"/>
</linearGradient>
</defs>
</svg>
