<svg id="_0320_super_dad" xmlns="http://www.w3.org/2000/svg" xmlns:xlink="http://www.w3.org/1999/xlink" viewBox="0 0 500 500" data-imageid="super-dad-71" imageName="Super Dad" class="illustrations_image" style="width: 167px;"><defs><style>.cls-1_super-dad-71{fill:url(#linear-gradient);}.cls-1_super-dad-71,.cls-2_super-dad-71,.cls-3_super-dad-71,.cls-4_super-dad-71,.cls-5_super-dad-71,.cls-6_super-dad-71,.cls-7_super-dad-71,.cls-8_super-dad-71,.cls-9_super-dad-71,.cls-10_super-dad-71,.cls-11_super-dad-71,.cls-12_super-dad-71,.cls-13_super-dad-71,.cls-14_super-dad-71{stroke-width:0px;}.cls-2_super-dad-71{isolation:isolate;opacity:.41;}.cls-2_super-dad-71,.cls-14_super-dad-71{fill:#68e1fd;}.cls-3_super-dad-71{fill:url(#linear-gradient-4-super-dad-71);}.cls-4_super-dad-71{fill:url(#linear-gradient-2-super-dad-71);}.cls-5_super-dad-71{fill:url(#linear-gradient-3-super-dad-71);}.cls-6_super-dad-71{fill:url(#linear-gradient-8-super-dad-71);}.cls-7_super-dad-71{fill:url(#linear-gradient-9-super-dad-71);}.cls-8_super-dad-71{fill:url(#linear-gradient-7-super-dad-71);}.cls-9_super-dad-71{fill:url(#linear-gradient-5-super-dad-71);}.cls-10_super-dad-71{fill:url(#linear-gradient-6-super-dad-71);}.cls-11_super-dad-71{fill:#3e3e54;}.cls-12_super-dad-71{fill:#fff;}.cls-13_super-dad-71{fill:#ffb4a3;}</style><linearGradient id="linear-gradient-super-dad-71" x1="705.05" y1="2791.12" x2="690.14" y2="2515.69" gradientTransform="translate(-471 3093.94) scale(1 -1)" gradientUnits="userSpaceOnUse"><stop offset="0" stop-color="#231f20" stop-opacity="0"/><stop offset="1" stop-color="#231f20"/></linearGradient><linearGradient id="linear-gradient-2-super-dad-71" x1="732.2" y1="2974.25" x2="791.86" y2="2901.34" gradientTransform="translate(-476.49 3090.09) scale(1 -1)" xlink:href="#linear-gradient-super-dad-71"/><linearGradient id="linear-gradient-3-super-dad-71" x1="298.81" y1="270.5" x2="196.19" y2="36.9" gradientTransform="matrix(1,0,0,1,0,0)" xlink:href="#linear-gradient-super-dad-71"/><linearGradient id="linear-gradient-4-super-dad-71" x1="297.17" y1="266.06" x2="219.96" y2="137.05" gradientTransform="matrix(1,0,0,1,0,0)" xlink:href="#linear-gradient-super-dad-71"/><linearGradient id="linear-gradient-5-super-dad-71" x1="803.62" y1="2871.05" x2="682.81" y2="2886.46" gradientTransform="translate(-476.49 3090.09) scale(1 -1)" xlink:href="#linear-gradient-super-dad-71"/><linearGradient id="linear-gradient-6-super-dad-71" x1="653.26" y1="2830.44" x2="738.1" y2="2922.25" gradientTransform="translate(-476.49 3090.09) scale(1 -1)" xlink:href="#linear-gradient-super-dad-71"/><linearGradient id="linear-gradient-7-super-dad-71" x1="235.27" y1="68.57" x2="240.48" y2="239.28" gradientTransform="matrix(1,0,0,1,0,0)" xlink:href="#linear-gradient-super-dad-71"/><linearGradient id="linear-gradient-8-super-dad-71" x1="710.72" y1="2997.26" x2="706.91" y2="2963.45" gradientTransform="translate(-476.49 3090.09) scale(1 -1)" xlink:href="#linear-gradient-super-dad-71"/><linearGradient id="linear-gradient-9-super-dad-71" x1="710.81" y1="2977.65" x2="713.84" y2="2869.85" gradientTransform="translate(-476.49 3090.09) scale(1 -1)" xlink:href="#linear-gradient-super-dad-71"/></defs><g id="background_super-dad-71"><path class="cls-2_super-dad-71 targetColor" d="M80.39,425.24s56.67,48.69,179.95,26.84c123.28-21.85,165.07-55.68,174.07-128.26,9.01-72.58,6.95-119.32,23.86-152.13,16.9-32.81-35.79-115.38-116.33-113.35-80.54,2.03-52.69,20.87-108.38-9.95-55.69-30.82-145.22-17.89-148.2,40.77-2.99,58.66-8.94,222.72-36.78,263.49-27.84,40.76,31.82,72.58,31.82,72.58Z" style="fill: rgb(250, 138, 0);"/><ellipse class="cls-1_super-dad-71" cx="227.53" cy="423.25" rx="116.33" ry="15.91"/></g><g id="character_super-dad-71"><path class="cls-14_super-dad-71 targetColor" d="M210.83,150.45c-11.77-8.61-14.33-25.14-5.72-36.91,3.32-4.54,8-7.9,13.37-9.59,4.21-1.19,8.59-1.68,12.97-1.46,28.75.66,56.59,16.17,84.99,11.64,2.47-.53,4.99-.8,7.52-.79,2.57.02,5,1.19,6.63,3.18,1.38,2.14,1.66,4.82.75,7.2-.93,2.34-2.38,4.45-4.23,6.16-3.32,3.36-7.22,6.1-11.52,8.08-2.79,1.28-5.77,2.24-8.34,3.96-3.43,2.28-5.9,5.72-8.94,8.47-7.82,7.05-19.05,9.19-29.55,8.33-10.5-.86-20.56-4.37-30.7-7.41-10.14-3.04-20.61-5.49-31.07-4.23" style="fill: rgb(250, 138, 0);"/><path class="cls-4_super-dad-71" d="M210.83,150.45c-11.77-8.61-14.33-25.14-5.72-36.91,3.32-4.54,8-7.9,13.37-9.59,4.21-1.19,8.59-1.68,12.97-1.46,28.75.66,56.59,16.17,84.99,11.64,2.47-.53,4.99-.8,7.52-.79,2.57.02,5,1.19,6.63,3.18,1.38,2.14,1.66,4.82.75,7.2-.93,2.34-2.38,4.45-4.23,6.16-3.32,3.36-7.22,6.1-11.52,8.08-2.79,1.28-5.77,2.24-8.34,3.96-3.43,2.28-5.9,5.72-8.94,8.47-7.82,7.05-19.05,9.19-29.55,8.33-10.5-.86-20.56-4.37-30.7-7.41-10.14-3.04-20.61-5.49-31.07-4.23"/><path class="cls-14_super-dad-71 targetColor" d="M229.45,168.17c-11.32-1.58-22.32,5.56-29.08,14.77-6.75,9.21-10.24,20.32-14.49,30.92-4.77,11.89-10.6,23.32-17.43,34.16-4.38,6.95-9.26,13.85-11.16,21.84-1.8,7.58-.76,15.55.97,23.14,2.32,10.09,5.94,20.05,12.2,28.28,6.27,8.24,15.43,14.61,25.7,15.88,11.32,1.45,22.41-3.18,33.61-5.42,23.2-4.57,46.99,1.42,70.48,4.17,11.76,1.38,23.87,1.92,35.29-1.25,11.42-3.16,22.15-10.52,26.96-21.35,4.71-10.59,3.18-22.8,4.23-34.36,1.24-13.92,6.48-27.67,15.88-38,7.41-8.12,17.06-13.9,24.53-21.95,7.46-8.06,12.61-19.91,8.21-29.98-18.94,2.54-38.39,5.06-56.95.56-10.9-2.65-21.06-7.63-31.59-11.51-11.13-4.11-22.68-6.99-34.43-8.61-10.67-1.46-21.86-1.81-31.89,2.12-5.39,2.12-11.46.69-17.18-.19-4.52-.66-9.39-2.58-13.87-3.22Z" style="fill: rgb(250, 138, 0);"/><path class="cls-5_super-dad-71" d="M229.45,168.17c-11.32-1.58-22.32,5.56-29.08,14.77-6.75,9.21-10.24,20.32-14.49,30.92-4.77,11.89-10.6,23.32-17.43,34.16-4.38,6.95-9.26,13.85-11.16,21.84-1.8,7.58-.76,15.55.97,23.14,2.32,10.09,5.94,20.05,12.2,28.28,6.27,8.24,15.43,14.61,25.7,15.88,11.32,1.45,22.41-3.18,33.61-5.42,23.2-4.57,46.99,1.42,70.48,4.17,11.76,1.38,23.87,1.92,35.29-1.25,11.42-3.16,22.15-10.52,26.96-21.35,4.71-10.59,3.18-22.8,4.23-34.36,1.24-13.92,6.48-27.67,15.88-38,7.41-8.12,17.06-13.9,24.53-21.95,7.46-8.06,12.61-19.91,8.21-29.98-18.94,2.54-38.39,5.06-56.95.56-10.9-2.65-21.06-7.63-31.59-11.51-11.13-4.11-22.68-6.99-34.43-8.61-10.67-1.46-21.86-1.81-31.89,2.12-5.39,2.12-11.46.69-17.18-.19-4.52-.66-9.39-2.58-13.87-3.22Z"/><path class="cls-3_super-dad-71" d="M234.46,178.43c-10.37-1.45-20.48,5.1-26.67,13.55-6.19,8.45-9.4,18.65-13.3,28.37-4.38,10.91-9.73,21.41-16,31.35-4.02,6.35-8.47,12.7-10.24,20.03-1.65,6.95-.7,14.27.9,21.23,2.12,9.25,5.45,18.4,11.2,25.96,5.75,7.56,14.16,13.41,23.57,14.61,10.39,1.33,20.57-2.94,30.85-4.98,21.29-4.23,43.11,1.3,64.67,3.83,10.8,1.26,21.91,1.76,32.39-1.14,10.48-2.9,20.32-9.66,24.74-19.6,4.32-9.74,2.94-20.92,3.88-31.52,1.13-12.78,5.94-25.4,14.58-34.87,6.79-7.41,15.65-12.76,22.5-20.11,6.86-7.36,11.56-18.31,7.48-27.52-17.37,2.34-35.22,4.66-52.25.52-10-2.42-19.33-7-28.98-10.59-10.22-3.76-20.81-6.41-31.6-7.89-9.79-1.34-20.06-1.66-29.26,1.96-4.94,1.94-10.52.64-15.77-.18-4.11-.66-8.56-2.42-12.69-3.01Z"/><path class="cls-14_super-dad-71 targetColor" d="M206.93,172.79c-5.37,1.14-9.6,5.14-13.53,8.97l-18.89,18.4c-2.02,1.97-4.11,4.03-5.01,6.7-1.16,3.46-.11,7.27,1.41,10.59,1.6,3.48,3.96,6.92,7.56,8.22,2.4.87,5.05.66,7.59.44l24.63-2.12,1.98,38.86c-.07,1.22.31,2.43,1.06,3.4.67.55,1.47.92,2.33,1.06,12.01,3.18,24.55,3.84,36.84,1.96,1.46-.11,2.86-.6,4.06-1.43,1.42-1.17,1.92-3.1,2.3-4.9,2.46-11.64,3.28-23.57,2.43-35.44,5.22,6.59,8.72-7.7,16.6-4.81,3.78,1.39,7.71,2.72,11.72,2.45,4.01-.28,8.15-2.57,9.38-6.35,1.23-3.78-.62-7.81-2.61-11.24-7.38-12.65-19.49-22.76-31.45-31.23-1.12-3.51-4.36-.12-7.95-.98-1.21-.3-4.06,4.38-5.29,4.31-2.12-.15,2.12,4.12,0,3.97-12.94-8.88-29.8-14.07-45.15-10.82Z" style="fill: rgb(250, 138, 0);"/><path class="cls-9_super-dad-71" d="M247.67,199.53c.27,7.41.53,14.82.78,22.23-.05,3.12.4,6.22,1.34,9.2,1.06,2.91,3.38,5.56,6.35,6.27,1.52.43,3.16.1,4.39-.9,1.24-1.14,1.52-2.95,1.64-4.63.5-6.79-.53-13.67.65-20.36.37-2.12,1.06-4.41,2.92-5.58,2.3-1.47,5.29-.6,7.92.12,5.08,1.39,10.33,2.05,15.6,1.98-3-4.23-8.92-5.08-13.27-7.95-6.35-4.23-9.22-12.7-16.15-15.88-2.12-.86-4.34-1.43-6.61-1.69-3.01-.49-13.99-1.71-12.52,4.39.55,2.27,3.63,2.91,4.95,4.69,1.77,2.32,1.89,5.36,2,8.11Z"/><path class="cls-10_super-dad-71" d="M187.01,205.39c4.46-9.2,13.05-15.71,23.12-17.51,1.2-.32,2.48-.21,3.61.31,1.44.84,1.88,2.67,2.18,4.31,3.49,19.55,4.56,39.45,4.71,59.28.18,2.14-.14,4.28-.93,6.28-.94,1.92-3.1,3.42-5.17,2.88-1.82-.65-3.1-2.31-3.26-4.23-.15-1.87-.03-3.75.36-5.59,1.69-12.27-2.49-24.35-3.18-36.49-.2-3.54.15-8.33-4.13-9.42-1.35-.31-17.22-.02-17.32.19Z"/><path class="cls-13_super-dad-71" d="M287.53,61.43c.18-.3.28-.64.31-1-.05-.42-.2-.83-.42-1.2-1.06-2.12-.75-4.68-.23-7.01.1-.74.41-1.43.9-2,.52-.57,1.39-.64,1.99-.15-.26-1.3,1.13-2.45,2.46-2.46,1.32.14,2.58.65,3.61,1.49,1.67,1.06,3.51,2.5,3.63,4.5-.03,1.12-.34,2.22-.92,3.18-.76,1.79-1.78,3.45-3.03,4.94-.89.96-1.98,1.76-2.79,2.81-.79,1.13-1.41,2.36-1.83,3.67l-1.23,3.18c-.19.62-.51,1.2-.93,1.69-1.92,1.87-5.8-.37-6.08-2.73-.15-1.34,1.06-2.61,1.68-3.67,1.06-1.69,2.03-3.45,2.89-5.25Z"/><path class="cls-13_super-dad-71" d="M183.99,63.92c-.17-.3-.28-.64-.3-1,.05-.42.19-.83.41-1.2,1.06-2.12.76-4.68.23-7.01-.1-.74-.41-1.43-.89-2-.52-.57-1.39-.64-1.99-.16.25-1.29-1.14-2.43-2.47-2.45-1.32.13-2.58.65-3.61,1.49-1.66,1.06-3.5,2.5-3.62,4.49.02,1.12.34,2.21.91,3.18.76,1.78,1.78,3.45,3.03,4.93.9.97,1.99,1.77,2.79,2.82.81,1.11,1.44,2.34,1.87,3.64l1.23,3.18c.19.63.51,1.2.94,1.69,1.91,1.87,5.8-.37,6.07-2.73.16-1.35-1.06-2.61-1.68-3.67-1.07-1.68-2.05-3.42-2.93-5.21Z"/><path class="cls-14_super-dad-71 targetColor" d="M223.25,106.12c-12.7-5.29-20.86-17.47-28.24-29.05-1.03-1.84-2.36-3.5-3.94-4.91-1.61-1.42-3.81-1.96-5.9-1.44-2.54.83-3.97,3.66-4,6.35-.03,2.69,1.06,5.21,2.12,7.65,4.23,9.97,8.57,20,14.46,29.11,1.72,2.46,3.29,5.02,4.68,7.68,1.92,4.04,2.72,8.47,3.49,12.95.92,5.23,1.82,10.46,2.72,15.7,1.06,6.07,2.28,12.58,6.71,16.84,5.23,5.03,13.25,5.4,20.51,5.29,2.84.14,5.68-.28,8.36-1.24,4.08-1.77,6.7-5.78,8.47-9.82,6.35-14,5.76-30.08,9.64-44.95,3.88-14.86,20.19-23.85,26.54-37.85.57-1.05.89-2.22.95-3.42-.05-3.42-4.3-5.47-7.6-4.64s-5.78,3.54-8.03,6.11l-17.85,20.33c-2.05,2.34-4.23,4.74-7.04,6-2.34.89-4.81,1.36-7.3,1.4-6.16.46-13.05,4.28-18.76,1.89Z" style="fill: rgb(250, 138, 0);"/><path class="cls-8_super-dad-71" d="M223.25,106.12c-12.7-5.29-20.86-17.47-28.24-29.05-1.03-1.84-2.36-3.5-3.94-4.91-1.61-1.42-3.81-1.96-5.9-1.44-2.54.83-3.97,3.66-4,6.35-.03,2.69,1.06,5.21,2.12,7.65,4.23,9.97,8.57,20,14.46,29.11,1.72,2.46,3.29,5.02,4.68,7.68,1.92,4.04,2.72,8.47,3.49,12.95.92,5.23,1.82,10.46,2.72,15.7,1.06,6.07,2.28,12.58,6.71,16.84,5.23,5.03,13.25,5.4,20.51,5.29,2.84.14,5.68-.28,8.36-1.24,4.08-1.77,6.7-5.78,8.47-9.82,6.35-14,5.76-30.08,9.64-44.95,3.88-14.86,20.19-23.85,26.54-37.85.57-1.05.89-2.22.95-3.42-.05-3.42-4.3-5.47-7.6-4.64s-5.78,3.54-8.03,6.11l-17.85,20.33c-2.05,2.34-4.23,4.74-7.04,6-2.34.89-4.81,1.36-7.3,1.4-6.16.46-13.05,4.28-18.76,1.89Z"/><path class="cls-13_super-dad-71" d="M225.28,106.2c.19.18.34.39.46.62,1.23,2.33.52,5.29,2.12,7.48.83,1.04,2.01,1.75,3.32,2,2.86.69,5.84-.52,7.41-3.02,1.4-2.5.77-5.58,2.36-8.02.8-1.24,1.85-2.29,2.75-3.45,4.41-5.72,4.4-14.08,3.74-20.93-.4-4.05-1.68-8.47-4.88-10.95-3.2-2.48-7.48-2.77-11.45-2.28-1.63.15-3.22.58-4.7,1.27-2.94,1.69-5.02,4.56-5.73,7.88-.67,3.29-.87,6.66-.59,10l.25,7.29c-.03,2.44.29,4.87.93,7.22.35,1.19.97,2.27,1.81,3.18.69.73,1.57,1.07,2.2,1.69Z"/><path class="cls-11_super-dad-71" d="M216.73,69.61c-.5,1.65-.76,3.37-.76,5.1-.16,1.92.03,3.85.55,5.71.36,1.06.92,2.12,1.29,3.18.87,2.53.89,5.67,3.05,7.25-.09-4.49.49-8.96,1.7-13.28,2.09,1.77,4.88,2.47,7.56,1.89,1.77-.38,3.37-1.3,5.08-1.85,1.69-.71,3.62-.58,5.21.35.84.6,1.5,1.6,2.53,1.67.5-.06,1.01-.06,1.51,0,.7.24.92,1.06,1.06,1.84l1.33,8.08c.38-.15.69-.44.87-.82,2.12-3.44,2.12-7.73,1.86-11.76-.05-2.5-.61-4.95-1.63-7.23-.73-1.3-1.6-2.52-2.59-3.64-1.6-1.93-3.29-3.93-5.62-4.85-1.76-.57-3.61-.8-5.45-.7-1.48-.08-2.97.07-4.4.43-2.86.9-4.8,3.37-7.82,3.81-2.87.44-4.39,2.05-5.32,4.82Z"/><path class="cls-6_super-dad-71" d="M225.28,106.2s8.56,3.51,15.02-1.12c0,0-1.41,9.77-6.35,10.11s-6.87-2.49-6.87-2.49c0,0,.4-4.85-1.8-6.5Z"/><path class="cls-11_super-dad-71" d="M207.02,172.9c-.9,4.48-1.22,9.06-.97,13.62-.28,1.29.54,2.55,1.82,2.83.1.02.2.04.3.05,3.36.87,6.8,1.4,10.27,1.58,1.03.11,2.07.02,3.07-.28,1.29-.58,2.39-1.52,3.18-2.7,1.8-2.34,3.27-4.91,4.37-7.64.52-1.28,1.06-2.74,2.38-3.18.57-.17,1.16-.22,1.75-.17,3.06.12,6.53.43,8.37,2.87.71,1.13,1.27,2.35,1.66,3.63,1.08,2.87,3.09,5.3,5.72,6.89,2.77,1.43,5.91,2,9.01,1.63,2.84-.23,5.61-.95,8.2-2.12,1.04-.2,1.72-1.2,1.53-2.24-.03-.15-.08-.3-.14-.44-1.98-8.03-4.62-15.87-7.91-23.46-.42-1.1-1-2.14-1.7-3.08-2.56-3.18-7.21-3.28-11.24-3.18-6.45.17-12.9.34-19.33,1.06-3.33.33-6.63.84-9.91,1.52-3.28.69-4.78,1.14-6.7,3.96-1.77,2.69-3.03,5.68-3.72,8.83Z"/><path class="cls-13_super-dad-71" d="M226.62,182.12c-.03.95.07,1.91.3,2.84.4,1.18,1.04,2.26,1.88,3.18.42.56.94,1.04,1.52,1.43.76.41,1.62.61,2.49.59,2.94-.07,5.75-1.24,7.89-3.26.97-.75,1.69-1.79,2.04-2.96.17-.99.1-2-.19-2.96-.41-1.74-1-3.42-1.58-5.1-.09-.33-.25-.64-.47-.91-.56-.48-1.3-.69-2.03-.59-2.71,0-5.42.13-8.12.38-1.03-.01-2.06.14-3.05.46-.88.43-.74,1.34-.73,2.2,0,1.6.02,3.14.04,4.72Z"/><path class="cls-7_super-dad-71" d="M239.05,184.53c1.19-.03,2.35-.31,3.42-.84,1.35-.85,2.3-2.22,2.63-3.78.32-1.55.43-3.13.33-4.71.04-.52-.07-1.03-.32-1.49-.33-.41-.78-.71-1.28-.87-4.52-1.82-14.55-3.54-16.64,2.77-2.36,7.18,6.85,9.34,11.87,8.91Z"/><path class="cls-11_super-dad-71" d="M232.9,110.21c-3.91.81-7.21,3.43-8.88,7.06l-3.02-2.66c-.13-.14-.3-.24-.49-.26-.21.02-.41.11-.55.26-3.19,2.78-5.02,6.81-5.02,11.04.04.34-.03.68-.19.98-.26.39-.8.46-1.27.57-1.87.5-2.99,2.52-3.18,4.46-.05,1.95.04,3.89.3,5.82.1,1.87-.14,3.75.05,5.61.52,4.39,3.31,8.19,7.36,9.98,3.6,1.55,7.71,1.28,11.57.65s7.72-1.63,11.64-1.44c1.7.25,3.43.22,5.11-.11.96-.32,1.85-.8,2.66-1.41,2.09-1.35,3.85-3.16,5.13-5.29,1.27-2.67,1.85-5.61,1.68-8.55.07-2.35-.26-4.7-1-6.94-.69-1.46-1.3-2.95-1.82-4.48-.24-1.06-.28-2.12-.55-3.18-.88-3.31-4.18-5.54-7.55-6.17-1.6-.28-3.23-.34-4.85-.19-1.34.11-3.45.93-4.75.66s-3.48-6.2-2.4-6.41Z"/><path class="cls-13_super-dad-71" d="M217.41,153.41l.19,3.99c.03,3.08.39,6.14,1.06,9.15.69,3.02,2.33,5.75,4.67,7.78,1.57,1.21,3.37,2.08,5.29,2.55,4.57,1.23,9.42.88,13.76-1,1.48-.6,2.82-1.49,3.94-2.63,2.25-2.45,2.77-6.02,2.65-9.34s-.83-6.63-.55-9.94c.1-.7.1-1.41,0-2.12-.09-.71-.56-1.32-1.22-1.6,1.38-3.76,2.16-7.72,2.3-11.73.1-2.12-.11-4.45-1.65-5.89-1.03-.83-2.28-1.35-3.59-1.5-8.28-1.52-16.79,1.34-24.17,5.41-1.47.64-2.67,1.76-3.42,3.18-.31.91-.43,1.88-.34,2.85.07,3.29.88,7.5,1.08,10.83Z"/><path class="cls-13_super-dad-71" d="M210.14,186.1l.76,16.72.6,13.32c0,.95.1,1.92.14,2.87s.39,1.93-.05,2.78c-1.17,2.22-4.17,3.41-6.35,4.32-2.22,1.03-4.54,1.82-6.92,2.35-.54.07-1.07.2-1.58.4-.53.2-.93.65-1.06,1.2-.04.63.22,1.23.71,1.63,1.36,1.13,3.13,1.64,4.88,1.41,1.73-.23,3.44-.56,5.13-.98,4.35-.8,8.99-.17,13.12-1.77.6-.17,1.12-.54,1.47-1.06.18-.4.28-.84.28-1.28.22-3.63.66-7.2.84-10.87l1.06-21.05.6-12.47s-8.24-5.72-13.62,2.49Z"/><path class="cls-13_super-dad-71" d="M262.66,183.93l1.68,16.62,1.3,12.89c.16,1.57-.1,4.18.48,5.6.84,2.04,4.23,2.79,6.23,3,2.44.15,4.89-.04,7.28-.57,1.21-.22,2.58-.42,3.54.34,1.02,1.07,1.07,2.73.12,3.85-.97,1.05-2.21,1.81-3.59,2.19-3.98,1.45-8.1,2.46-12.29,3.02-1.85.31-3.73.31-5.58,0-1.86-.33-3.51-1.41-4.55-2.99-1.27-2.12-.7-4.47-1.06-6.76-.18-1.22-.49-2.43-.72-3.64l-6.75-34.03s7.39-6.85,13.91.49Z"/><path class="cls-12_super-dad-71" d="M264.26,210.68c-.47-.19-.98-.26-1.48-.22h-5.68c-.65-.07-1.29.09-1.83.46-.52.65-.71,1.51-.5,2.32.31,2.66.92,5.27,1.8,7.79.06.24.2.46.39.62,1.17.76,4.58-.25,5.84-.62,1.18-.23,2.24-.86,3.02-1.78,1.25-1.83.5-7.57-1.56-8.56Z"/><path class="cls-12_super-dad-71" d="M213,214.07c.47-.19.98-.26,1.49-.22h5.75c.65-.07,1.31.09,1.85.46.53.66.72,1.53.51,2.35-.32,2.69-.93,5.33-1.82,7.89-.06.25-.2.47-.4.64-1.17.76-4.64-.26-5.91-.65-1.19-.23-2.27-.86-3.05-1.79-1.27-1.86-.51-7.65,1.58-8.67Z"/><path class="cls-13_super-dad-71" d="M218.79,200.25c.85-.17,1.72-.1,2.53.2.98.61,1.73,1.54,2.12,2.63.47.97.86,2.29,0,3,.22.85.82,1.57,1.06,2.41s-.19,2-1.06,2.03c.4.52.64,1.15.67,1.81.01.66-.42,1.25-1.06,1.43.1.46.07,1.06-.37,1.19-.13.03-.27.03-.4,0-1.55-.52-3.13-.96-4.72-1.31-1.64-.34-3.33.3-4.33,1.65-.55.94-.67,2.3-1.67,2.73-.71.21-1.47.12-2.12-.24-1.48-.15-2.6-1.41-2.57-2.9-.1-1.34-.1-2.68,0-4.01.19-2.5.96-5.47,3.18-6.99,2.6-1.87,5.59-3.11,8.75-3.62Z"/><path class="cls-13_super-dad-71" d="M256.03,199.43c-.86-.06-1.73.13-2.49.55-.9.74-1.51,1.76-1.76,2.89-.33,1.06-.54,2.39.37,2.99-.11.87-.59,1.66-.69,2.53s.46,1.95,1.33,1.86c-.33.57-.47,1.23-.41,1.88.08.67.62,1.2,1.29,1.27,0,.46.07,1.06.53,1.12.13,0,.27-.03.39-.08,1.46-.73,2.97-1.39,4.5-1.96,1.58-.56,3.35-.15,4.52,1.06.68.86.97,2.18,2.03,2.48.71.09,1.44-.1,2.01-.53.95-.38,1.71-1.12,2.12-2.06.08-.39.11-.78.06-1.17-.09-1.33-.27-2.66-.55-3.97-.53-2.45-1.7-5.29-4.05-6.48-2.84-1.5-6-2.31-9.21-2.37Z"/><path class="cls-11_super-dad-71" d="M210.7,263.6s-11,72.48-11,73.47-17.22,74.91-17.22,74.91l13.59.66,31.15-91.81,6.64-17.23,14.25,36.13,18.23,75.9h15.88s-11.64-80.54-13.25-82.57c-1.61-2.02-3.92-60.95-10.93-67.9s-48.34-4.96-48.34-4.96l1.02,3.41Z"/><path class="cls-11_super-dad-71" d="M166.6,420.4c-.75.42-1.34,1.07-1.69,1.85-.24,1.02.15,2.08.98,2.71.83.59,1.8.96,2.82,1.06,4.57.71,9.19-.65,13.76-1.52,3.54-.68,7.14-1.07,10.74-1.19,1.1.12,2.2-.22,3.03-.95.42-.65.63-1.42.58-2.2.1-2.02.12-4.05.08-6.08.25-1.14-.48-2.27-1.62-2.52-.37-.08-.76-.06-1.12.06-4.38,0-9.53-.78-13.81.57-1.98.64-13.75,6.37-13.75,8.2Z"/><path class="cls-11_super-dad-71" d="M296.22,422.22c.75.43,1.34,1.08,1.68,1.86.24,1.01-.14,2.07-.97,2.7-.83.59-1.8.96-2.82,1.06-4.58.71-9.19-.65-13.76-1.51-3.54-.69-7.13-1.08-10.73-1.19-1.1.13-2.2-.22-3.03-.96-.42-.65-.63-1.42-.58-2.2-.1-2.02-.13-4.05-.08-6.08-.06-.62.1-1.24.43-1.77.63-.56,1.47-.81,2.31-.69,4.38,0,9.53-.77,13.76.57,2.03.65,13.79,6.37,13.79,8.2Z"/><path class="cls-11_super-dad-71" d="M219.87,222.53c-3.84,1.57-8.26-.58-12.32.25-1.57.41-3.07,1.03-4.46,1.86l-6.53,3.54c-.87.35-1.6.95-2.12,1.73-.52,1.37,0,2.92,1.25,3.69,1.24.7,2.65,1.07,4.08,1.06,5.08.31,10.17.31,15.25,0,1.4.02,2.78-.2,4.11-.65,2-.83,3.43-2.62,3.79-4.75.32-2.15-.48-4.31-2.12-5.74l-.93-1Z"/><path class="cls-11_super-dad-71" d="M256.01,221.07c4.5.85,8.82-2.46,13.4-2.45,1.78.1,3.54.46,5.23,1.06l7.85,2.33c1,.19,1.92.68,2.63,1.41.85,1.36.62,3.13-.54,4.23-1.18,1.06-2.62,1.79-4.17,2.12-5.44,1.44-10.96,2.55-16.53,3.32-1.5.33-3.05.4-4.58.21-2.35-.46-4.3-2.08-5.17-4.31-.81-2.26-.41-4.78,1.06-6.68l.83-1.25Z"/></g></svg>