<svg width="183" height="183" viewBox="0 0 183 183" fill="none" xmlns="http://www.w3.org/2000/svg">
<path opacity="0.03" d="M94.5927 164.561C140.947 164.561 178.524 160.348 178.524 155.151C178.524 149.954 140.947 145.741 94.5927 145.741C48.2388 145.741 10.6616 149.954 10.6616 155.151C10.6616 160.348 48.2388 164.561 94.5927 164.561Z" fill="#000001"/>
<path d="M98.454 25.0161H14.5119V125.062H98.454V25.0161Z" fill="#E6E6E6"/>
<path d="M168.488 25.0161H84.546V125.062H168.488V25.0161Z" fill="#24285B"/>
<path d="M79.8649 113.632L74.0162 150.785H113.021L104.054 113.632H79.8649Z" fill="#A5A5A5"/>
<path d="M119.975 144.274H65.1151V156.212H119.975V144.274Z" fill="#E6E6E6"/>
<path d="M27.0327 37.6907C28.5205 37.6907 29.7265 36.4846 29.7265 34.9969C29.7265 33.5092 28.5205 32.3032 27.0327 32.3032C25.545 32.3032 24.339 33.5092 24.339 34.9969C24.339 36.4846 25.545 37.6907 27.0327 37.6907Z" fill="#24285B"/>
<path d="M35.0482 37.6907C36.5359 37.6907 37.7419 36.4846 37.7419 34.9969C37.7419 33.5092 36.5359 32.3032 35.0482 32.3032C33.5604 32.3032 32.3544 33.5092 32.3544 34.9969C32.3544 36.4846 33.5604 37.6907 35.0482 37.6907Z" fill="#FBB800"/>
<path d="M42.5987 37.6907C44.0865 37.6907 45.2925 36.4846 45.2925 34.9969C45.2925 33.5092 44.0865 32.3032 42.5987 32.3032C41.111 32.3032 39.905 33.5092 39.905 34.9969C39.905 36.4846 41.111 37.6907 42.5987 37.6907Z" fill="#FFD200"/>
<path d="M168.488 105.748H14.5119V125.059H168.488V105.748Z" fill="#E6E6E6"/>
<path opacity="0.55" d="M168.488 105.748H14.5119V125.059H168.488V105.748Z" fill="white"/>
<path d="M93.1653 120.663C96.07 120.663 98.4247 118.308 98.4247 115.403C98.4247 112.499 96.07 110.144 93.1653 110.144C90.2606 110.144 87.9059 112.499 87.9059 115.403C87.9059 118.308 90.2606 120.663 93.1653 120.663Z" fill="#A5A5A5"/>
<path d="M139.779 55.0537H114.796V56.8764H139.779V55.0537Z" fill="#FBB800"/>
<path d="M150.909 59.841H125.926V61.6637H150.909V59.841Z" fill="#FFD200"/>
<path d="M129.747 50.6471H108.783V52.4698H129.747V50.6471Z" fill="#FBB800"/>
<path d="M155.071 50.6471H134.106V52.4698H155.071V50.6471Z" fill="#FBB800"/>
<path d="M133.539 45.567H114.796V47.3897H133.539V45.567Z" fill="#FFD200"/>
<path d="M157.16 45.567H138.418V47.3897H157.16V45.567Z" fill="#FFD200"/>
<path d="M110.397 55.0537H101.001V56.8764H110.397V55.0537Z" fill="white"/>
<path d="M119.755 59.841H110.36V61.6637H119.755V59.841Z" fill="white"/>
<path d="M104.387 50.6471H94.9916V52.4698H104.387V50.6471Z" fill="white"/>
<path d="M104.387 36.7794H94.9916V38.602H104.387V36.7794Z" fill="white"/>
<path d="M110.397 41.3397H101.001V43.1624H110.397V41.3397Z" fill="white"/>
<path d="M133.539 41.3397H114.796V43.1624H133.539V41.3397Z" fill="#FFD200"/>
<path d="M157.16 41.3397H138.418V43.1624H157.16V41.3397Z" fill="#FFD200"/>
<path d="M110.397 45.567H101.001V47.3897H110.397V45.567Z" fill="white"/>
<path d="M127.496 36.7794H108.142V38.602H127.496V36.7794Z" fill="#FBB800"/>
<path d="M145.291 36.7794H131.548V38.602H145.291V36.7794Z" fill="#FBB800"/>
<path d="M139.779 83.3492H114.796V85.1719H139.779V83.3492Z" fill="#FBB800"/>
<path d="M150.909 88.1401H125.926V89.9628H150.909V88.1401Z" fill="#FFD200"/>
<path d="M129.747 78.9426H108.783V80.7652H129.747V78.9426Z" fill="#FBB800"/>
<path d="M155.071 78.9426H134.106V80.7652H155.071V78.9426Z" fill="#FBB800"/>
<path d="M133.539 73.8661H114.796V75.6888H133.539V73.8661Z" fill="#FFD200"/>
<path d="M157.16 73.8661H138.418V75.6888H157.16V73.8661Z" fill="#FFD200"/>
<path d="M110.397 83.3492H101.001V85.1719H110.397V83.3492Z" fill="white"/>
<path d="M119.755 88.1401H110.36V89.9628H119.755V88.1401Z" fill="white"/>
<path d="M104.387 78.9426H94.9916V80.7652H104.387V78.9426Z" fill="white"/>
<path d="M104.387 65.0748H94.9916V66.8975H104.387V65.0748Z" fill="white"/>
<path d="M110.397 69.6352H101.001V71.4579H110.397V69.6352Z" fill="white"/>
<path d="M133.539 69.6352H114.796V71.4579H133.539V69.6352Z" fill="#FFD200"/>
<path d="M157.16 69.6352H138.418V71.4579H157.16V69.6352Z" fill="#FFD200"/>
<path d="M110.397 73.8661H101.001V75.6888H110.397V73.8661Z" fill="white"/>
<path d="M127.496 65.0748H108.142V66.8975H127.496V65.0748Z" fill="#FBB800"/>
<path d="M145.291 65.0748H131.548V66.8975H145.291V65.0748Z" fill="#FBB800"/>
<path opacity="0.08" d="M125.926 105.232H118.595V125.059H125.926V105.232Z" fill="#000001"/>
<path d="M74.0162 47.3897H27.0328V76.9918H74.0162V47.3897Z" fill="#A5A5A5"/>
<path opacity="0.36" d="M41.164 89.5712H27.0328V100.793H41.164V89.5712Z" fill="#A5A5A5"/>
<path opacity="0.36" d="M57.5901 89.5712H43.4588V100.793H57.5901V89.5712Z" fill="#A5A5A5"/>
<path opacity="0.36" d="M74.0162 89.5712H59.8849V100.793H74.0162V89.5712Z" fill="#A5A5A5"/>
<path opacity="0.54" d="M27.0328 76.9918L42.5988 56.8764L50.5227 71.4578L60.7084 59.841L74.0162 76.9918H27.0328Z" fill="white"/>
<path d="M52.0635 60.2656C53.9353 60.2656 55.4527 58.7482 55.4527 56.8764C55.4527 55.0046 53.9353 53.4872 52.0635 53.4872C50.1917 53.4872 48.6743 55.0046 48.6743 56.8764C48.6743 58.7482 50.1917 60.2656 52.0635 60.2656Z" fill="white"/>
<path d="M74.0162 80.7653H27.0328V85.1719H74.0162V80.7653Z" fill="#A5A5A5"/>
<path d="M59.2334 151.601H42.1961C35.2568 151.601 29.613 145.957 29.613 139.018C29.613 132.078 35.2568 126.435 42.1961 126.435H59.2334V151.597V151.601ZM42.1961 130.56C37.5333 130.56 33.7379 134.355 33.7379 139.018C33.7379 143.681 37.5333 147.476 42.1961 147.476H55.1086V130.556H42.1961V130.56Z" fill="#FBB800"/>
<path opacity="0.46" d="M59.2334 151.601H42.1961C35.2568 151.601 29.613 145.957 29.613 139.018C29.613 132.078 35.2568 126.435 42.1961 126.435H59.2334V151.597V151.601ZM42.1961 130.56C37.5333 130.56 33.7379 134.355 33.7379 139.018C33.7379 143.681 37.5333 147.476 42.1961 147.476H55.1086V130.556H42.1961V130.56Z" fill="white"/>
<path d="M74.4737 119.964H44.4214V156.567H74.4737V119.964Z" fill="#FBB800"/>
<path opacity="0.08" d="M59.4494 148.109C64.2622 148.109 68.1638 143.703 68.1638 138.267C68.1638 132.832 64.2622 128.426 59.4494 128.426C54.6365 128.426 50.7349 132.832 50.7349 138.267C50.7349 143.703 54.6365 148.109 59.4494 148.109Z" fill="#000001"/>
<path opacity="0.15" d="M72.0251 119.964C72.0251 119.964 77.1711 113.229 72.0251 108.116C66.8792 103.003 56.353 105.928 56.353 95.1087C56.353 84.2898 56.1188 72.0873 43.2539 68.4822C30.389 64.8771 21.034 57.0887 10.2736 70.455C-0.486792 83.8213 7.93487 96.9644 20.3313 92.6163C32.7277 88.2682 37.6394 90.8888 32.7277 97.4658C27.816 104.046 38.3421 112.124 44.4214 109.266C48.9232 107.146 47.4629 119.967 47.4629 119.967H72.0251V119.964Z" fill="#A5A5A5"/>
<path d="M172.108 100.763H124.165V132.023H172.108V100.763Z" fill="#A5A5A5"/>
<path d="M129.352 106.865C130.253 106.865 130.984 106.134 130.984 105.232C130.984 104.331 130.253 103.6 129.352 103.6C128.45 103.6 127.719 104.331 127.719 105.232C127.719 106.134 128.45 106.865 129.352 106.865Z" fill="#24285B"/>
<path d="M134.212 106.865C135.114 106.865 135.845 106.134 135.845 105.232C135.845 104.331 135.114 103.6 134.212 103.6C133.311 103.6 132.58 104.331 132.58 105.232C132.58 106.134 133.311 106.865 134.212 106.865Z" fill="#FBB800"/>
<path d="M172.108 110.532H124.165V134.047H172.108V110.532Z" fill="#E6E6E6"/>
<path d="M138.795 106.865C139.696 106.865 140.427 106.134 140.427 105.232C140.427 104.331 139.696 103.6 138.795 103.6C137.893 103.6 137.162 104.331 137.162 105.232C137.162 106.134 137.893 106.865 138.795 106.865Z" fill="#FFD200"/>
<path d="M136.855 121.058L133.477 122.295L136.855 123.525V124.795L132.024 122.958V121.64L136.855 119.803V121.062V121.058Z" fill="#A5A5A5"/>
<path d="M137.872 122.295C137.872 120.154 139.516 118.621 141.73 118.621C142.96 118.621 143.984 119.067 144.654 119.88L143.6 120.853C143.124 120.304 142.524 120.022 141.814 120.022C140.485 120.022 139.541 120.956 139.541 122.295C139.541 123.635 140.485 124.568 141.814 124.568C142.524 124.568 143.124 124.283 143.6 123.726L144.654 124.7C143.984 125.523 142.96 125.97 141.723 125.97C139.519 125.97 137.876 124.436 137.876 122.295H137.872Z" fill="#A5A5A5"/>
<path d="M145.137 125.15L145.694 123.913C146.294 124.348 147.187 124.652 148.04 124.652C149.013 124.652 149.409 124.326 149.409 123.891C149.409 122.562 145.276 123.474 145.276 120.835C145.276 119.627 146.25 118.624 148.27 118.624C149.163 118.624 150.078 118.836 150.737 119.254L150.228 120.502C149.57 120.125 148.889 119.942 148.259 119.942C147.286 119.942 146.909 120.308 146.909 120.754C146.909 122.065 151.041 121.161 151.041 123.77C151.041 124.956 150.056 125.973 148.025 125.973C146.898 125.973 145.763 125.64 145.134 125.15H145.137Z" fill="#A5A5A5"/>
<path d="M151.612 125.15L152.168 123.913C152.768 124.348 153.661 124.652 154.514 124.652C155.488 124.652 155.883 124.326 155.883 123.891C155.883 122.562 151.751 123.474 151.751 120.835C151.751 119.627 152.724 118.624 154.745 118.624C155.638 118.624 156.553 118.836 157.212 119.254L156.703 120.502C156.044 120.125 155.363 119.942 154.734 119.942C153.76 119.942 153.383 120.308 153.383 120.754C153.383 122.065 157.515 121.161 157.515 123.77C157.515 124.956 156.531 125.973 154.5 125.973C153.372 125.973 152.238 125.64 151.608 125.15H151.612Z" fill="#A5A5A5"/>
<path d="M163.262 121.636V122.954L158.43 124.791V123.521L161.809 122.292L158.43 121.054V119.795L163.262 121.633V121.636Z" fill="#A5A5A5"/>
</svg>
