<svg version="1.1" id="Layer_1" xmlns="http://www.w3.org/2000/svg" xmlns:xlink="http://www.w3.org/1999/xlink" x="0px" y="0px" viewBox="0 0 500 500" style="width: 167px;" xml:space="preserve" data-imageid="user-interface-81" imageName="User Interface" class="illustrations_image">
<style type="text/css">
	.st0_user-interface-81{fill:#FFFFFF;}
	.st1_user-interface-81{fill:#231F20;}
	.st2_user-interface-81{fill:#D1D3D4;}
	.st3_user-interface-81{fill:#68E1FD;}
	.st4_user-interface-81{fill:none;}
</style>
<g id="UI_user-interface-81">
	<rect x="155.9" y="95.3" class="st0_user-interface-81" width="272.6" height="264.6"/>
	<path class="st1_user-interface-81" d="M428.5,95.3v264.6H155.9V95.3H428.5 M428.5,94H155.9c-0.7,0-1.3,0.6-1.3,1.3c0,0,0,0,0,0v264.6&#10;&#9;&#9;c0,0.7,0.6,1.3,1.3,1.3c0,0,0,0,0,0h272.6c0.7,0,1.3-0.6,1.3-1.3c0,0,0,0,0,0V95.3C429.9,94.6,429.3,94,428.5,94L428.5,94z"/>
	<path class="st2_user-interface-81" d="M235.1,128.2h62c0.9,0,1.6,0.7,1.6,1.6v1.6c0,0.9-0.7,1.6-1.6,1.6h-62c-0.9,0-1.6-0.7-1.6-1.6v-1.6&#10;&#9;&#9;C233.5,128.9,234.2,128.2,235.1,128.2z"/>
	<rect x="235.5" y="150.8" class="st2_user-interface-81" width="24.4" height="27.5"/>
	<path class="st2_user-interface-81" d="M275,152.8h116.7c2,0,3.6,1.6,3.6,3.6v0c0,2-1.6,3.6-3.6,3.6H275c-2,0-3.6-1.6-3.6-3.6v0&#10;&#9;&#9;C271.4,154.4,273,152.8,275,152.8z"/>
	<path class="st2_user-interface-81" d="M275,166.6h79.8c2,0,3.6,1.6,3.6,3.6v0c0,2-1.6,3.6-3.6,3.6H275c-2,0-3.6-1.6-3.6-3.6v0&#10;&#9;&#9;C271.4,168.2,273,166.6,275,166.6z"/>
	<rect x="235.5" y="265.3" class="st2_user-interface-81" width="24.4" height="27.5"/>
	<path class="st2_user-interface-81" d="M275,267.4h116.7c2,0,3.6,1.6,3.6,3.6l0,0c0,2-1.6,3.6-3.6,3.6H275c-2,0-3.6-1.6-3.6-3.6l0,0&#10;&#9;&#9;C271.4,269,273,267.4,275,267.4z"/>
	<path class="st2_user-interface-81" d="M275,281.1h79.8c2,0,3.6,1.6,3.6,3.6l0,0c0,2-1.6,3.6-3.6,3.6H275c-2,0-3.6-1.6-3.6-3.6l0,0&#10;&#9;&#9;C271.4,282.7,273,281.1,275,281.1z"/>
	<rect x="235.5" y="308" class="st2_user-interface-81" width="24.4" height="27.5"/>
	<path class="st2_user-interface-81" d="M275,310h116.7c2,0,3.6,1.6,3.6,3.6l0,0c0,2-1.6,3.6-3.6,3.6H275c-2,0-3.6-1.6-3.6-3.6l0,0&#10;&#9;&#9;C271.4,311.6,273,310,275,310z"/>
	<path class="st2_user-interface-81" d="M275,323.8h79.8c2,0,3.6,1.6,3.6,3.6l0,0c0,2-1.6,3.6-3.6,3.6H275c-2,0-3.6-1.6-3.6-3.6l0,0&#10;&#9;&#9;C271.4,325.4,273,323.8,275,323.8z"/>
	<circle class="st3_user-interface-81 targetColor" cx="167" cy="104.6" r="2.9" style="fill: rgb(250, 225, 0);"/>
	<circle class="st2_user-interface-81" cx="177.2" cy="104.6" r="2.9"/>
	<circle class="st2_user-interface-81" cx="187.4" cy="104.6" r="2.9"/>
	<rect x="213.2" y="113.8" class="st2_user-interface-81" width="1.5" height="246.1"/>
	<rect x="155.9" y="113.1" class="st2_user-interface-81" width="272.6" height="1.5"/>
</g>
<path id="floor_user-interface-81" class="st2_user-interface-81" d="M466.8,390.6H55.9c-0.4,0-0.7-0.3-0.7-0.7c0-0.4,0.3-0.7,0.7-0.7c0,0,0,0,0,0h410.9&#10;&#9;c0.4,0,0.7,0.3,0.7,0.7C467.5,390.3,467.2,390.6,466.8,390.6z"/>
<g id="plant_user-interface-81">
	<path class="st1_user-interface-81" d="M422.1,313.9c0.2-2.7-0.4-5.4-1.6-7.8c-1-1.7-2.6-3.1-3.5-4.9c-1.5-3.2-0.4-6.9-0.8-10.4&#10;&#9;&#9;c-0.3-2.9-1.6-5.6-3.6-7.7c-1.8-1.8-4.2-3.1-5.9-5c-2.9-3.1-3.7-7.6-5.3-11.5c-2.3-5.5-6.3-10.2-11.4-13.4c3.1,6.2-4,14.2-0.8,20.4&#10;&#9;&#9;c1,2,3,3.4,3.7,5.5c1.8,5-4.2,10.5-2.3,15.4c1,2.5,3.6,3.9,4.9,6.3c1.7,3.2,0.4,7,0.5,10.6c0.2,5,3.2,9.4,6.8,12.8&#10;&#9;&#9;c2.2,2.1,4.7,4,7.1,5.9c2.9,2.3,4.1,4.7,6.6,1C420,326,422,320,422.1,313.9z"/>
	<path class="st1_user-interface-81" d="M425.4,316.7c-0.9-3.8-1.6-8,0-11.6c1.8-4.1,6.2-7,6.7-11.4c0.3-2.9-1.1-5.8-0.6-8.7s2.9-4.8,4.9-6.9&#10;&#9;&#9;c4.4-4.9,7.1-11.1,7.5-17.7c2.8,3.7,5.6,7.4,7.1,11.8s1.5,9.5-1,13.3c-0.7,0.9-1.3,1.9-1.8,3c-0.9,2.8,1.5,5.5,2.8,8.1&#10;&#9;&#9;c1.5,3.1,1.2,6.8-0.9,9.6c-2.5,3.1-7.4,4.4-8.7,8.2c-0.3,1.4-0.5,2.9-0.4,4.4c-0.5,5.2-4.2,9.6-9.2,11c-3,0.7-2.9-0.5-3.5-3&#10;&#9;&#9;C427.5,323.4,426.2,320.1,425.4,316.7z"/>
	<path class="st1_user-interface-81" d="M415.8,289.1c-2.1-7.4-3-15-5.2-22.4c-1.9-5.7-4.3-11.3-7-16.7l9.1,3.9c2.9,1.2,6.1,2.7,7.5,5.5&#10;&#9;&#9;c2.4,5-1.9,11.4,0.6,16.3c0.9,1.7,2.5,3,3.6,4.5c2.7,3.8,2.3,9,0.8,13.4c-0.6,1.9-3.4,11.7-5.9,9c-1-1.1-1.1-5.1-1.5-6.6&#10;&#9;&#9;C417.3,293.7,416.5,291.5,415.8,289.1z"/>
	<path class="st1_user-interface-81" d="M420.9,387c-1.8-12-7.5-54.5-7.6-54.9l1.4-0.2c0.1,0.4,5.8,42.8,7.6,54.9L420.9,387z"/>
	<path class="st1_user-interface-81" d="M422.9,398.3h-1.5c0.1-14.3,6-68.9,9.5-72.6l1.1,1C429.7,329.2,423,378.8,422.9,398.3z"/>
	<path class="st1_user-interface-81" d="M426,395.6l-1.5-0.1c1.4-30.8-5.2-95.5-5.2-96.2l1.5-0.1C420.8,299.9,427.4,364.7,426,395.6z"/>
	<path class="st0_user-interface-81" d="M405.2,352.5h34l-2.4,38.6c-0.4,6.7-5.4,11.9-11.3,11.9h-6.6c-6,0-10.9-5.2-11.3-11.9L405.2,352.5z"/>
	<path class="st1_user-interface-81" d="M425.5,403.7h-6.6c-6.3,0-11.6-5.5-12.1-12.6l-2.4-38.6c0-0.4,0.3-0.8,0.7-0.8c0,0,0,0,0.1,0h34&#10;&#9;&#9;c0.2,0,0.4,0.1,0.5,0.2c0.1,0.2,0.2,0.4,0.2,0.6l-2.4,38.6C437.1,398.2,431.8,403.7,425.5,403.7z M406,353.2l2.3,37.8&#10;&#9;&#9;c0.4,6.3,5,11.2,10.6,11.2h6.6c5.5,0,10.2-4.9,10.6-11.2l2.3-37.8L406,353.2z"/>
</g>
<g id="Character_user-interface-81">
	<path class="st0_user-interface-81" d="M137.5,378.8c-0.2,1.3,1.1,16.3,1.1,16.3s18.3,3.2,18.4,2s5.6-6.8,5.6-6.8l-7.4-3.4l-0.6-18.1L137.5,378.8z"/>
	<path class="st1_user-interface-81" d="M155.6,397.9c-3.7,0-11.9-1.3-17.1-2.2c-0.3-0.1-0.5-0.3-0.6-0.6c-0.1-1.5-1.3-15.1-1.1-16.4&#10;&#9;&#9;c0-0.2,0.1-0.4,0.3-0.5l17-10.1c0.3-0.2,0.7-0.1,0.9,0.3c0.1,0.1,0.1,0.2,0.1,0.3l0.6,17.7l7,3.3c0.2,0.1,0.3,0.3,0.4,0.5&#10;&#9;&#9;c0,0.2,0,0.4-0.2,0.6c-2.5,2.5-5.2,5.7-5.4,6.4c0,0.2-0.1,0.4-0.3,0.6C156.8,397.8,156.2,397.9,155.6,397.9z M139.2,394.5&#10;&#9;&#9;c7.5,1.3,15.7,2.4,17.2,2.1c0.6-1.4,3.3-4.4,5-6.2l-6.6-3c-0.2-0.1-0.4-0.3-0.4-0.6l-0.6-17l-15.8,9.4&#10;&#9;&#9;C138.1,380.9,138.8,389.1,139.2,394.5z"/>
	<polygon class="st0_user-interface-81" points="81.9,380 79.2,398.6 91.4,398.6 98.5,378.8 &#9;"/>
	<path class="st1_user-interface-81" d="M91.4,399.2H79.2c-0.2,0-0.4-0.1-0.5-0.2c-0.1-0.2-0.2-0.3-0.2-0.5l2.7-18.5c0-0.3,0.3-0.5,0.6-0.6l16.6-1.3&#10;&#9;&#9;c0.4,0,0.7,0.3,0.7,0.6c0,0.1,0,0.2,0,0.3L92,398.8C91.9,399.1,91.7,399.2,91.4,399.2z M80,397.9h10.9l6.6-18.4l-15,1.2L80,397.9z"/>
	<path class="st0_user-interface-81" d="M122.5,128.8c-0.4-0.1-0.8-0.1-1.2-0.1c-1.9,0.4-3.8,1.1-5.7,1.9c-3-2-7-1.7-10.3-0.4&#10;&#9;&#9;c-8.4,3-13,10.3-17.1,17.7c-1.9,3.4-4.6,6.9-5.9,10.4c-2.1,5.3-2.3,9.8-6,14.6c-3.5,4.6-7.8,8.4-11.6,12.7&#10;&#9;&#9;c-5.1,5.9-9.2,12.9-10.2,20.6C52.2,222.7,68,238.9,84,237.7s33.4-5.4,43.2-18.1c10.8-14.1,11.9-35.6,10.2-52.6&#10;&#9;&#9;c-0.9-8.9-0.7-18.4-4.5-26.7c-1.4-3-3.6-7.4-5.9-9.7C125.7,129.5,124.2,128.9,122.5,128.8z"/>
	<path class="st1_user-interface-81" d="M82.4,238.4c-7.3,0-14.8-3.4-20.5-9.4c-6.2-6.6-9.1-14.9-8.1-22.9c1-7,4.4-14.1,10.4-21&#10;&#9;&#9;c1.5-1.8,3.2-3.5,4.8-5.2c2.4-2.4,4.6-4.9,6.7-7.5c2.4-3.1,3.3-6.2,4.3-9.4c0.5-1.6,1-3.3,1.7-5c1.1-2.4,2.3-4.7,3.8-6.9&#10;&#9;&#9;c0.8-1.2,1.5-2.4,2.2-3.6c4.1-7.4,8.9-14.9,17.5-18c2.4-0.9,7-2,10.6,0.3c1.8-0.8,3.7-1.3,5.6-1.8c0.4,0,0.9,0,1.3,0.1l0,0&#10;&#9;&#9;c1.8,0.1,3.5,0.9,4.8,2.1c1.8,1.8,3.8,5.1,6,9.9c3,6.6,3.5,13.8,4.1,20.9c0.1,2,0.3,4,0.5,6c1.3,13,1.8,37.3-10.3,53&#10;&#9;&#9;c-8.3,10.8-22.5,16.8-43.7,18.4C83.5,238.4,82.9,238.4,82.4,238.4z M110.6,129.8c-1.7,0-3.4,0.4-5.1,1&#10;&#9;&#9;c-8.2,2.9-12.8,10.2-16.8,17.4c-0.7,1.2-1.4,2.4-2.2,3.6c-1.4,2.1-2.7,4.3-3.7,6.7c-0.7,1.7-1.2,3.3-1.6,4.9&#10;&#9;&#9;c-1,3.4-1.9,6.6-4.5,9.9c-2.1,2.7-4.4,5.2-6.8,7.6c-1.6,1.6-3.2,3.4-4.8,5.1c-5.8,6.7-9.2,13.5-10.1,20.3c-1,7.6,1.8,15.5,7.7,21.8&#10;&#9;&#9;s13.8,9.5,21.1,9c20.7-1.6,34.7-7.4,42.7-17.9c11.8-15.4,11.3-39.2,10-52.1c-0.2-2-0.4-4-0.5-6c-0.5-6.9-1-14.1-3.9-20.4&#10;&#9;&#9;c-2.1-4.6-4-7.8-5.7-9.5c-1.1-1-2.5-1.6-4-1.7l0,0c-0.4-0.1-0.8,0-1.2-0.1c-1.8,0.4-3.5,1-5.2,1.7c-0.2,0.2-0.6,0.3-0.9,0.1l0,0&#10;&#9;&#9;C113.9,130.3,112.3,129.8,110.6,129.8z"/>
	<polygon class="st0_user-interface-81" points="146.4,242.3 134,177.4 98.4,180.2 98.5,235.9 &#9;"/>
	<path class="st1_user-interface-81" d="M146.4,243L146.4,243l-47.9-6.4c-0.3,0-0.6-0.3-0.6-0.7l-0.1-55.6c0-0.3,0.3-0.6,0.6-0.7l35.6-2.8&#10;&#9;&#9;c0.3,0,0.6,0.2,0.7,0.5l12.4,64.9c0,0.2,0,0.4-0.2,0.6C146.7,242.9,146.5,243,146.4,243z M99.2,235.3l46.3,6.2l-12.1-63.4&#10;&#9;&#9;l-34.4,2.7L99.2,235.3z"/>
	<path class="st1_user-interface-81" d="M98.5,235.9c0,0-14.9,105.5-19.3,145.1l19.1,3c0,0,13.1-55.1,25.4-90.8l11.9,90.8l21.3-2.8l-6.6-145.4H98.5z"/>
	<path class="st3_user-interface-81 targetColor" d="M68.5,210.6l21.7,6.3L87,271.1l24.8-0.7l-5-86.8l20.2-0.8c0,0.8,6.5,71.5,8.5,88.3l24.2-7.4l-9.9-50l13.6-7&#10;&#9;&#9;c0,0-8.4-33.4-36.4-31.8c-25.8,1.5-16.8,1.5-16.3,1.5c-0.5,0-20.5,0.1-29.6,12.4C71.9,201.2,68.5,210.6,68.5,210.6z" style="fill: rgb(250, 225, 0);"/>
	<path class="st0_user-interface-81" d="M124.2,171.3l2.3,12.6c0,0,0.1,7.3-8,6.7c-4.8-0.4-9.3-3-12-7c-0.8-5.2-1.7-10.4-2.5-15.6&#10;&#9;&#9;c-1-5.8-2.5-11.8-2.8-17.6c6.1,1.9,13.6-5.7,15.5-10.7c1,3.1,0.2,6.5-1.9,9c3.4-1.2,6.1-4,7.2-7.4c0.1-0.2,4.7,4,5,4.5&#10;&#9;&#9;c1.3,1.9,2.3,4,3,6.2c1.2,3.9,2.2,9.7,0.2,13.5C127.6,170.4,124.2,171.3,124.2,171.3z"/>
	<path class="st1_user-interface-81" d="M119.4,191.2c-0.3,0-0.6,0-1,0c-5.1-0.4-9.6-3.1-12.4-7.4c-0.1-0.1-0.1-0.2-0.1-0.2l-2.6-15.6&#10;&#9;&#9;c-0.3-1.8-0.7-3.7-1-5.5c-0.9-4-1.5-8.1-1.8-12.2c0-0.2,0.1-0.4,0.3-0.6c0.2-0.1,0.4-0.2,0.6-0.1c5.6,1.8,12.8-5.6,14.6-10.3&#10;&#9;&#9;c0.1-0.3,0.4-0.4,0.6-0.4c0.3,0,0.5,0.2,0.6,0.5c0.8,2.5,0.6,5.2-0.6,7.6c2.2-1.4,3.8-3.5,4.6-6c0.1-0.2,0.3-0.4,0.5-0.5&#10;&#9;&#9;c0.9-0.1,5.6,4.8,5.7,4.8c1.4,2,2.4,4.1,3.1,6.4c0.8,2.7,2.5,9.5,0.2,14c-1.2,2.6-3.2,4.7-5.8,6c0.4,2.4,2.2,12,2.2,12&#10;&#9;&#9;c0,2.1-0.8,4.1-2.2,5.6C123.5,190.7,121.5,191.4,119.4,191.2z M107.1,183.3c2.7,3.8,6.8,6.2,11.4,6.6c1.9,0.3,3.9-0.2,5.4-1.5&#10;&#9;&#9;c1.2-1.2,1.8-2.8,1.8-4.5c0,0-2.3-12.3-2.3-12.5c-0.1-0.3,0.1-0.7,0.5-0.8c0.1,0,3.2-1,5.5-5.5c2.1-4,0.5-10.4-0.3-13&#10;&#9;&#9;c-0.6-2.1-1.6-4.2-2.9-6c-0.3-0.4-2.9-2.8-4.2-3.9c-1.3,3.3-4,5.8-7.3,7c-0.4,0.1-0.7-0.1-0.8-0.4c-0.1-0.2,0-0.5,0.1-0.7&#10;&#9;&#9;c1.6-1.8,2.4-4.1,2.2-6.5c-2.7,4.7-8.9,10.5-14.5,9.5c0.4,3.7,0.9,7.4,1.7,11.1c0.4,1.9,0.7,3.7,1,5.6L107.1,183.3z"/>
	<path class="st0_user-interface-81" d="M104.5,159c-0.4-0.9-1-1.6-1.9-2.1c-0.8-0.4-1.7-0.7-2.6-0.8c-0.5-0.1-1-0.1-1.5,0c-0.3,0.1-0.6,0.3-0.9,0.5&#10;&#9;&#9;c-0.7,0.5-1.2,1.2-1.4,2c-0.1,0.7,0,1.3,0.2,1.9c0.2,0.7,0.5,1.4,0.9,2c1.6,2.5,5,3.3,7.5,1.7c0,0,0,0,0.1,0"/>
	<path class="st1_user-interface-81" d="M101.9,165.6c-0.4,0-0.8,0-1.3-0.1c-1.6-0.3-2.9-1.3-3.8-2.7c-0.4-0.7-0.7-1.4-0.9-2.1&#10;&#9;&#9;c-0.3-0.7-0.3-1.5-0.2-2.2c0.2-0.9,0.8-1.8,1.6-2.3c0.3-0.3,0.7-0.5,1.1-0.6c0.6-0.1,1.2-0.1,1.7,0c1,0.1,1.9,0.4,2.8,0.9&#10;&#9;&#9;c1,0.5,1.7,1.4,2.1,2.4c0.1,0.3,0,0.6-0.3,0.8c0,0,0,0,0,0c-0.3,0.1-0.6,0-0.8-0.3c0,0,0,0,0,0c-0.3-0.8-0.9-1.4-1.7-1.8&#10;&#9;&#9;c-0.7-0.4-1.6-0.6-2.4-0.7c-0.4-0.1-0.8-0.1-1.2,0c-0.3,0.1-0.5,0.2-0.7,0.4c-0.6,0.4-1,1-1.2,1.6c-0.1,0.6,0,1.1,0.2,1.7&#10;&#9;&#9;c0.2,0.6,0.4,1.3,0.8,1.8c0.7,1.1,1.8,1.9,3.1,2.1c1.3,0.3,2.6,0,3.7-0.7c0.3-0.2,0.6-0.1,0.8,0.2c0.2,0.3,0.1,0.6-0.2,0.8&#10;&#9;&#9;C104.3,165.3,103.1,165.6,101.9,165.6z"/>
	<path class="st1_user-interface-81" d="M124.9,176.3c0,0-4.9,2.4-8.9-0.3s-4.2-6.3-4.2-6.3s7.4,3.7,12.3,1.8L124.9,176.3z"/>
	<path class="st1_user-interface-81" d="M120.4,177.9c-1.7,0-3.4-0.5-4.8-1.4c-4.2-2.9-4.4-6.6-4.4-6.8c0-0.2,0.1-0.4,0.3-0.6c0.2-0.1,0.4-0.1,0.7,0&#10;&#9;&#9;c0.1,0,7.2,3.6,11.8,1.8c0.2-0.1,0.4-0.1,0.6,0c0.2,0.1,0.3,0.3,0.3,0.5l0.7,4.7c0,0.3-0.1,0.5-0.3,0.7&#10;&#9;&#9;C123.7,177.5,122,177.9,120.4,177.9z M112.7,170.8c0.7,1.9,2,3.5,3.7,4.6c3,2.1,6.6,0.9,7.8,0.4l-0.5-3.5&#10;&#9;&#9;C119.8,173.4,114.9,171.7,112.7,170.8L112.7,170.8z"/>
	<path class="st0_user-interface-81" d="M122.4,151.2c0,0,5.3,5.2,4.5,6.5s-3.6,1.1-3.6,1.1"/>
	<path class="st1_user-interface-81" d="M123.7,159.4h-0.4c-0.4-0.1-0.6-0.4-0.5-0.7c0.1-0.3,0.3-0.5,0.6-0.5c0.8,0,2.6-0.1,3-0.8&#10;&#9;&#9;c0.1-0.6-2-3.3-4.4-5.7c-0.3-0.2-0.3-0.7,0-0.9c0,0,0,0,0,0c0.3-0.3,0.7-0.3,0.9,0c0,0,0,0,0,0c2.6,2.6,5.5,5.9,4.6,7.3&#10;&#9;&#9;S124.5,159.4,123.7,159.4z"/>
	<ellipse transform="matrix(0.9164 -0.4002 0.4002 0.9164 -51.5069 59.0725)" class="st1_user-interface-81" cx="115.7" cy="152.9" rx="1" ry="1.4"/>
	<ellipse transform="matrix(0.9164 -0.4002 0.4002 0.9164 -49.7803 63.3694)" class="st1_user-interface-81" cx="126.8" cy="150.9" rx="1" ry="1.4"/>
	<path class="st0_user-interface-81" d="M128.8,160.8c0,0-2.6,6.1-10,2.2"/>
	<path class="st1_user-interface-81" d="M123.4,165c-1.7-0.1-3.4-0.5-4.9-1.4c-0.3-0.2-0.4-0.5-0.3-0.9c0,0,0,0,0,0c0.2-0.3,0.6-0.4,0.9-0.3&#10;&#9;&#9;c2.3,1.2,4.4,1.5,6,0.9c1.3-0.5,2.4-1.5,3-2.8c0.2-0.3,0.6-0.4,0.9-0.2c0.3,0.1,0.4,0.5,0.3,0.7c-0.8,1.6-2.1,2.9-3.8,3.5&#10;&#9;&#9;C124.8,164.9,124.1,165,123.4,165z"/>
	<path class="st0_user-interface-81" d="M147.9,213.9c0,0,16.4,45.7,27.7,40.3c4.9-2.3,28.2-38.5,29-39.3c1.6-1.5,3.9-1.4,5.4-2.9&#10;&#9;&#9;c0.7-0.8,1.4-1.8,1.8-2.8c0.8-1.6,1.6-3.6,0.3-4.9c-0.2-0.2-0.6-0.5-0.6-0.9s0.3-0.6,0.6-0.7l2-1.1c0.5-0.3,1-0.7,0.8-1.2&#10;&#9;&#9;s-0.9-0.6-1.5-0.5c-5.6,1.1-12.1,4.8-16.9,7.6c0.3-1.5,0.5-3,0.6-4.5c0.1-1.2-0.2-2.7-1.4-2.9s-1.9,1-2.4,2.1&#10;&#9;&#9;c-2.2,5.4-3.6,9.6-7.2,14.3s-7.3,9.6-11,14.4c-1.9-0.3-11.8-24.3-11.8-24.3"/>
	<path class="st1_user-interface-81" d="M173.6,255.4c-0.8,0-1.6-0.2-2.4-0.5c-11-4.5-23.5-39.2-24-40.7c-0.1-0.3,0.1-0.7,0.4-0.9s0.7,0.1,0.9,0.4l0,0&#10;&#9;&#9;c0.1,0.4,12.9,35.6,23.3,39.9c1.1,0.5,2.4,0.5,3.5,0c3.6-1.7,18.8-24.3,25.3-34c2.7-4,3.4-5,3.6-5.2c0.9-0.7,1.9-1.3,2.9-1.6&#10;&#9;&#9;c0.9-0.2,1.7-0.7,2.4-1.3c0.7-0.8,1.3-1.7,1.7-2.7c1-2,1.2-3.4,0.4-4.2l-0.1-0.1c-0.4-0.3-0.6-0.8-0.6-1.2c0.1-0.6,0.4-1,0.9-1.3&#10;&#9;&#9;l2-1.1c0.4-0.2,0.5-0.4,0.5-0.5c-0.2,0-0.5,0-0.7,0c-5.4,1.1-11.8,4.6-16.7,7.6c-0.3,0.2-0.7,0.1-0.9-0.2c-0.1-0.1-0.1-0.3-0.1-0.5&#10;&#9;&#9;c0.3-1.5,0.5-2.9,0.6-4.4c0-0.8-0.1-2.1-0.8-2.2s-1.5,1.3-1.6,1.7c-0.4,0.9-0.7,1.7-1,2.6c-1.7,4.2-3.2,7.9-6.2,11.9&#10;&#9;&#9;c-3.6,4.8-7.3,9.6-11,14.4c-0.2,0.2-0.4,0.3-0.6,0.2c-2-0.3-8.6-15.6-12.3-24.7c-0.1-0.3,0-0.7,0.4-0.9c0.3-0.1,0.7,0,0.9,0.4&#10;&#9;&#9;c4.3,10.4,9.4,21.5,11.1,23.6c3.5-4.6,7.1-9.2,10.6-13.9c2.9-3.9,4.4-7.5,6.1-11.6c0.3-0.8,0.7-1.7,1.1-2.6&#10;&#9;&#9;c0.8-1.9,1.9-2.7,3.1-2.5c1.6,0.3,2,2.1,1.9,3.6c-0.1,1.1-0.2,2.1-0.3,3.2c4.8-2.8,10.7-5.9,15.9-7c1.2-0.2,2.1,0.1,2.3,1&#10;&#9;&#9;c0.1,0.4,0.1,1.2-1.2,2l-2,1.1c-0.2,0.1-0.3,0.2-0.3,0.2s0.2,0.1,0.2,0.2l0.1,0.1c1.7,1.8,0.3,4.7-0.2,5.7c-0.5,1.1-1.2,2.1-1.9,3&#10;&#9;&#9;c-0.8,0.8-1.9,1.3-3,1.6c-0.9,0.2-1.8,0.7-2.5,1.3c-0.2,0.2-1.7,2.4-3.4,5c-11.3,16.9-22.3,32.8-25.8,34.4&#10;&#9;&#9;C175.2,255.2,174.4,255.4,173.6,255.4z"/>
	<line class="st4_user-interface-81" x1="88" y1="253.6" x2="90.8" y2="193.1"/>
	<path class="st1_user-interface-81" d="M88,254.3L88,254.3c-0.4,0-0.6-0.3-0.6-0.7l2.8-60.5c0-0.4,0.3-0.6,0.7-0.6c0.4,0,0.7,0.3,0.6,0.7l-2.8,60.5&#10;&#9;&#9;C88.7,254,88.4,254.3,88,254.3C88,254.3,88,254.3,88,254.3z"/>
	<line class="st4_user-interface-81" x1="144.7" y1="204.8" x2="139.7" y2="193.1"/>
	<path class="st1_user-interface-81" d="M144.7,205.5c-0.3,0-0.5-0.2-0.6-0.4l-5-11.7c-0.1-0.4,0.1-0.7,0.5-0.8c0.3-0.1,0.6,0,0.8,0.3l5,11.7&#10;&#9;&#9;c0.1,0.3,0,0.7-0.4,0.9C144.9,205.5,144.8,205.5,144.7,205.5z"/>
	<path class="st1_user-interface-81" d="M93.6,390.6c0,0-10.9-6-15.5,0s-5,13.7-5,13.7s22.9,3.8,23.1,0S93.6,390.6,93.6,390.6z"/>
	<path class="st0_user-interface-81" d="M37.3,294.1l92.9-25.1c3-0.8,6.1,1,6.9,4l11.2,41.5c0.8,3-1,6.1-4,6.9l-92.9,25.1c-3,0.8-6.1-1-6.9-4L33.4,301&#10;&#9;&#9;C32.5,298,34.3,294.9,37.3,294.1z"/>
	<path class="st1_user-interface-81" d="M50,347.3c-2.8,0-5.3-1.9-6.1-4.7l-11.2-41.5c-0.9-3.4,1.1-6.8,4.4-7.7l92.8-25.1c3.4-0.9,6.8,1.1,7.7,4.4&#10;&#9;&#9;l11.3,41.5c0.9,3.4-1.1,6.8-4.4,7.7c0,0,0,0,0,0l-92.9,25.1C51.1,347.3,50.6,347.3,50,347.3z M131.7,269.5c-0.4,0-0.9,0.1-1.3,0.2&#10;&#9;&#9;l-92.9,25.1c-2.6,0.7-4.2,3.4-3.5,6.1l11.2,41.5c0.7,2.6,3.4,4.2,6.1,3.5l92.9-25.1l0,0c2.6-0.7,4.2-3.4,3.5-6.1l-11.2-41.5&#10;&#9;&#9;C135.9,271,133.9,269.5,131.7,269.5L131.7,269.5z"/>
	
		<rect x="52.1" y="302.3" transform="matrix(0.9655 -0.2605 0.2605 0.9655 -80.1226 27.6758)" class="st2_user-interface-81" width="24.4" height="27.5"/>
	<path class="st2_user-interface-81" d="M83.6,298.1l40.2-10.8c1.9-0.5,3.8,0.6,4.3,2.5l0.1,0.2c0.5,1.9-0.6,3.8-2.5,4.3L85.5,305&#10;&#9;&#9;c-1.9,0.5-3.8-0.6-4.3-2.5l-0.1-0.2C80.7,300.5,81.8,298.6,83.6,298.1z"/>
	<path class="st2_user-interface-81" d="M86.9,311.4l31.4-8.5c1.7-0.5,3.4,0.5,3.8,2.2l0.2,0.9c0.5,1.7-0.5,3.4-2.2,3.8l-31.4,8.5&#10;&#9;&#9;c-1.7,0.5-3.4-0.5-3.8-2.2l-0.2-0.9C84.2,313.6,85.2,311.9,86.9,311.4z"/>
	<path class="st0_user-interface-81" d="M68.5,210.6c0,0-15.9,38-14.2,42.4c1.6,4.4,18,31.7,18,31.7s4.8,14.9,11.3,11.5c4.2-2.2,2-15,2-15l4.8-1.3&#10;&#9;&#9;c0,0-7.9-3.3-8.8-4.8s-9.3-24.8-9.3-24.8L86.8,216"/>
	<path class="st1_user-interface-81" d="M81.6,297.3c-0.6,0-1.2-0.1-1.8-0.4c-4.7-1.9-7.8-11-8.2-12c-1.1-1.8-16.4-27.4-18-31.7&#10;&#9;&#9;c-1.7-4.5,12.6-38.9,14.2-42.8c0.1-0.4,0.5-0.6,0.8-0.5c0.4,0.1,0.6,0.5,0.5,0.8c0,0,0,0.1-0.1,0.1c-6.3,15.2-15.3,38.8-14.2,41.9&#10;&#9;&#9;c1.6,4.3,17.8,31.3,17.9,31.6c0,0,0,0.1,0.1,0.1c0,0.1,3.1,9.5,7.4,11.2c1,0.4,2,0.3,2.9-0.2c3.1-1.6,2.2-10.9,1.6-14.3&#10;&#9;&#9;c-0.1-0.3,0.1-0.7,0.5-0.8l2.9-0.8c-2.5-1.1-6.6-3.1-7.3-4.3c-0.9-1.6-9-23.9-9.4-24.9c-0.1-0.2-0.1-0.3,0-0.5l14.5-34.3&#10;&#9;&#9;c0.2-0.3,0.6-0.5,0.9-0.3c0.3,0.2,0.4,0.5,0.3,0.8l-14.4,34c2.4,6.6,8.5,23.2,9.2,24.4c0.5,0.9,4.7,3,8.4,4.5&#10;&#9;&#9;c0.3,0.1,0.5,0.5,0.4,0.9c-0.1,0.2-0.3,0.4-0.5,0.4l-4.2,1.1c0.4,2.8,1.7,13-2.4,15.1C83.2,297.1,82.4,297.3,81.6,297.3z"/>
	<path class="st1_user-interface-81" d="M160.1,385.7l-5.8,7.5l-18.9-3.8l-0.8,9.8c0,0,40.1,8.3,41.7,3.9S160.1,385.7,160.1,385.7z"/>
</g>
<g id="UI_Tiles_user-interface-81">
	<path class="st0_user-interface-81" d="M206.5,182.7H360c4.5,0,8.1,3.6,8.1,8.1v38c0,4.5-3.6,8.1-8.1,8.1H206.5c-4.5,0-8.1-3.6-8.1-8.1v-38&#10;&#9;&#9;C198.4,186.3,202,182.7,206.5,182.7z"/>
	<path class="st1_user-interface-81" d="M360,237.6H206.5c-4.8,0-8.8-3.9-8.8-8.8v-38c0-4.8,3.9-8.8,8.8-8.8H360c4.8,0,8.8,3.9,8.8,8.8v38&#10;&#9;&#9;C368.8,233.7,364.8,237.6,360,237.6z M206.5,183.4c-4.1,0-7.4,3.3-7.4,7.4v38c0,4.1,3.3,7.4,7.4,7.4H360c4.1,0,7.4-3.3,7.4-7.4v-38&#10;&#9;&#9;c0-4.1-3.3-7.4-7.4-7.4H206.5z"/>
	<rect x="212.1" y="196.1" class="st3_user-interface-81 targetColor" width="24.4" height="27.5" style="fill: rgb(250, 225, 0);"/>
	<path class="st2_user-interface-81" d="M255.4,199.4h79.8c2,0,3.6,1.6,3.6,3.6v0c0,2-1.6,3.6-3.6,3.6h-79.8c-2,0-3.6-1.6-3.6-3.6v0&#10;&#9;&#9;C251.8,201,253.4,199.4,255.4,199.4z"/>
	<path class="st2_user-interface-81" d="M255.4,213.1h53.8c2,0,3.6,1.6,3.6,3.6v0c0,2-1.6,3.6-3.6,3.6h-53.8c-2,0-3.6-1.6-3.6-3.6v0&#10;&#9;&#9;C251.8,214.7,253.4,213.1,255.4,213.1z"/>
</g>
</svg>