<svg viewBox="0 0 2000 1400" xmlns="http://www.w3.org/2000/svg">
  <mask id="b" x="0" y="0" width="2000" height="1400">
    <path fill="url(#a)" d="M0 0h2000v1400H0z" />
  </mask>
  <path fill="#fbb800" d="M0 0h2000v1400H0z" />
  <g style="transform-origin:center center" clip-rule="evenodd" stroke="#fa8a00" stroke-width="3.51" mask="url(#b)">
    <g fill="none">
      <path d="M76.923 44.84v88.719l76.92 44.363V89.204L76.922 44.84Z" stroke-width="1.7999982" />
      <path d="m153.842 177.922 76.927-44.363V44.841l-76.927 44.363v88.718Z" stroke-width="1.7999982" />
      <path d="M76.923 44.84 153.843.487l76.926 44.355-76.927 44.363L76.923 44.84Z" stroke-width="1.7999982" />
    </g>
    <g fill="none">
      <path d="M230.77 44.84v88.719l76.918 44.363V89.204L230.77 44.84ZM307.688 177.922l76.927-44.363V44.841l-76.927 44.363v88.718Z" stroke-width="1.7999982" />
      <path d="M230.77 44.84 307.687.487l76.927 44.355-76.927 44.363L230.77 44.84Z" stroke-width="1.7999982" />
    </g>
    <g fill-rule="evenodd">
      <path d="M384.615 44.84v88.719l76.92 44.363V89.204l-76.92-44.363Z" fill="#fa8a00dd" stroke-width="1.7999982" />
      <path d="m461.534 177.922 76.928-44.363V44.841l-76.928 44.363v88.718Z" fill="#fa8a009b" stroke-width="1.7999982" />
      <path d="M384.615 44.84 461.535.487l76.927 44.355-76.928 44.363-76.919-44.363Z" fill="#fa8a004d" stroke-width="1.7999982" />
    </g>
    <g fill="none">
      <path d="M538.462 44.84v88.719l76.919 44.363V89.204L538.46 44.84Z" stroke-width="1.7999982" />
      <path d="m615.38 177.922 76.928-44.363V44.841L615.38 89.204v88.718Z" stroke-width="1.7999982" />
      <path d="M538.462 44.84 615.38.487l76.927 44.355-76.927 44.363-76.92-44.363Z" stroke-width="1.7999982" />
    </g>
    <g fill="none">
      <path d="M692.308 44.84v88.719l76.919 44.363V89.204l-76.92-44.363ZM769.227 177.922l76.927-44.363V44.841l-76.927 44.363v88.718Z" stroke-width="1.7999982" />
      <path d="M692.308 44.84 769.227.487l76.927 44.355-76.927 44.363-76.92-44.363Z" stroke-width="1.7999982" />
    </g>
    <g fill="none">
      <path d="M846.154 44.84v88.719l76.919 44.363V89.204l-76.92-44.363ZM923.073 177.922 1000 133.559V44.841l-76.927 44.363v88.718Z" stroke-width="1.7999982" />
      <path d="M846.154 44.84 923.073.487 1000 44.84l-76.927 44.363-76.92-44.363Z" stroke-width="1.7999982" />
    </g>
    <g fill="none">
      <path d="M1000 44.84v88.719l76.919 44.363V89.204L1000 44.84ZM1076.919 177.922l76.927-44.363V44.841l-76.927 44.363v88.718Z" stroke-width="1.7999982" />
      <path d="M1000 44.84 1076.919.487l76.927 44.355-76.927 44.363L1000 44.84Z" stroke-width="1.7999982" />
    </g>
    <g fill="none">
      <path d="M1153.846 44.84v88.719l76.92 44.363V89.204l-76.92-44.363Z" stroke-width="1.7999982" />
      <path d="m1230.765 177.922 76.927-44.363V44.841l-76.927 44.363v88.718Z" stroke-width="1.7999982" />
      <path d="m1153.846 44.84 76.92-44.354 76.926 44.355-76.927 44.363-76.919-44.363Z" stroke-width="1.7999982" />
    </g>
    <g fill="none">
      <path d="M1307.692 44.84v88.719l76.92 44.363V89.204l-76.92-44.363Z" stroke-width="1.7999982" />
      <path d="m1384.611 177.922 76.927-44.363V44.841l-76.927 44.363v88.718Z" stroke-width="1.7999982" />
      <path d="m1307.692 44.84 76.92-44.354 76.926 44.355-76.927 44.363-76.919-44.363Z" stroke-width="1.7999982" />
    </g>
    <g fill="none">
      <path d="M1461.538 44.84v88.719l76.92 44.363V89.204l-76.92-44.363Z" stroke-width="1.7999982" />
      <path d="m1538.457 177.922 76.928-44.363V44.841l-76.928 44.363v88.718ZM1461.538 44.84l76.92-44.354 76.927 44.355-76.928 44.363-76.919-44.363Z" stroke-width="1.7999982" />
    </g>
    <g fill-rule="evenodd">
      <path d="M1615.385 44.84v88.719l76.919 44.363V89.204l-76.92-44.363Z" fill="#fa8a00c3" stroke-width="1.7999982" />
      <path d="m1692.304 177.922 76.927-44.363V44.841l-76.927 44.363v88.718Z" fill="#fa8a0089" stroke-width="1.7999982" />
      <path d="M1615.385 44.84 1692.304.487l76.927 44.355-76.927 44.363-76.92-44.363Z" fill="#fa8a0044" stroke-width="1.7999982" />
    </g>
    <g fill="none">
      <path d="M1769.23 44.84v88.719l76.92 44.363V89.204l-76.92-44.363ZM1846.15 177.922l76.927-44.363V44.841l-76.927 44.363v88.718Z" stroke-width="1.7999982" />
      <path d="M1769.23 44.84 1846.15.487l76.927 44.355-76.927 44.363-76.92-44.363Z" stroke-width="1.7999982" />
    </g>
    <g fill="none">
      <path d="M1923.077 44.84v88.719l76.919 44.363V89.204l-76.92-44.363ZM1999.996 177.922l76.927-44.363V44.841l-76.927 44.363v88.718Z" stroke-width="1.7999982" />
      <path d="M1923.077 44.84 1999.996.487l76.927 44.355-76.927 44.363-76.92-44.363Z" stroke-width="1.7999982" />
    </g>
    <g fill-rule="evenodd">
      <path d="M0 178.174v88.718l76.919 44.363v-88.718L0 178.174Z" fill="#fa8a00cb" stroke-width="1.7999982" />
      <path d="m76.919 311.255 76.927-44.363v-88.718L76.92 222.537v88.718Z" fill="#fa8a008e" stroke-width="1.7999982" />
      <path d="m0 178.174 76.919-44.355 76.927 44.355-76.927 44.363L0 178.174Z" fill="#fa8a0047" stroke-width="1.7999982" />
    </g>
    <g fill="none">
      <path d="M153.846 178.174v88.718l76.92 44.363v-88.718l-76.92-44.363Z" stroke-width="1.7999982" />
      <path d="m230.765 311.255 76.927-44.363v-88.718l-76.927 44.363v88.718Z" stroke-width="1.7999982" />
      <path d="m153.846 178.174 76.92-44.355 76.926 44.355-76.927 44.363-76.919-44.363Z" stroke-width="1.7999982" />
    </g>
    <g fill="none">
      <path d="M307.692 178.174v88.718l76.92 44.363v-88.718l-76.92-44.363Z" stroke-width="1.7999982" />
      <path d="m384.611 311.255 76.927-44.363v-88.718l-76.927 44.363v88.718Z" stroke-width="1.7999982" />
      <path d="m307.692 178.174 76.92-44.355 76.926 44.355-76.927 44.363-76.919-44.363Z" stroke-width="1.7999982" />
    </g>
    <g fill-rule="evenodd">
      <path d="M461.538 178.174v88.718l76.92 44.363v-88.718l-76.92-44.363Z" fill="#fa8a00f9" stroke-width="1.7999982" />
      <path d="m538.457 311.255 76.928-44.363v-88.718l-76.928 44.363v88.718Z" fill="#fa8a00af" stroke-width="1.7999982" />
      <path d="m461.538 178.174 76.92-44.355 76.927 44.355-76.928 44.363-76.919-44.363Z" fill="#fa8a0057" stroke-width="1.7999982" />
    </g>
    <g fill="none">
      <path d="M615.385 178.174v88.718l76.919 44.363v-88.718l-76.92-44.363ZM692.304 311.255l76.927-44.363v-88.718l-76.927 44.363v88.718Z" stroke-width="1.7999982" />
      <path d="m615.385 178.174 76.919-44.355 76.927 44.355-76.927 44.363-76.92-44.363Z" stroke-width="1.7999982" />
    </g>
    <g fill="none">
      <path d="M769.23 178.174v88.718l76.92 44.363v-88.718l-76.92-44.363ZM846.15 311.255l76.927-44.363v-88.718l-76.927 44.363v88.718Z" stroke-width="1.7999982" />
      <path d="m769.23 178.174 76.92-44.355 76.927 44.355-76.927 44.363-76.92-44.363Z" stroke-width="1.7999982" />
    </g>
    <g fill="none">
      <path d="M923.077 178.174v88.718l76.919 44.363v-88.718l-76.92-44.363ZM999.996 311.255l76.927-44.363v-88.718l-76.927 44.363v88.718Z" stroke-width="1.7999982" />
      <path d="m923.077 178.174 76.919-44.355 76.927 44.355-76.927 44.363-76.92-44.363Z" stroke-width="1.7999982" />
    </g>
    <g fill-rule="evenodd">
      <path d="M1076.923 178.174v88.718l76.92 44.363v-88.718l-76.92-44.363Z" fill="#fa8a00eb" stroke-width="1.7999982" />
      <path d="m1153.842 311.255 76.927-44.363v-88.718l-76.927 44.363v88.718Z" fill="#fa8a00a5" stroke-width="1.7999982" />
      <path d="m1076.923 178.174 76.92-44.355 76.926 44.355-76.927 44.363-76.919-44.363Z" fill="#fa8a0052" stroke-width="1.7999982" />
    </g>
    <g fill="none">
      <path d="M1230.77 178.174v88.718l76.918 44.363v-88.718l-76.919-44.363ZM1307.688 311.255l76.927-44.363v-88.718l-76.927 44.363v88.718Z" stroke-width="1.7999982" />
      <path d="m1230.77 178.174 76.918-44.355 76.927 44.355-76.927 44.363-76.919-44.363Z" stroke-width="1.7999982" />
    </g>
    <g fill-rule="evenodd">
      <path d="M1384.615 178.174v88.718l76.92 44.363v-88.718l-76.92-44.363Z" fill="#fa8a00a6" stroke-width="1.7999982" />
      <path d="m1461.534 311.255 76.928-44.363v-88.718l-76.928 44.363v88.718Z" fill="#fa8a0074" stroke-width="1.7999982" />
      <path d="m1384.615 178.174 76.92-44.355 76.927 44.355-76.928 44.363-76.919-44.363Z" fill="#fa8a003a" stroke-width="1.7999982" />
    </g>
    <g fill="none">
      <path d="M1538.462 178.174v88.718l76.919 44.363v-88.718l-76.92-44.363Z" stroke-width="1.7999982" />
      <path d="m1615.38 311.255 76.928-44.363v-88.718l-76.927 44.363v88.718Z" stroke-width="1.7999982" />
      <path d="m1538.462 178.174 76.919-44.355 76.927 44.355-76.927 44.363-76.92-44.363Z" stroke-width="1.7999982" />
    </g>
    <g fill-rule="evenodd">
      <path d="M1692.308 178.174v88.718l76.919 44.363v-88.718l-76.92-44.363Z" fill="#fa8a00a5" stroke-width="1.7999982" />
      <path d="m1769.227 311.255 76.927-44.363v-88.718l-76.927 44.363v88.718Z" fill="#fa8a0073" stroke-width="1.7999982" />
      <path d="m1692.308 178.174 76.919-44.355 76.927 44.355-76.927 44.363-76.92-44.363Z" fill="#fa8a003a" stroke-width="1.7999982" />
    </g>
    <g fill-rule="evenodd">
      <path d="M1846.154 178.174v88.718l76.919 44.363v-88.718l-76.92-44.363Z" fill="#fa8a00b1" stroke-width="1.7999982" />
      <path d="M1923.073 311.255 2000 266.892v-88.718l-76.927 44.363v88.718Z" fill="#fa8a007c" stroke-width="1.7999982" />
      <path d="m1846.154 178.174 76.919-44.355L2000 178.174l-76.927 44.363-76.92-44.363Z" fill="#fa8a003e" stroke-width="1.7999982" />
    </g>
    <g fill="none">
      <path d="M76.923 311.508v88.718l76.92 44.362V355.87l-76.92-44.362Z" stroke-width="1.7999982" />
      <path d="m153.842 444.588 76.927-44.362v-88.718l-76.927 44.362v88.718ZM76.923 311.507l76.92-44.355 76.926 44.355-76.927 44.363-76.919-44.363Z" stroke-width="1.7999982" />
    </g>
    <g fill="none">
      <path d="M230.77 311.508v88.718l76.918 44.362V355.87l-76.919-44.362ZM307.688 444.588l76.927-44.362v-88.718l-76.927 44.362v88.718ZM230.77 311.507l76.918-44.355 76.927 44.355-76.927 44.363-76.919-44.363Z" stroke-width="1.7999982" />
    </g>
    <g fill-rule="evenodd">
      <path d="M384.615 311.508v88.718l76.92 44.362V355.87l-76.92-44.362Z" fill="#fa8a00c5" stroke-width="1.7999982" />
      <path d="m461.534 444.588 76.928-44.362v-88.718l-76.928 44.362v88.718Z" fill="#fa8a008a" stroke-width="1.7999982" />
      <path d="m384.615 311.507 76.92-44.355 76.927 44.355-76.928 44.363-76.919-44.363Z" fill="#fa8a0045" stroke-width="1.7999982" />
    </g>
    <g fill-rule="evenodd">
      <path d="M538.462 311.508v88.718l76.919 44.362V355.87l-76.92-44.362Z" fill="#fa8a00c7" stroke-width="1.7999982" />
      <path d="m615.38 444.588 76.928-44.362v-88.718L615.38 355.87v88.718Z" fill="#fa8a008b" stroke-width="1.7999982" />
      <path d="m538.462 311.507 76.919-44.355 76.927 44.355-76.927 44.363-76.92-44.363Z" fill="#fa8a0046" stroke-width="1.7999982" />
    </g>
    <g fill-rule="evenodd">
      <path d="M692.308 311.508v88.718l76.919 44.362V355.87l-76.92-44.362Z" fill="#fa8a00c1" stroke-width="1.7999982" />
      <path d="m769.227 444.588 76.927-44.362v-88.718l-76.927 44.362v88.718Z" fill="#fa8a0087" stroke-width="1.7999982" />
      <path d="m692.308 311.507 76.919-44.355 76.927 44.355-76.927 44.363-76.92-44.363Z" fill="#fa8a0044" stroke-width="1.7999982" />
    </g>
    <g fill="none">
      <path d="M846.154 311.508v88.718l76.919 44.362V355.87l-76.92-44.362ZM923.073 444.588 1000 400.226v-88.718l-76.927 44.362v88.718ZM846.154 311.507l76.919-44.355L1000 311.507l-76.927 44.363-76.92-44.363Z" stroke-width="1.7999982" />
    </g>
    <g fill-rule="evenodd">
      <path d="M1000 311.508v88.718l76.919 44.362V355.87L1000 311.508Z" fill="#fa8a0008" stroke-width="1.7999982" />
      <path d="m1076.919 444.588 76.927-44.362v-88.718l-76.927 44.362v88.718Z" fill="#fa8a0005" stroke-width="1.7999982" />
      <path d="m1000 311.507 76.919-44.355 76.927 44.355-76.927 44.363L1000 311.507Z" fill="#fa8a0003" stroke-width="1.7999982" />
    </g>
    <g fill-rule="evenodd">
      <path d="M1153.846 311.508v88.718l76.92 44.362V355.87l-76.92-44.362Z" fill="#fa8a0076" stroke-width="1.7999982" />
      <path d="m1230.765 444.588 76.927-44.362v-88.718l-76.927 44.362v88.718Z" fill="#fa8a0053" stroke-width="1.7999982" />
      <path d="m1153.846 311.507 76.92-44.355 76.926 44.355-76.927 44.363-76.919-44.363Z" fill="#fa8a0029" stroke-width="1.7999982" />
    </g>
    <g fill-rule="evenodd">
      <path d="M1307.692 311.508v88.718l76.92 44.362V355.87l-76.92-44.362Z" fill="#fa8a0082" stroke-width="1.7999982" />
      <path d="m1384.611 444.588 76.927-44.362v-88.718l-76.927 44.362v88.718Z" fill="#fa8a005b" stroke-width="1.7999982" />
      <path d="m1307.692 311.507 76.92-44.355 76.926 44.355-76.927 44.363-76.919-44.363Z" fill="#fa8a002d" stroke-width="1.7999982" />
    </g>
    <g fill="none">
      <path d="M1461.538 311.508v88.718l76.92 44.362V355.87l-76.92-44.362Z" stroke-width="1.7999982" />
      <path d="m1538.457 444.588 76.928-44.362v-88.718l-76.928 44.362v88.718ZM1461.538 311.507l76.92-44.355 76.927 44.355-76.928 44.363-76.919-44.363Z" stroke-width="1.7999982" />
    </g>
    <g fill-rule="evenodd">
      <path d="M1615.385 311.508v88.718l76.919 44.362V355.87l-76.92-44.362Z" fill="#fa8a00b8" stroke-width="1.7999982" />
      <path d="m1692.304 444.588 76.927-44.362v-88.718l-76.927 44.362v88.718Z" fill="#fa8a0081" stroke-width="1.7999982" />
      <path d="m1615.385 311.507 76.919-44.355 76.927 44.355-76.927 44.363-76.92-44.363Z" fill="#fa8a0041" stroke-width="1.7999982" />
    </g>
    <g fill="none">
      <path d="M1769.23 311.508v88.718l76.92 44.362V355.87l-76.92-44.362ZM1846.15 444.588l76.927-44.362v-88.718l-76.927 44.362v88.718ZM1769.23 311.507l76.92-44.355 76.927 44.355-76.927 44.363-76.92-44.363Z" stroke-width="1.7999982" />
    </g>
    <g fill="none">
      <path d="M1923.077 311.508v88.718l76.919 44.362V355.87l-76.92-44.362ZM1999.996 444.588l76.927-44.362v-88.718l-76.927 44.362v88.718ZM1923.077 311.507l76.919-44.355 76.927 44.355-76.927 44.363-76.92-44.363Z" stroke-width="1.7999982" />
    </g>
    <g fill-rule="evenodd">
      <path d="M0 444.84v88.719l76.919 44.363v-88.718L0 444.84Z" fill="#fa8a00c2" stroke-width="1.7999982" />
      <path d="m76.919 577.922 76.927-44.363v-88.718L76.92 489.204v88.718Z" fill="#fa8a0088" stroke-width="1.7999982" />
      <path d="m0 444.84 76.919-44.354 76.927 44.355-76.927 44.363L0 444.84Z" fill="#fa8a0044" stroke-width="1.7999982" />
    </g>
    <g fill="none">
      <path d="M153.846 444.84v88.719l76.92 44.363v-88.718l-76.92-44.363Z" stroke-width="1.7999982" />
      <path d="m230.765 577.922 76.927-44.363v-88.718l-76.927 44.363v88.718Z" stroke-width="1.7999982" />
      <path d="m153.846 444.84 76.92-44.354 76.926 44.355-76.927 44.363-76.919-44.363Z" stroke-width="1.7999982" />
    </g>
    <g fill="none">
      <path d="M307.692 444.84v88.719l76.92 44.363v-88.718l-76.92-44.363Z" stroke-width="1.7999982" />
      <path d="m384.611 577.922 76.927-44.363v-88.718l-76.927 44.363v88.718Z" stroke-width="1.7999982" />
      <path d="m307.692 444.84 76.92-44.354 76.926 44.355-76.927 44.363-76.919-44.363Z" stroke-width="1.7999982" />
    </g>
    <g fill="none">
      <path d="M461.538 444.84v88.719l76.92 44.363v-88.718l-76.92-44.363Z" stroke-width="1.7999982" />
      <path d="m538.457 577.922 76.928-44.363v-88.718l-76.928 44.363v88.718Z" stroke-width="1.7999982" />
      <path d="m461.538 444.84 76.92-44.354 76.927 44.355-76.928 44.363-76.919-44.363Z" stroke-width="1.7999982" />
    </g>
    <g fill="none">
      <path d="M615.385 444.84v88.719l76.919 44.363v-88.718l-76.92-44.363ZM692.304 577.922l76.927-44.363v-88.718l-76.927 44.363v88.718Z" stroke-width="1.7999982" />
      <path d="m615.385 444.84 76.919-44.354 76.927 44.355-76.927 44.363-76.92-44.363Z" stroke-width="1.7999982" />
    </g>
    <g fill-rule="evenodd">
      <path d="M769.23 444.84v88.719l76.92 44.363v-88.718l-76.92-44.363Z" fill="#fa8a0035" stroke-width="1.7999982" />
      <path d="m846.15 577.922 76.927-44.363v-88.718l-76.927 44.363v88.718Z" fill="#fa8a0025" stroke-width="1.7999982" />
      <path d="m769.23 444.84 76.92-44.354 76.927 44.355-76.927 44.363-76.92-44.363Z" fill="#fa8a0013" stroke-width="1.7999982" />
    </g>
    <g fill-rule="evenodd">
      <path d="M923.077 444.84v88.719l76.919 44.363v-88.718l-76.92-44.363Z" fill="#fa8a00ed" stroke-width="1.7999982" />
      <path d="m999.996 577.922 76.927-44.363v-88.718l-76.927 44.363v88.718Z" fill="#fa8a00a6" stroke-width="1.7999982" />
      <path d="m923.077 444.84 76.919-44.354 76.927 44.355-76.927 44.363-76.92-44.363Z" fill="#fa8a0053" stroke-width="1.7999982" />
    </g>
    <g fill="none">
      <path d="M1076.923 444.84v88.719l76.92 44.363v-88.718l-76.92-44.363Z" stroke-width="1.7999982" />
      <path d="m1153.842 577.922 76.927-44.363v-88.718l-76.927 44.363v88.718Z" stroke-width="1.7999982" />
      <path d="m1076.923 444.84 76.92-44.354 76.926 44.355-76.927 44.363-76.919-44.363Z" stroke-width="1.7999982" />
    </g>
    <g fill="none">
      <path d="M1230.77 444.84v88.719l76.918 44.363v-88.718l-76.919-44.363ZM1307.688 577.922l76.927-44.363v-88.718l-76.927 44.363v88.718Z" stroke-width="1.7999982" />
      <path d="m1230.77 444.84 76.918-44.354 76.927 44.355-76.927 44.363-76.919-44.363Z" stroke-width="1.7999982" />
    </g>
    <g fill="none">
      <path d="M1384.615 444.84v88.719l76.92 44.363v-88.718l-76.92-44.363Z" stroke-width="1.7999982" />
      <path d="m1461.534 577.922 76.928-44.363v-88.718l-76.928 44.363v88.718Z" stroke-width="1.7999982" />
      <path d="m1384.615 444.84 76.92-44.354 76.927 44.355-76.928 44.363-76.919-44.363Z" stroke-width="1.7999982" />
    </g>
    <g fill="none">
      <path d="M1538.462 444.84v88.719l76.919 44.363v-88.718l-76.92-44.363Z" stroke-width="1.7999982" />
      <path d="m1615.38 577.922 76.928-44.363v-88.718l-76.927 44.363v88.718Z" stroke-width="1.7999982" />
      <path d="m1538.462 444.84 76.919-44.354 76.927 44.355-76.927 44.363-76.92-44.363Z" stroke-width="1.7999982" />
    </g>
    <g fill-rule="evenodd">
      <path d="M1692.308 444.84v88.719l76.919 44.363v-88.718l-76.92-44.363Z" fill="#fa8a005d" stroke-width="1.7999982" />
      <path d="m1769.227 577.922 76.927-44.363v-88.718l-76.927 44.363v88.718Z" fill="#fa8a0041" stroke-width="1.7999982" />
      <path d="m1692.308 444.84 76.919-44.354 76.927 44.355-76.927 44.363-76.92-44.363Z" fill="#fa8a0021" stroke-width="1.7999982" />
    </g>
    <g fill-rule="evenodd">
      <path d="M1846.154 444.84v88.719l76.919 44.363v-88.718l-76.92-44.363Z" fill="#fa8a0065" stroke-width="1.7999982" />
      <path d="M1923.073 577.922 2000 533.559v-88.718l-76.927 44.363v88.718Z" fill="#fa8a0047" stroke-width="1.7999982" />
      <path d="m1846.154 444.84 76.919-44.354L2000 444.84l-76.927 44.363-76.92-44.363Z" fill="#fa8a0023" stroke-width="1.7999982" />
    </g>
    <g fill-rule="evenodd">
      <path d="M76.923 578.174v88.718l76.92 44.363v-88.718l-76.92-44.363Z" fill="#fa8a0084" stroke-width="1.7999982" />
      <path d="m153.842 711.255 76.927-44.363v-88.718l-76.927 44.363v88.718Z" fill="#fa8a005c" stroke-width="1.7999982" />
      <path d="m76.923 578.174 76.92-44.355 76.926 44.355-76.927 44.363-76.919-44.363Z" fill="#fa8a002e" stroke-width="1.7999982" />
    </g>
    <g fill="none">
      <path d="M230.77 578.174v88.718l76.918 44.363v-88.718l-76.919-44.363ZM307.688 711.255l76.927-44.363v-88.718l-76.927 44.363v88.718Z" stroke-width="1.7999982" />
      <path d="m230.77 578.174 76.918-44.355 76.927 44.355-76.927 44.363-76.919-44.363Z" stroke-width="1.7999982" />
    </g>
    <g fill-rule="evenodd">
      <path d="M384.615 578.174v88.718l76.92 44.363v-88.718l-76.92-44.363Z" fill="#fa8a00c9" stroke-width="1.7999982" />
      <path d="m461.534 711.255 76.928-44.363v-88.718l-76.928 44.363v88.718Z" fill="#fa8a008c" stroke-width="1.7999982" />
      <path d="m384.615 578.174 76.92-44.355 76.927 44.355-76.928 44.363-76.919-44.363Z" fill="#fa8a0046" stroke-width="1.7999982" />
    </g>
    <g fill="none">
      <path d="M538.462 578.174v88.718l76.919 44.363v-88.718l-76.92-44.363Z" stroke-width="1.7999982" />
      <path d="m615.38 711.255 76.928-44.363v-88.718l-76.927 44.363v88.718ZM538.462 578.174l76.919-44.355 76.927 44.355-76.927 44.363-76.92-44.363Z" stroke-width="1.7999982" />
    </g>
    <g fill="none">
      <path d="M692.308 578.174v88.718l76.919 44.363v-88.718l-76.92-44.363ZM769.227 711.255l76.927-44.363v-88.718l-76.927 44.363v88.718Z" stroke-width="1.7999982" />
      <path d="m692.308 578.174 76.919-44.355 76.927 44.355-76.927 44.363-76.92-44.363Z" stroke-width="1.7999982" />
    </g>
    <g fill="none">
      <path d="M846.154 578.174v88.718l76.919 44.363v-88.718l-76.92-44.363ZM923.073 711.255 1000 666.892v-88.718l-76.927 44.363v88.718Z" stroke-width="1.7999982" />
      <path d="m846.154 578.174 76.919-44.355L1000 578.174l-76.927 44.363-76.92-44.363Z" stroke-width="1.7999982" />
    </g>
    <g fill="none">
      <path d="M1000 578.174v88.718l76.919 44.363v-88.718L1000 578.174ZM1076.919 711.255l76.927-44.363v-88.718l-76.927 44.363v88.718Z" stroke-width="1.7999982" />
      <path d="m1000 578.174 76.919-44.355 76.927 44.355-76.927 44.363L1000 578.174Z" stroke-width="1.7999982" />
    </g>
    <g fill-rule="evenodd">
      <path d="M1153.846 578.174v88.718l76.92 44.363v-88.718l-76.92-44.363Z" fill="#fa8a001e" stroke-width="1.7999982" />
      <path d="m1230.765 711.255 76.927-44.363v-88.718l-76.927 44.363v88.718Z" fill="#fa8a0015" stroke-width="1.7999982" />
      <path d="m1153.846 578.174 76.92-44.355 76.926 44.355-76.927 44.363-76.919-44.363Z" fill="#fa8a000b" stroke-width="1.7999982" />
    </g>
    <g fill="none">
      <path d="M1307.692 578.174v88.718l76.92 44.363v-88.718l-76.92-44.363Z" stroke-width="1.7999982" />
      <path d="m1384.611 711.255 76.927-44.363v-88.718l-76.927 44.363v88.718ZM1307.692 578.174l76.92-44.355 76.926 44.355-76.927 44.363-76.919-44.363Z" stroke-width="1.7999982" />
    </g>
    <g fill="none">
      <path d="M1461.538 578.174v88.718l76.92 44.363v-88.718l-76.92-44.363Z" stroke-width="1.7999982" />
      <path d="m1538.457 711.255 76.928-44.363v-88.718l-76.928 44.363v88.718ZM1461.538 578.174l76.92-44.355 76.927 44.355-76.928 44.363-76.919-44.363Z" stroke-width="1.7999982" />
    </g>
    <g fill-rule="evenodd">
      <path d="M1615.385 578.174v88.718l76.919 44.363v-88.718l-76.92-44.363Z" fill="#fa8a001c" stroke-width="1.7999982" />
      <path d="m1692.304 711.255 76.927-44.363v-88.718l-76.927 44.363v88.718Z" fill="#fa8a0014" stroke-width="1.7999982" />
      <path d="m1615.385 578.174 76.919-44.355 76.927 44.355-76.927 44.363-76.92-44.363Z" fill="#fa8a000a" stroke-width="1.7999982" />
    </g>
    <g fill="none">
      <path d="M1769.23 578.174v88.718l76.92 44.363v-88.718l-76.92-44.363ZM1846.15 711.255l76.927-44.363v-88.718l-76.927 44.363v88.718Z" stroke-width="1.7999982" />
      <path d="m1769.23 578.174 76.92-44.355 76.927 44.355-76.927 44.363-76.92-44.363Z" stroke-width="1.7999982" />
    </g>
    <g fill-rule="evenodd">
      <path d="M1923.077 578.174v88.718l76.919 44.363v-88.718l-76.92-44.363Z" fill="#fa8a0026" stroke-width="1.7999982" />
      <path d="m1999.996 711.255 76.927-44.363v-88.718l-76.927 44.363v88.718Z" fill="#fa8a001b" stroke-width="1.7999982" />
      <path d="m1923.077 578.174 76.919-44.355 76.927 44.355-76.927 44.363-76.92-44.363Z" fill="#fa8a000d" stroke-width="1.7999982" />
    </g>
    <g fill-rule="evenodd">
      <path d="M0 711.508v88.718l76.919 44.362V755.87L0 711.508Z" fill="#fa8a00db" stroke-width="1.7999982" />
      <path d="m76.919 844.588 76.927-44.362v-88.718L76.92 755.87v88.718Z" fill="#fa8a0099" stroke-width="1.7999982" />
      <path d="m0 711.507 76.919-44.355 76.927 44.355L76.92 755.87 0 711.507Z" fill="#fa8a004d" stroke-width="1.7999982" />
    </g>
    <g fill-rule="evenodd">
      <path d="M153.846 711.508v88.718l76.92 44.362V755.87l-76.92-44.362Z" fill="#fa8a0086" stroke-width="1.7999982" />
      <path d="m230.765 844.588 76.927-44.362v-88.718l-76.927 44.362v88.718Z" fill="#fa8a005e" stroke-width="1.7999982" />
      <path d="m153.846 711.507 76.92-44.355 76.926 44.355-76.927 44.363-76.919-44.363Z" fill="#fa8a002f" stroke-width="1.7999982" />
    </g>
    <g fill-rule="evenodd">
      <path d="M307.692 711.508v88.718l76.92 44.362V755.87l-76.92-44.362Z" fill="#fa8a0061" stroke-width="1.7999982" />
      <path d="m384.611 844.588 76.927-44.362v-88.718l-76.927 44.362v88.718Z" fill="#fa8a0044" stroke-width="1.7999982" />
      <path d="m307.692 711.507 76.92-44.355 76.926 44.355-76.927 44.363-76.919-44.363Z" fill="#fa8a0022" stroke-width="1.7999982" />
    </g>
    <g fill-rule="evenodd">
      <path d="M461.538 711.508v88.718l76.92 44.362V755.87l-76.92-44.362Z" fill="#fa8a00b3" stroke-width="1.7999982" />
      <path d="m538.457 844.588 76.928-44.362v-88.718l-76.928 44.362v88.718Z" fill="#fa8a007d" stroke-width="1.7999982" />
      <path d="m461.538 711.507 76.92-44.355 76.927 44.355-76.928 44.363-76.919-44.363Z" fill="#fa8a003f" stroke-width="1.7999982" />
    </g>
    <g fill="none">
      <path d="M615.385 711.508v88.718l76.919 44.362V755.87l-76.92-44.362ZM692.304 844.588l76.927-44.362v-88.718l-76.927 44.362v88.718ZM615.385 711.507l76.919-44.355 76.927 44.355-76.927 44.363-76.92-44.363Z" stroke-width="1.7999982" />
    </g>
    <g fill="none">
      <path d="M769.23 711.508v88.718l76.92 44.362V755.87l-76.92-44.362ZM846.15 844.588l76.927-44.362v-88.718L846.15 755.87v88.718ZM769.23 711.507l76.92-44.355 76.927 44.355-76.927 44.363-76.92-44.363Z" stroke-width="1.7999982" />
    </g>
    <g fill="none">
      <path d="M923.077 711.508v88.718l76.919 44.362V755.87l-76.92-44.362ZM999.996 844.588l76.927-44.362v-88.718l-76.927 44.362v88.718ZM923.077 711.507l76.919-44.355 76.927 44.355-76.927 44.363-76.92-44.363Z" stroke-width="1.7999982" />
    </g>
    <g fill="none">
      <path d="M1076.923 711.508v88.718l76.92 44.362V755.87l-76.92-44.362Z" stroke-width="1.7999982" />
      <path d="m1153.842 844.588 76.927-44.362v-88.718l-76.927 44.362v88.718ZM1076.923 711.507l76.92-44.355 76.926 44.355-76.927 44.363-76.919-44.363Z" stroke-width="1.7999982" />
    </g>
    <g fill-rule="evenodd">
      <path d="M1230.77 711.508v88.718l76.918 44.362V755.87l-76.919-44.362Z" fill="#fa8a001c" stroke-width="1.7999982" />
      <path d="m1307.688 844.588 76.927-44.362v-88.718l-76.927 44.362v88.718Z" fill="#fa8a0013" stroke-width="1.7999982" />
      <path d="m1230.77 711.507 76.918-44.355 76.927 44.355-76.927 44.363-76.919-44.363Z" fill="#fa8a000a" stroke-width="1.7999982" />
    </g>
    <g fill="none">
      <path d="M1384.615 711.508v88.718l76.92 44.362V755.87l-76.92-44.362Z" stroke-width="1.7999982" />
      <path d="m1461.534 844.588 76.928-44.362v-88.718l-76.928 44.362v88.718ZM1384.615 711.507l76.92-44.355 76.927 44.355-76.928 44.363-76.919-44.363Z" stroke-width="1.7999982" />
    </g>
    <g fill="none">
      <path d="M1538.462 711.508v88.718l76.919 44.362V755.87l-76.92-44.362Z" stroke-width="1.7999982" />
      <path d="m1615.38 844.588 76.928-44.362v-88.718l-76.927 44.362v88.718ZM1538.462 711.507l76.919-44.355 76.927 44.355-76.927 44.363-76.92-44.363Z" stroke-width="1.7999982" />
    </g>
    <g fill="none">
      <path d="M1692.308 711.508v88.718l76.919 44.362V755.87l-76.92-44.362ZM1769.227 844.588l76.927-44.362v-88.718l-76.927 44.362v88.718ZM1692.308 711.507l76.919-44.355 76.927 44.355-76.927 44.363-76.92-44.363Z" stroke-width="1.7999982" />
    </g>
    <g fill="none">
      <path d="M1846.154 711.508v88.718l76.919 44.362V755.87l-76.92-44.362ZM1923.073 844.588 2000 800.226v-88.718l-76.927 44.362v88.718ZM1846.154 711.507l76.919-44.355L2000 711.507l-76.927 44.363-76.92-44.363Z" stroke-width="1.7999982" />
    </g>
    <g fill="none">
      <path d="M76.923 844.84v88.719l76.92 44.363v-88.718l-76.92-44.363Z" stroke-width="1.7999982" />
      <path d="m153.842 977.922 76.927-44.363v-88.718l-76.927 44.363v88.718Z" stroke-width="1.7999982" />
      <path d="m76.923 844.84 76.92-44.354 76.926 44.355-76.927 44.363-76.919-44.363Z" stroke-width="1.7999982" />
    </g>
    <g fill-rule="evenodd">
      <path d="M230.77 844.84v88.719l76.918 44.363v-88.718L230.77 844.84Z" fill="#fa8a001c" stroke-width="1.7999982" />
      <path d="m307.688 977.922 76.927-44.363v-88.718l-76.927 44.363v88.718Z" fill="#fa8a0013" stroke-width="1.7999982" />
      <path d="m230.77 844.84 76.918-44.354 76.927 44.355-76.927 44.363-76.919-44.363Z" fill="#fa8a000a" stroke-width="1.7999982" />
    </g>
    <g fill-rule="evenodd">
      <path d="M384.615 844.84v88.719l76.92 44.363v-88.718l-76.92-44.363Z" fill="#fa8a0064" stroke-width="1.7999982" />
      <path d="m461.534 977.922 76.928-44.363v-88.718l-76.928 44.363v88.718Z" fill="#fa8a0046" stroke-width="1.7999982" />
      <path d="m384.615 844.84 76.92-44.354 76.927 44.355-76.928 44.363-76.919-44.363Z" fill="#fa8a0023" stroke-width="1.7999982" />
    </g>
    <g fill-rule="evenodd">
      <path d="M538.462 844.84v88.719l76.919 44.363v-88.718l-76.92-44.363Z" fill="#fa8a0093" stroke-width="1.7999982" />
      <path d="m615.38 977.922 76.928-44.363v-88.718l-76.927 44.363v88.718Z" fill="#fa8a0067" stroke-width="1.7999982" />
      <path d="m538.462 844.84 76.919-44.354 76.927 44.355-76.927 44.363-76.92-44.363Z" fill="#fa8a0033" stroke-width="1.7999982" />
    </g>
    <g fill-rule="evenodd">
      <path d="M692.308 844.84v88.719l76.919 44.363v-88.718l-76.92-44.363Z" fill="#fa8a0031" stroke-width="1.7999982" />
      <path d="m769.227 977.922 76.927-44.363v-88.718l-76.927 44.363v88.718Z" fill="#fa8a0022" stroke-width="1.7999982" />
      <path d="m692.308 844.84 76.919-44.354 76.927 44.355-76.927 44.363-76.92-44.363Z" fill="#fa8a0011" stroke-width="1.7999982" />
    </g>
    <g fill-rule="evenodd">
      <path d="M846.154 844.84v88.719l76.919 44.363v-88.718l-76.92-44.363Z" fill="#fa8a00fc" stroke-width="1.7999982" />
      <path d="M923.073 977.922 1000 933.559v-88.718l-76.927 44.363v88.718Z" fill="#fa8a00b0" stroke-width="1.7999982" />
      <path d="m846.154 844.84 76.919-44.354L1000 844.84l-76.927 44.363-76.92-44.363Z" fill="#fa8a0058" stroke-width="1.7999982" />
    </g>
    <g fill="none">
      <path d="M1000 844.84v88.719l76.919 44.363v-88.718L1000 844.84ZM1076.919 977.922l76.927-44.363v-88.718l-76.927 44.363v88.718Z" stroke-width="1.7999982" />
      <path d="m1000 844.84 76.919-44.354 76.927 44.355-76.927 44.363L1000 844.84Z" stroke-width="1.7999982" />
    </g>
    <g fill-rule="evenodd">
      <path d="M1153.846 844.84v88.719l76.92 44.363v-88.718l-76.92-44.363Z" fill="#fa8a00dc" stroke-width="1.7999982" />
      <path d="m1230.765 977.922 76.927-44.363v-88.718l-76.927 44.363v88.718Z" fill="#fa8a009a" stroke-width="1.7999982" />
      <path d="m1153.846 844.84 76.92-44.354 76.926 44.355-76.927 44.363-76.919-44.363Z" fill="#fa8a004d" stroke-width="1.7999982" />
    </g>
    <g fill="none">
      <path d="M1307.692 844.84v88.719l76.92 44.363v-88.718l-76.92-44.363Z" stroke-width="1.7999982" />
      <path d="m1384.611 977.922 76.927-44.363v-88.718l-76.927 44.363v88.718Z" stroke-width="1.7999982" />
      <path d="m1307.692 844.84 76.92-44.354 76.926 44.355-76.927 44.363-76.919-44.363Z" stroke-width="1.7999982" />
    </g>
    <g fill="none">
      <path d="M1461.538 844.84v88.719l76.92 44.363v-88.718l-76.92-44.363Z" stroke-width="1.7999982" />
      <path d="m1538.457 977.922 76.928-44.363v-88.718l-76.928 44.363v88.718ZM1461.538 844.84l76.92-44.354 76.927 44.355-76.928 44.363-76.919-44.363Z" stroke-width="1.7999982" />
    </g>
    <g fill-rule="evenodd">
      <path d="M1615.385 844.84v88.719l76.919 44.363v-88.718l-76.92-44.363Z" fill="#fa8a00c3" stroke-width="1.7999982" />
      <path d="m1692.304 977.922 76.927-44.363v-88.718l-76.927 44.363v88.718Z" fill="#fa8a0089" stroke-width="1.7999982" />
      <path d="m1615.385 844.84 76.919-44.354 76.927 44.355-76.927 44.363-76.92-44.363Z" fill="#fa8a0044" stroke-width="1.7999982" />
    </g>
    <g fill="none">
      <path d="M1769.23 844.84v88.719l76.92 44.363v-88.718l-76.92-44.363ZM1846.15 977.922l76.927-44.363v-88.718l-76.927 44.363v88.718Z" stroke-width="1.7999982" />
      <path d="m1769.23 844.84 76.92-44.354 76.927 44.355-76.927 44.363-76.92-44.363Z" stroke-width="1.7999982" />
    </g>
    <g fill-rule="evenodd">
      <path d="M1923.077 844.84v88.719l76.919 44.363v-88.718l-76.92-44.363Z" fill="#fa8a0036" stroke-width="1.7999982" />
      <path d="m1999.996 977.922 76.927-44.363v-88.718l-76.927 44.363v88.718Z" fill="#fa8a0026" stroke-width="1.7999982" />
      <path d="m1923.077 844.84 76.919-44.354 76.927 44.355-76.927 44.363-76.92-44.363Z" fill="#fa8a0013" stroke-width="1.7999982" />
    </g>
    <g fill-rule="evenodd">
      <path d="M0 978.174v88.718l76.919 44.363v-88.718L0 978.174Z" fill="#fa8a00be" stroke-width="1.7999982" />
      <path d="m76.919 1111.255 76.927-44.363v-88.718l-76.927 44.363v88.718Z" fill="#fa8a0085" stroke-width="1.7999982" />
      <path d="m0 978.174 76.919-44.355 76.927 44.355-76.927 44.363L0 978.174Z" fill="#fa8a0042" stroke-width="1.7999982" />
    </g>
    <g fill="none">
      <path d="M153.846 978.174v88.718l76.92 44.363v-88.718l-76.92-44.363Z" stroke-width="1.7999982" />
      <path d="m230.765 1111.255 76.927-44.363v-88.718l-76.927 44.363v88.718ZM153.846 978.174l76.92-44.355 76.926 44.355-76.927 44.363-76.919-44.363Z" stroke-width="1.7999982" />
    </g>
    <g fill="none">
      <path d="M307.692 978.174v88.718l76.92 44.363v-88.718l-76.92-44.363Z" stroke-width="1.7999982" />
      <path d="m384.611 1111.255 76.927-44.363v-88.718l-76.927 44.363v88.718ZM307.692 978.174l76.92-44.355 76.926 44.355-76.927 44.363-76.919-44.363Z" stroke-width="1.7999982" />
    </g>
    <g fill="none">
      <path d="M461.538 978.174v88.718l76.92 44.363v-88.718l-76.92-44.363Z" stroke-width="1.7999982" />
      <path d="m538.457 1111.255 76.928-44.363v-88.718l-76.928 44.363v88.718ZM461.538 978.174l76.92-44.355 76.927 44.355-76.928 44.363-76.919-44.363Z" stroke-width="1.7999982" />
    </g>
    <g fill="none">
      <path d="M615.385 978.174v88.718l76.919 44.363v-88.718l-76.92-44.363ZM692.304 1111.255l76.927-44.363v-88.718l-76.927 44.363v88.718Z" stroke-width="1.7999982" />
      <path d="m615.385 978.174 76.919-44.355 76.927 44.355-76.927 44.363-76.92-44.363Z" stroke-width="1.7999982" />
    </g>
    <g fill-rule="evenodd">
      <path d="M769.23 978.174v88.718l76.92 44.363v-88.718l-76.92-44.363Z" fill="#fa8a008c" stroke-width="1.7999982" />
      <path d="m846.15 1111.255 76.927-44.363v-88.718l-76.927 44.363v88.718Z" fill="#fa8a0062" stroke-width="1.7999982" />
      <path d="m769.23 978.174 76.92-44.355 76.927 44.355-76.927 44.363-76.92-44.363Z" fill="#fa8a0031" stroke-width="1.7999982" />
    </g>
    <g fill="none">
      <path d="M923.077 978.174v88.718l76.919 44.363v-88.718l-76.92-44.363ZM999.996 1111.255l76.927-44.363v-88.718l-76.927 44.363v88.718Z" stroke-width="1.7999982" />
      <path d="m923.077 978.174 76.919-44.355 76.927 44.355-76.927 44.363-76.92-44.363Z" stroke-width="1.7999982" />
    </g>
    <g fill-rule="evenodd">
      <path d="M1076.923 978.174v88.718l76.92 44.363v-88.718l-76.92-44.363Z" fill="#fa8a004e" stroke-width="1.7999982" />
      <path d="m1153.842 1111.255 76.927-44.363v-88.718l-76.927 44.363v88.718Z" fill="#fa8a0037" stroke-width="1.7999982" />
      <path d="m1076.923 978.174 76.92-44.355 76.926 44.355-76.927 44.363-76.919-44.363Z" fill="#fa8a001b" stroke-width="1.7999982" />
    </g>
    <g fill="none">
      <path d="M1230.77 978.174v88.718l76.918 44.363v-88.718l-76.919-44.363ZM1307.688 1111.255l76.927-44.363v-88.718l-76.927 44.363v88.718Z" stroke-width="1.7999982" />
      <path d="m1230.77 978.174 76.918-44.355 76.927 44.355-76.927 44.363-76.919-44.363Z" stroke-width="1.7999982" />
    </g>
    <g fill="none">
      <path d="M1384.615 978.174v88.718l76.92 44.363v-88.718l-76.92-44.363Z" stroke-width="1.7999982" />
      <path d="m1461.534 1111.255 76.928-44.363v-88.718l-76.928 44.363v88.718ZM1384.615 978.174l76.92-44.355 76.927 44.355-76.928 44.363-76.919-44.363Z" stroke-width="1.7999982" />
    </g>
    <g fill="none">
      <path d="M1538.462 978.174v88.718l76.919 44.363v-88.718l-76.92-44.363Z" stroke-width="1.7999982" />
      <path d="m1615.38 1111.255 76.928-44.363v-88.718l-76.927 44.363v88.718ZM1538.462 978.174l76.919-44.355 76.927 44.355-76.927 44.363-76.92-44.363Z" stroke-width="1.7999982" />
    </g>
    <g fill="none">
      <path d="M1692.308 978.174v88.718l76.919 44.363v-88.718l-76.92-44.363ZM1769.227 1111.255l76.927-44.363v-88.718l-76.927 44.363v88.718Z" stroke-width="1.7999982" />
      <path d="m1692.308 978.174 76.919-44.355 76.927 44.355-76.927 44.363-76.92-44.363Z" stroke-width="1.7999982" />
    </g>
    <g fill="none">
      <path d="M1846.154 978.174v88.718l76.919 44.363v-88.718l-76.92-44.363ZM1923.073 1111.255l76.927-44.363v-88.718l-76.927 44.363v88.718Z" stroke-width="1.7999982" />
      <path d="m1846.154 978.174 76.919-44.355L2000 978.174l-76.927 44.363-76.92-44.363Z" stroke-width="1.7999982" />
    </g>
    <g fill-rule="evenodd">
      <path d="M76.923 1111.508v88.718l76.92 44.362v-88.718l-76.92-44.362Z" fill="#fa8a008a" stroke-width="1.7999982" />
      <path d="m153.842 1244.588 76.927-44.362v-88.718l-76.927 44.362v88.718Z" fill="#fa8a0060" stroke-width="1.7999982" />
      <path d="m76.923 1111.507 76.92-44.355 76.926 44.355-76.927 44.363-76.919-44.363Z" fill="#fa8a0030" stroke-width="1.7999982" />
    </g>
    <g fill="none">
      <path d="M230.77 1111.508v88.718l76.918 44.362v-88.718l-76.919-44.362ZM307.688 1244.588l76.927-44.362v-88.718l-76.927 44.362v88.718Z" stroke-width="1.7999982" />
      <path d="m230.77 1111.507 76.918-44.355 76.927 44.355-76.927 44.363-76.919-44.363Z" stroke-width="1.7999982" />
    </g>
    <g fill="none">
      <path d="M384.615 1111.508v88.718l76.92 44.362v-88.718l-76.92-44.362Z" stroke-width="1.7999982" />
      <path d="m461.534 1244.588 76.928-44.362v-88.718l-76.928 44.362v88.718Z" stroke-width="1.7999982" />
      <path d="m384.615 1111.507 76.92-44.355 76.927 44.355-76.928 44.363-76.919-44.363Z" stroke-width="1.7999982" />
    </g>
    <g fill="none">
      <path d="M538.462 1111.508v88.718l76.919 44.362v-88.718l-76.92-44.362Z" stroke-width="1.7999982" />
      <path d="m615.38 1244.588 76.928-44.362v-88.718l-76.927 44.362v88.718Z" stroke-width="1.7999982" />
      <path d="m538.462 1111.507 76.919-44.355 76.927 44.355-76.927 44.363-76.92-44.363Z" stroke-width="1.7999982" />
    </g>
    <g fill="none">
      <path d="M692.308 1111.508v88.718l76.919 44.362v-88.718l-76.92-44.362ZM769.227 1244.588l76.927-44.362v-88.718l-76.927 44.362v88.718Z" stroke-width="1.7999982" />
      <path d="m692.308 1111.507 76.919-44.355 76.927 44.355-76.927 44.363-76.92-44.363Z" stroke-width="1.7999982" />
    </g>
    <g fill="none">
      <path d="M846.154 1111.508v88.718l76.919 44.362v-88.718l-76.92-44.362ZM923.073 1244.588l76.927-44.362v-88.718l-76.927 44.362v88.718Z" stroke-width="1.7999982" />
      <path d="m846.154 1111.507 76.919-44.355 76.927 44.355-76.927 44.363-76.92-44.363Z" stroke-width="1.7999982" />
    </g>
    <g fill="none">
      <path d="M1000 1111.508v88.718l76.919 44.362v-88.718L1000 1111.508ZM1076.919 1244.588l76.927-44.362v-88.718l-76.927 44.362v88.718Z" stroke-width="1.7999982" />
      <path d="m1000 1111.507 76.919-44.355 76.927 44.355-76.927 44.363-76.919-44.363Z" stroke-width="1.7999982" />
    </g>
    <g fill="none">
      <path d="M1153.846 1111.508v88.718l76.92 44.362v-88.718l-76.92-44.362Z" stroke-width="1.7999982" />
      <path d="m1230.765 1244.588 76.927-44.362v-88.718l-76.927 44.362v88.718Z" stroke-width="1.7999982" />
      <path d="m1153.846 1111.507 76.92-44.355 76.926 44.355-76.927 44.363-76.919-44.363Z" stroke-width="1.7999982" />
    </g>
    <g fill="none">
      <path d="M1307.692 1111.508v88.718l76.92 44.362v-88.718l-76.92-44.362Z" stroke-width="1.7999982" />
      <path d="m1384.611 1244.588 76.927-44.362v-88.718l-76.927 44.362v88.718Z" stroke-width="1.7999982" />
      <path d="m1307.692 1111.507 76.92-44.355 76.926 44.355-76.927 44.363-76.919-44.363Z" stroke-width="1.7999982" />
    </g>
    <g fill-rule="evenodd">
      <path d="M1461.538 1111.508v88.718l76.92 44.362v-88.718l-76.92-44.362Z" fill="#fa8a009c" stroke-width="1.7999982" />
      <path d="m1538.457 1244.588 76.928-44.362v-88.718l-76.928 44.362v88.718Z" fill="#fa8a006d" stroke-width="1.7999982" />
      <path d="m1461.538 1111.507 76.92-44.355 76.927 44.355-76.928 44.363-76.919-44.363Z" fill="#fa8a0037" stroke-width="1.7999982" />
    </g>
    <g fill="none">
      <path d="M1615.385 1111.508v88.718l76.919 44.362v-88.718l-76.92-44.362ZM1692.304 1244.588l76.927-44.362v-88.718l-76.927 44.362v88.718Z" stroke-width="1.7999982" />
      <path d="m1615.385 1111.507 76.919-44.355 76.927 44.355-76.927 44.363-76.92-44.363Z" stroke-width="1.7999982" />
    </g>
    <g fill="none">
      <path d="M1769.23 1111.508v88.718l76.92 44.362v-88.718l-76.92-44.362ZM1846.15 1244.588l76.927-44.362v-88.718l-76.927 44.362v88.718Z" stroke-width="1.7999982" />
      <path d="m1769.23 1111.507 76.92-44.355 76.927 44.355-76.927 44.363-76.92-44.363Z" stroke-width="1.7999982" />
    </g>
    <g fill="none">
      <path d="M1923.077 1111.508v88.718l76.919 44.362v-88.718l-76.92-44.362ZM1999.996 1244.588l76.927-44.362v-88.718l-76.927 44.362v88.718Z" stroke-width="1.7999982" />
      <path d="m1923.077 1111.507 76.919-44.355 76.927 44.355-76.927 44.363-76.92-44.363Z" stroke-width="1.7999982" />
    </g>
    <g fill="none">
      <path d="M0 1244.84v88.719l76.919 44.363v-88.718L0 1244.84ZM76.919 1377.922l76.927-44.363v-88.718l-76.927 44.363v88.718Z" stroke-width="1.7999982" />
      <path d="m0 1244.84 76.919-44.354 76.927 44.355-76.927 44.363L0 1244.84Z" stroke-width="1.7999982" />
    </g>
    <g fill-rule="evenodd">
      <path d="M153.846 1244.84v88.719l76.92 44.363v-88.718l-76.92-44.363Z" fill="#fa8a00b4" stroke-width="1.7999982" />
      <path d="m230.765 1377.922 76.927-44.363v-88.718l-76.927 44.363v88.718Z" fill="#fa8a007e" stroke-width="1.7999982" />
      <path d="m153.846 1244.84 76.92-44.354 76.926 44.355-76.927 44.363-76.919-44.363Z" fill="#fa8a003f" stroke-width="1.7999982" />
    </g>
    <g fill="none">
      <path d="M307.692 1244.84v88.719l76.92 44.363v-88.718l-76.92-44.363Z" stroke-width="1.7999982" />
      <path d="m384.611 1377.922 76.927-44.363v-88.718l-76.927 44.363v88.718Z" stroke-width="1.7999982" />
      <path d="m307.692 1244.84 76.92-44.354 76.926 44.355-76.927 44.363-76.919-44.363Z" stroke-width="1.7999982" />
    </g>
    <g fill="none">
      <path d="M461.538 1244.84v88.719l76.92 44.363v-88.718l-76.92-44.363Z" stroke-width="1.7999982" />
      <path d="m538.457 1377.922 76.928-44.363v-88.718l-76.928 44.363v88.718Z" stroke-width="1.7999982" />
      <path d="m461.538 1244.84 76.92-44.354 76.927 44.355-76.928 44.363-76.919-44.363Z" stroke-width="1.7999982" />
    </g>
    <g fill-rule="evenodd">
      <path d="M615.385 1244.84v88.719l76.919 44.363v-88.718l-76.92-44.363Z" fill="#fa8a0082" stroke-width="1.7999982" />
      <path d="m692.304 1377.922 76.927-44.363v-88.718l-76.927 44.363v88.718Z" fill="#fa8a005b" stroke-width="1.7999982" />
      <path d="m615.385 1244.84 76.919-44.354 76.927 44.355-76.927 44.363-76.92-44.363Z" fill="#fa8a002d" stroke-width="1.7999982" />
    </g>
    <g fill="none">
      <path d="M769.23 1244.84v88.719l76.92 44.363v-88.718l-76.92-44.363ZM846.15 1377.922l76.927-44.363v-88.718l-76.927 44.363v88.718Z" stroke-width="1.7999982" />
      <path d="m769.23 1244.84 76.92-44.354 76.927 44.355-76.927 44.363-76.92-44.363Z" stroke-width="1.7999982" />
    </g>
    <g fill="none">
      <path d="M923.077 1244.84v88.719l76.919 44.363v-88.718l-76.92-44.363ZM999.996 1377.922l76.927-44.363v-88.718l-76.927 44.363v88.718Z" stroke-width="1.7999982" />
      <path d="m923.077 1244.84 76.919-44.354 76.927 44.355-76.927 44.363-76.92-44.363Z" stroke-width="1.7999982" />
    </g>
    <g fill="none">
      <path d="M1076.923 1244.84v88.719l76.92 44.363v-88.718l-76.92-44.363Z" stroke-width="1.7999982" />
      <path d="m1153.842 1377.922 76.927-44.363v-88.718l-76.927 44.363v88.718Z" stroke-width="1.7999982" />
      <path d="m1076.923 1244.84 76.92-44.354 76.926 44.355-76.927 44.363-76.919-44.363Z" stroke-width="1.7999982" />
    </g>
    <g fill="none">
      <path d="M1230.77 1244.84v88.719l76.918 44.363v-88.718l-76.919-44.363ZM1307.688 1377.922l76.927-44.363v-88.718l-76.927 44.363v88.718Z" stroke-width="1.7999982" />
      <path d="m1230.77 1244.84 76.918-44.354 76.927 44.355-76.927 44.363-76.919-44.363Z" stroke-width="1.7999982" />
    </g>
    <g fill-rule="evenodd">
      <path d="M1384.615 1244.84v88.719l76.92 44.363v-88.718l-76.92-44.363Z" fill="#fa8a00c2" stroke-width="1.7999982" />
      <path d="m1461.534 1377.922 76.928-44.363v-88.718l-76.928 44.363v88.718Z" fill="#fa8a0088" stroke-width="1.7999982" />
      <path d="m1384.615 1244.84 76.92-44.354 76.927 44.355-76.928 44.363-76.919-44.363Z" fill="#fa8a0044" stroke-width="1.7999982" />
    </g>
    <g fill="none">
      <path d="M1538.462 1244.84v88.719l76.919 44.363v-88.718l-76.92-44.363Z" stroke-width="1.7999982" />
      <path d="m1615.38 1377.922 76.928-44.363v-88.718l-76.927 44.363v88.718Z" stroke-width="1.7999982" />
      <path d="m1538.462 1244.84 76.919-44.354 76.927 44.355-76.927 44.363-76.92-44.363Z" stroke-width="1.7999982" />
    </g>
    <g fill="none">
      <path d="M1692.308 1244.84v88.719l76.919 44.363v-88.718l-76.92-44.363ZM1769.227 1377.922l76.927-44.363v-88.718l-76.927 44.363v88.718Z" stroke-width="1.7999982" />
      <path d="m1692.308 1244.84 76.919-44.354 76.927 44.355-76.927 44.363-76.92-44.363Z" stroke-width="1.7999982" />
    </g>
    <g fill-rule="evenodd">
      <path d="M1846.154 1244.84v88.719l76.919 44.363v-88.718l-76.92-44.363Z" fill="#fa8a00f2" stroke-width="1.7999982" />
      <path d="m1923.073 1377.922 76.927-44.363v-88.718l-76.927 44.363v88.718Z" fill="#fa8a00aa" stroke-width="1.7999982" />
      <path d="m1846.154 1244.84 76.919-44.354L2000 1244.84l-76.927 44.363-76.92-44.363Z" fill="#fa8a0055" stroke-width="1.7999982" />
    </g>
    <g fill="none">
      <path d="M76.923 1378.174v88.718l76.92 44.363v-88.718l-76.92-44.363Z" stroke-width="1.7999982" />
      <path d="m153.842 1511.255 76.927-44.363v-88.718l-76.927 44.363v88.718Z" stroke-width="1.7999982" />
      <path d="m76.923 1378.174 76.92-44.355 76.926 44.355-76.927 44.363-76.919-44.363Z" stroke-width="1.7999982" />
    </g>
    <g fill="none">
      <path d="M230.77 1378.174v88.718l76.918 44.363v-88.718l-76.919-44.363ZM307.688 1511.255l76.927-44.363v-88.718l-76.927 44.363v88.718Z" stroke-width="1.7999982" />
      <path d="m230.77 1378.174 76.918-44.355 76.927 44.355-76.927 44.363-76.919-44.363Z" stroke-width="1.7999982" />
    </g>
    <g fill="none">
      <path d="M384.615 1378.174v88.718l76.92 44.363v-88.718l-76.92-44.363Z" stroke-width="1.7999982" />
      <path d="m461.534 1511.255 76.928-44.363v-88.718l-76.928 44.363v88.718Z" stroke-width="1.7999982" />
      <path d="m384.615 1378.174 76.92-44.355 76.927 44.355-76.928 44.363-76.919-44.363Z" stroke-width="1.7999982" />
    </g>
    <g fill="none">
      <path d="M538.462 1378.174v88.718l76.919 44.363v-88.718l-76.92-44.363Z" stroke-width="1.7999982" />
      <path d="m615.38 1511.255 76.928-44.363v-88.718l-76.927 44.363v88.718Z" stroke-width="1.7999982" />
      <path d="m538.462 1378.174 76.919-44.355 76.927 44.355-76.927 44.363-76.92-44.363Z" stroke-width="1.7999982" />
    </g>
    <g fill="none">
      <path d="M692.308 1378.174v88.718l76.919 44.363v-88.718l-76.92-44.363ZM769.227 1511.255l76.927-44.363v-88.718l-76.927 44.363v88.718Z" stroke-width="1.7999982" />
      <path d="m692.308 1378.174 76.919-44.355 76.927 44.355-76.927 44.363-76.92-44.363Z" stroke-width="1.7999982" />
    </g>
    <g fill="none">
      <path d="M846.154 1378.174v88.718l76.919 44.363v-88.718l-76.92-44.363ZM923.073 1511.255l76.927-44.363v-88.718l-76.927 44.363v88.718Z" stroke-width="1.7999982" />
      <path d="m846.154 1378.174 76.919-44.355 76.927 44.355-76.927 44.363-76.92-44.363Z" stroke-width="1.7999982" />
    </g>
    <g fill="none">
      <path d="M1000 1378.174v88.718l76.919 44.363v-88.718L1000 1378.174ZM1076.919 1511.255l76.927-44.363v-88.718l-76.927 44.363v88.718Z" stroke-width="1.7999982" />
      <path d="m1000 1378.174 76.919-44.355 76.927 44.355-76.927 44.363-76.919-44.363Z" stroke-width="1.7999982" />
    </g>
    <g fill="none">
      <path d="M1153.846 1378.174v88.718l76.92 44.363v-88.718l-76.92-44.363Z" stroke-width="1.7999982" />
      <path d="m1230.765 1511.255 76.927-44.363v-88.718l-76.927 44.363v88.718Z" stroke-width="1.7999982" />
      <path d="m1153.846 1378.174 76.92-44.355 76.926 44.355-76.927 44.363-76.919-44.363Z" stroke-width="1.7999982" />
    </g>
    <g fill-rule="evenodd">
      <path d="M1307.692 1378.174v88.718l76.92 44.363v-88.718l-76.92-44.363Z" fill="#fa8a0091" stroke-width="1.7999982" />
      <path d="m1384.611 1511.255 76.927-44.363v-88.718l-76.927 44.363v88.718Z" fill="#fa8a0065" stroke-width="1.7999982" />
      <path d="m1307.692 1378.174 76.92-44.355 76.926 44.355-76.927 44.363-76.919-44.363Z" fill="#fa8a0033" stroke-width="1.7999982" />
    </g>
    <g fill="none">
      <path d="M1461.538 1378.174v88.718l76.92 44.363v-88.718l-76.92-44.363Z" stroke-width="1.7999982" />
      <path d="m1538.457 1511.255 76.928-44.363v-88.718l-76.928 44.363v88.718ZM1461.538 1378.174l76.92-44.355 76.927 44.355-76.928 44.363-76.919-44.363Z" stroke-width="1.7999982" />
    </g>
    <g fill="none">
      <path d="M1615.385 1378.174v88.718l76.919 44.363v-88.718l-76.92-44.363ZM1692.304 1511.255l76.927-44.363v-88.718l-76.927 44.363v88.718Z" stroke-width="1.7999982" />
      <path d="m1615.385 1378.174 76.919-44.355 76.927 44.355-76.927 44.363-76.92-44.363Z" stroke-width="1.7999982" />
    </g>
    <g fill-rule="evenodd">
      <path d="M1769.23 1378.174v88.718l76.92 44.363v-88.718l-76.92-44.363Z" fill="#fa8a00d8" stroke-width="1.7999982" />
      <path d="m1846.15 1511.255 76.927-44.363v-88.718l-76.927 44.363v88.718Z" fill="#fa8a0097" stroke-width="1.7999982" />
      <path d="m1769.23 1378.174 76.92-44.355 76.927 44.355-76.927 44.363-76.92-44.363Z" fill="#fa8a004c" stroke-width="1.7999982" />
    </g>
    <g fill="none">
      <path d="M1923.077 1378.174v88.718l76.919 44.363v-88.718l-76.92-44.363ZM1999.996 1511.255l76.927-44.363v-88.718l-76.927 44.363v88.718Z" stroke-width="1.7999982" />
      <path d="m1923.077 1378.174 76.919-44.355 76.927 44.355-76.927 44.363-76.92-44.363Z" stroke-width="1.7999982" />
    </g>
  </g>
  <path fill="#f3f3f3" filter="url(#c)" opacity=".8" d="M0 0h2000v1400H0z" />
  <defs>
    <radialGradient id="a">
      <stop offset="0" stop-color="#fff" />
      <stop offset="1" stop-color="#fff" stop-opacity="0" />
    </radialGradient>
    <filter id="c" x="-800" y="-560" width="2800" height="1960" filterUnits="userSpaceOnUse" primitiveUnits="userSpaceOnUse" color-interpolation-filters="linearRGB">
      <feTurbulence type="fractalNoise" baseFrequency=".115" numOctaves="4" seed="15" stitchTiles="no-stitch" x="0" y="0" width="2000" height="1400" result="turbulence" />
      <feSpecularLighting surfaceScale="10" specularConstant=".19" specularExponent="20" lighting-color="#fff" x="0" y="0" width="2000" height="1400" in="turbulence" result="specularLighting">
        <feDistantLight azimuth="3" elevation="100" />
      </feSpecularLighting>
    </filter>
  </defs>
</svg>