<?xml version="1.0" encoding="UTF-8" standalone="no"?>
<!-- Created with Inkscape (http://www.inkscape.org/) -->

<svg
   width="34.932961mm"
   height="34.932945mm"
   viewBox="0 0 34.932961 34.932945"
   version="1.1"
   id="svg1"
   xml:space="preserve"
   sodipodi:docname="amber-1.svg"
   inkscape:version="1.3.2 (091e20e, 2023-11-25)"
   xmlns:inkscape="http://www.inkscape.org/namespaces/inkscape"
   xmlns:sodipodi="http://sodipodi.sourceforge.net/DTD/sodipodi-0.dtd"
   xmlns="http://www.w3.org/2000/svg"
   xmlns:svg="http://www.w3.org/2000/svg"><sodipodi:namedview
     id="namedview1"
     pagecolor="#ffffff"
     bordercolor="#000000"
     borderopacity="0.25"
     inkscape:showpageshadow="2"
     inkscape:pageopacity="0.0"
     inkscape:pagecheckerboard="0"
     inkscape:deskcolor="#d1d1d1"
     inkscape:document-units="mm"
     inkscape:zoom="2.0806696"
     inkscape:cx="44.456843"
     inkscape:cy="154.99818"
     inkscape:window-width="1392"
     inkscape:window-height="950"
     inkscape:window-x="0"
     inkscape:window-y="25"
     inkscape:window-maximized="0"
     inkscape:current-layer="svg1" /><defs
     id="defs1" /><g
     id="layer1"
     transform="matrix(0.86531299,0,0,0.86531299,-110.78553,-234.48245)"><rect
       style="fill:#ffbf00;fill-opacity:1;stroke:none;stroke-width:1.09165;stroke-linecap:square;stroke-dasharray:none;stroke-opacity:1"
       id="rect41-8-7-8-9-2"
       width="34.932961"
       height="34.932961"
       x="130.96854"
       y="273.91904"
       ry="4.3848906" /><path
       id="path2-9-0-08-6-3-8-2-3"
       style="fill:#ffdf80;fill-opacity:1;stroke:none;stroke-width:0.563204;stroke-linecap:square;stroke-dasharray:none;stroke-opacity:1"
       d="m 156.42144,285.78527 -0.16651,0.16023 -3.40261,3.27442 a 0.65060921,0.68425104 46.099964 0 0 -0.0419,0.94334 l 3.1136,3.2355 c 0.0157,0.0164 0.0325,0.0309 0.0506,0.0439 a 6.745929,9.1770084 46.099964 0 0 0.4471,-7.65752 z" /><path
       id="path2-9-0-3-7-99-0-7-9"
       style="fill:#ffffff;fill-opacity:1;stroke:none;stroke-width:0.0817968;stroke-linecap:square"
       d="m 155.21912,284.05395 a 7.9857892,10.541242 46.099964 0 0 -13.13276,1.55503 7.9857892,10.541242 46.099964 0 0 -2.05826,13.06363 7.9857892,10.541242 46.099964 0 0 13.133,-1.55529 7.9857892,10.541242 46.099964 0 0 2.51076,-3.2867 l -3.49013,-3.62678 a 0.77018714,0.78597025 46.099964 0 1 0.0323,-1.10004 l 3.90843,-3.76117 0.028,-0.027 a 7.9857892,10.541242 46.099964 0 0 -0.93144,-1.26168 z" /><path
       id="path2-9-0-08-6-9-8-7-7-2-3-9"
       style="fill:#ffdf80;fill-opacity:1;stroke:none;stroke-width:0.270423;stroke-linecap:square;stroke-dasharray:none;stroke-opacity:1"
       d="m 140.2461,294.76847 0.0799,-0.0769 1.63377,-1.57221 a 0.31239179,0.32854501 46.099964 0 0 0.0202,-0.45296 l -1.495,-1.55353 c -0.008,-0.008 -0.0154,-0.015 -0.0243,-0.021 a 3.2390762,4.4063655 46.099964 0 0 -0.21468,3.67678 z" /></g></svg>
